<svg width="25" height="22" viewBox="0 0 25 22" fill="none" xmlns="http://www.w3.org/2000/svg">
<path fill-rule="evenodd" clip-rule="evenodd" d="M0 20.4619C0 20.1426 0.119724 19.8365 0.332833 19.6108C0.545943 19.385 0.834981 19.2582 1.13636 19.2582H23.8636C24.165 19.2582 24.4541 19.385 24.6672 19.6108C24.8803 19.8365 25 20.1426 25 20.4619C25 20.7811 24.8803 21.0872 24.6672 21.313C24.4541 21.5387 24.165 21.6655 23.8636 21.6655H1.13636C0.834981 21.6655 0.545943 21.5387 0.332833 21.313C0.119724 21.0872 0 20.7811 0 20.4619ZM0 10.8327C0 10.5135 0.119724 10.2074 0.332833 9.98165C0.545943 9.75592 0.834981 9.62911 1.13636 9.62911H23.8636C24.165 9.62911 24.4541 9.75592 24.6672 9.98165C24.8803 10.2074 25 10.5135 25 10.8327C25 11.152 24.8803 11.4581 24.6672 11.6838C24.4541 11.9096 24.165 12.0364 23.8636 12.0364H1.13636C0.834981 12.0364 0.545943 11.9096 0.332833 11.6838C0.119724 11.4581 0 11.152 0 10.8327ZM0 1.20364C0 0.884414 0.119724 0.578264 0.332833 0.352538C0.545943 0.126812 0.834981 0 1.13636 0H23.8636C24.165 0 24.4541 0.126812 24.6672 0.352538C24.8803 0.578264 25 0.884414 25 1.20364C25 1.52286 24.8803 1.82901 24.6672 2.05474C24.4541 2.28047 24.165 2.40728 23.8636 2.40728H1.13636C0.834981 2.40728 0.545943 2.28047 0.332833 2.05474C0.119724 1.82901 0 1.52286 0 1.20364Z" fill="white"/>
</svg>
