<svg width="689" height="132" viewBox="0 0 689 132" fill="none" xmlns="http://www.w3.org/2000/svg">
<path d="M87.3724 69.1199L99.5149 79.7452L108.622 96.4424L108.622 113.139L105 114L104 111L102.491 109.938L39.096 111.813L36.8453 113.314L35.1734 116.175L29.6908 116.175L32.9154 103.645L37.2812 82.7811L52.4604 70.6378L69.1575 66.084L87.3724 69.1199Z" fill="#0C0C0C"/>
<circle cx="70" cy="103" r="22" fill="#DEDEDE"/>
<path d="M69.5 73C53.2092 73 40 86.2092 40 102.5C40 118.791 53.2092 132 69.5 132C85.7908 132 99 118.791 99 102.5C99 86.2092 85.7908 73 69.5 73ZM89.0414 104.323L87.2564 105.882L80.943 103.778L78.5567 105.713L79.3459 108.682L85.678 110.692L86.2041 113.004L83.5736 116.818L80.8866 117.118L74.2162 107.911L73.5586 108.381L72.901 108.851L79.5713 118.058L78.444 120.501L73.9908 121.797L71.9615 120.576L72.0366 113.924L69.4812 112.252L66.907 113.943L66.9822 120.595L64.9529 121.816L60.5185 120.501L59.3911 118.058L66.0802 108.851L65.4226 108.381L64.765 107.911L58.0758 117.118L55.3889 116.799L52.7771 112.985L53.322 110.674L59.6729 108.682L60.4433 105.694L58.0382 103.778L51.7436 105.901L49.9586 104.36L49.8271 99.7379L51.8 97.8965L62.6229 101.391L62.8672 100.621L63.1115 99.8506L52.2885 96.3557L51.7624 93.7064L54.5809 90.0236L56.9484 89.8169L60.8191 95.2283L63.9382 95.1156L65.028 92.2408L61.0634 86.9045L61.9841 84.7249L66.3433 83.1841L68.692 84.4994V95.8672H70.308V84.4994L72.6567 83.1841L77.0159 84.7249L77.9366 86.9045L73.972 92.2408L75.0618 95.0968L78.1245 95.2283L81.9576 89.7981L84.3252 89.986L87.1624 93.65L86.6363 96.2994L75.8322 99.8319L76.0764 100.602L76.3207 101.373L87.1248 97.8401L89.1166 99.6627L89.0038 104.285L89.0414 104.323Z" fill="#212426"/>
<path d="M327.803 63.9263L340.13 74.7193L349.134 91.5446L348 107L341 109L340.13 107.104L339.5 106L338.5 105.5L275.5 108L273.5 109.5L272.354 113.199L268.451 113.179L265.294 113.199L270.233 97.7226L275.351 76.9123L291.468 64.9713L308.952 60.6427L327.803 63.9263Z" fill="#0C0C0C"/>
<circle cx="308" cy="103" r="22" fill="#DEDEDE"/>
<path d="M308 73C291.985 73 279 86.2092 279 102.5C279 118.791 291.985 132 308 132C324.015 132 337 118.791 337 102.5C337 86.2092 324.015 73 308 73ZM327.21 104.323L325.455 105.882L319.249 103.778L316.903 105.713L317.679 108.682L323.904 110.692L324.421 113.004L321.835 116.818L319.194 117.118L312.636 107.911L311.99 108.381L311.343 108.851L317.901 118.058L316.792 120.501L312.415 121.797L310.42 120.576L310.494 113.924L307.982 112.252L305.451 113.943L305.525 120.595L303.53 121.816L299.171 120.501L298.062 118.058L304.638 108.851L303.992 108.381L303.345 107.911L296.769 117.118L294.128 116.799L291.561 112.985L292.096 110.674L298.339 108.682L299.097 105.694L296.732 103.778L290.545 105.901L288.79 104.36L288.661 99.7379L290.6 97.8965L301.239 101.391L301.48 100.621L301.72 99.8506L291.08 96.3557L290.563 93.7064L293.334 90.0236L295.661 89.8169L299.466 95.2283L302.532 95.1156L303.604 92.2408L299.706 86.9045L300.611 84.7249L304.897 83.1841L307.206 84.4994V95.8672H308.794V84.4994L311.103 83.1841L315.389 84.7249L316.294 86.9045L312.396 92.2408L313.468 95.0968L316.478 95.2283L320.246 89.7981L322.574 89.986L325.363 93.65L324.846 96.2994L314.225 99.8319L314.465 100.602L314.705 101.373L325.326 97.8401L327.284 99.6627L327.173 104.285L327.21 104.323Z" fill="#212426"/>
<path d="M218.48 2.97394L215.507 44.7376L283.875 40.1479L291.307 25.2783L294.28 17.8435L270.5 8.92176L246.454 4.47741L218.48 2.97394Z" fill="black" fill-opacity="0.6"/>
<path d="M212.536 2.97381L199.159 44.6087L150.113 47.5826L133.764 49.0696L125.804 31.0145L160.516 13.3825L181.324 5.94772L212.536 2.97381Z" fill="black" fill-opacity="0.6"/>
<path d="M268.4 92.6736L269.493 105.178L265.229 109.585L114.833 110.975L114.828 100.909L268.4 92.6736Z" fill="#D5D3D3"/>
<path d="M18.5357 87.7714L20.2473 107.537L2.61736 105.29L0.710763 94.7884L18.5357 87.7714Z" fill="#D5D3D3"/>
<path d="M45.6206 53.0417L38.5538 73.3113L5.60297 79.4484L8.48133 65.0132L45.6206 53.0417Z" fill="#D5D3D3"/>
<path d="M372.331 47.0553L373.055 51.3585L373.35 55.8899L373.204 61.0616L372.019 66.1519L353.105 64.5107L342.44 39.3794L356.103 40.5361L363.088 40.3638L366.591 40.5521L369.957 41.2074L370.783 41.9253L371.578 43.7515L372.331 47.0553Z" fill="#FF0000"/>
<rect width="9.88969" height="7.79704" transform="matrix(0.984053 -0.177873 0.177711 0.984083 20.4287 92.9023)" fill="#F0CD96" fill-opacity="0.67"/>
<path d="M380.141 69.8021C380.141 69.8021 374.281 65.0319 373.367 60.7405C373.367 60.7405 373.815 48.4987 370.94 41.9276C370.94 41.9276 370.399 35.8354 369.429 33.8813C368.44 31.9273 365.771 31.2184 365.771 31.2184C365.771 31.2184 342.722 30.5096 335.051 28.7279C335.051 28.7279 307.952 12.4055 273.891 4.68493L262.376 2.46263C258.158 1.81127 253.884 1.31317 249.573 1.00665C205.079 -2.03944 177.029 2.17527 160.605 8.97627C144.181 15.7581 109.729 36.6017 101.069 38.9582C101.069 38.9582 36.9602 43.4028 12.7912 58.1542C12.7912 58.1542 4.13145 66.5836 0.697399 81.3351C0.697399 81.3351 -1.13161 92.8106 1.38794 102.064C1.38794 102.064 -0.347748 102.773 0.0628454 103.826C0.473439 104.88 1.052 105.934 1.052 105.934C1.052 105.934 2.65705 107.447 5.84848 108.501L6.42704 112.716C6.42704 112.716 15.5534 117.639 35.0566 116.93C35.0566 116.93 28.8977 84.841 54.6717 72.5609C80.4458 60.2616 109.542 82.5037 105.081 114.248L272.305 113.309C272.305 113.309 268.311 86.7376 286.452 74.3234C304.592 61.9091 322.49 68.94 330.142 75.6069C337.776 82.2738 343.375 94.3432 340.855 109.095L371.762 100.205C371.762 100.205 377.809 96.6996 378.835 95.0521C379.862 93.4045 381 86.7376 381 86.7376L380.16 69.8021H380.141ZM5.3259 103.309L2.65705 95.1095L13.1458 94.4773C13.1458 94.4773 14.9748 95.0329 16.4119 98.3089C17.849 101.585 20.0699 106.585 20.0699 106.585C20.0699 106.585 10.645 106.662 5.3259 103.309ZM28.4311 98.328H23.8586C22.3282 96.6805 21.675 94.4199 21.675 94.4199L29.6629 93.8643C29.3643 96.3548 28.4498 98.3089 28.4498 98.3089L28.4311 98.328ZM22.1229 75.3004L7.2109 77.561C6.91229 71.0091 9.48782 64.687 9.48782 64.687L18.3156 63.595C29.4949 58.6715 43.4178 58.365 43.4178 58.365C30.0362 62.2731 22.1229 75.3004 22.1229 75.3004ZM129.194 31.7357C132.815 29.5325 137.07 27.0229 142.053 24.2258C163.087 12.4055 181.284 5.66198 207.786 4.6083L196.718 43.0388L135.167 46.9661C136.772 45.7975 137.948 44.5905 137.948 44.5905C140.299 39.2838 136.585 32.8851 136.585 32.8851C135.297 32.0422 133.17 31.8698 133.17 31.8698C131.079 32.3296 129.474 33.3258 128.243 34.4944L129.194 31.7357ZM266.967 105.416L115.253 109.401L268.553 102.37L266.948 105.416H266.967ZM282.738 37.5405L217.64 41.6977L220.906 4.51251C227.27 4.66577 234.101 5.10641 241.529 5.79609C261.779 7.71186 278.706 13.4592 291.416 19.3789L282.756 37.5213L282.738 37.5405ZM372.396 62.4647C372.396 62.4647 350.262 47.8665 349.888 45.6059C349.515 43.3453 351.568 43.1154 351.568 43.1154C365.789 40.2226 369.821 42.0234 369.821 42.0234C373.161 48.4221 372.415 62.4647 372.415 62.4647H372.396Z" fill="white"/>
<g clip-path="url(#clip0_289_1606)">
<path d="M409.674 106.425L406.546 119.06L511.947 115.709C514.432 113.245 516.957 110.815 519.518 108.402L409.681 106.407L409.674 106.425Z" fill="#95C11F"/>
<path d="M412.178 89.9439L409.042 102.58L530.246 98.7322C532.785 96.5345 535.362 94.3534 537.963 92.2252L412.178 89.9439Z" fill="#95C11F"/>
<path d="M575.846 58.8548L418.165 56.0004L415.029 68.6362L570.405 63.6921C572.208 62.0562 574.02 60.4558 575.845 58.837L575.846 58.8548Z" fill="#95C11F"/>
<path d="M590.142 92.3482L556.557 91.7425C554.474 93.8533 552.398 95.9459 550.322 98.0564L585.234 96.9527C586.855 95.4124 588.491 93.8716 590.15 92.348L590.142 92.3482Z" fill="#95C11F"/>
<path d="M573.565 108.569L540.617 107.978C538.327 110.31 536.044 112.66 533.746 114.993L568.621 113.891C570.249 112.1 571.892 110.326 573.566 108.587L573.565 108.569Z" fill="#95C11F"/>
<path d="M628.526 43.7098L609.882 43.3708C600.379 43.2253 601.456 44.6568 599.44 45.6734L626.135 45.6698C626.934 45.0164 627.727 44.3632 628.519 43.71L628.526 43.7098Z" fill="#95C11F"/>
<path d="M653.277 44.8992L635.732 44.8813C634.548 45.5476 633.363 46.214 632.172 46.8806L650.673 46.2578C651.539 45.817 652.405 45.3761 653.278 44.9171L653.277 44.8992Z" fill="#95C11F"/>
<path d="M596.45 41.9613L420.895 38.7777L417.766 51.4133L591.356 45.8918C593.044 44.5641 594.739 43.254 596.457 41.9431L596.45 41.9613Z" fill="#95C11F"/>
<path d="M616.281 58.8541L587.621 58.3331C585.198 59.793 582.797 61.2701 580.405 62.7826L612.691 61.7495C613.888 60.7784 615.084 59.8252 616.273 58.8543L616.281 58.8541Z" fill="#95C11F"/>
<path d="M638.202 75.8374L614.142 75.3943C612.963 76.4364 611.792 77.4961 610.628 78.5377L636.407 77.7236C637 77.095 637.593 76.4486 638.201 75.8195L638.202 75.8374Z" fill="#95C11F"/>
<path d="M628.768 92.9275L601.56 92.4293C600.264 93.7259 598.975 95.0224 597.702 96.3361L626.793 95.4105C627.454 94.5828 628.107 93.7553 628.768 92.9275Z" fill="#95C11F"/>
<path d="M618.402 109.387L588.165 108.847C586.832 110.36 585.513 111.872 584.217 113.402L616.311 112.375C617.011 111.385 617.71 110.377 618.41 109.387L618.402 109.387Z" fill="#95C11F"/>
<path d="M412.526 85.117L552.439 80.6755C554.36 78.785 556.289 76.93 558.232 75.0567L415.662 72.4812L412.533 85.1167L412.526 85.117Z" fill="#95C11F"/>
<path d="M558.232 75.0567C556.288 76.9121 554.359 78.785 552.439 80.6755L552.75 80.665C555.284 78.7717 557.851 76.9311 560.439 75.1076L558.24 75.0743L558.232 75.0567Z" fill="#95C11F"/>
<path d="M602.169 75.3141L570.975 74.9321C568.747 76.6898 566.937 78.7734 564.952 80.7198L596.254 79.7197C598.218 78.2395 600.19 76.7769 602.169 75.3141Z" fill="#95C11F"/>
<path d="M621.075 62.5054L645.848 61.7251C645.978 61.6134 646.099 61.484 646.229 61.3722C646.491 61.0412 646.755 60.728 647.011 60.4151L623.992 59.8654C623.014 60.7396 622.045 61.6314 621.075 62.5054Z" fill="#95C11F"/>
<path d="M659.069 76.6565L643.706 76.3861C643.185 76.9764 642.672 77.5665 642.159 78.1566L658.199 77.6524C658.499 77.3201 658.792 77.006 659.077 76.6742L659.069 76.6565Z" fill="#95C11F"/>
<path d="M665.768 76.8606C665.627 77.098 665.479 77.3178 665.339 77.5552L673.717 77.2732L665.768 76.8606Z" fill="#95C11F"/>
<path d="M654.742 93.521L633.965 93.1464C633.384 93.9178 632.817 94.6887 632.244 95.4598L653.63 94.7756C653.97 94.3167 654.341 93.9104 654.735 93.5212L654.742 93.521Z" fill="#95C11F"/>
<path d="M626.752 109.822C626.154 110.737 625.592 111.651 625.068 112.581L649.842 111.801C650.084 111.31 650.311 110.783 650.523 110.257L626.752 109.822Z" fill="#95C11F"/>
<path d="M667.635 61.0812C667.635 61.0812 667.624 61.1889 667.619 61.2428L669.371 61.1838L667.635 61.0812Z" fill="#95C11F"/>
<path d="M651.355 60.5909C651.161 60.9913 650.989 61.3909 650.803 61.7909L662.554 61.4312C662.554 61.4312 662.565 61.3234 662.563 61.2697L651.362 60.5907L651.355 60.5909Z" fill="#95C11F"/>
<path d="M663.941 93.426C663.634 93.7764 663.335 94.1266 663.044 94.4765L675.549 94.0913C675.549 94.0913 675.574 93.9473 675.586 93.8753L663.942 93.4439L663.941 93.426Z" fill="#95C11F"/>
<path d="M680.447 94.2487C680.447 94.2487 680.423 94.3927 680.41 94.4647L683.612 94.3569L680.447 94.2487Z" fill="#95C11F"/>
<path d="M660.235 109.804C659.654 110.128 659.087 110.452 658.513 110.775L675.796 110.229C675.796 110.229 675.812 110.068 675.825 109.996L660.235 109.804Z" fill="#95C11F"/>
<path d="M683.946 109.776C683.946 109.776 683.929 109.938 683.924 110.009L688.59 109.852L683.946 109.776Z" fill="#95C11F"/>
<path d="M659.86 45.1611L657.931 45.047L655.098 44.8739C655.03 45.0731 654.955 45.2546 654.888 45.4538C654.826 45.6169 654.773 45.7798 654.719 45.9427L657.736 45.8412L659.577 45.7792L664.657 45.6082C664.657 45.6082 664.698 45.4994 664.71 45.4274L659.859 45.1432L659.86 45.1611Z" fill="#95C11F"/>
<path d="M667.141 45.4889C667.141 45.4889 667.129 45.5967 667.124 45.6505L668.869 45.5918L667.133 45.4891L667.141 45.4889Z" fill="#95C11F"/>
<path d="M677.018 77.0189C677.018 77.0189 677.007 77.1267 677.001 77.1806L678.754 77.1216L677.018 77.0189Z" fill="#95C11F"/>
</g>
<defs>
<clipPath id="clip0_289_1606">
<rect width="282.201" height="80.6668" fill="white" transform="matrix(-0.999434 0.0336446 -0.033613 -0.999435 688.611 110.478)"/>
</clipPath>
</defs>
</svg>
