<svg width="1181" height="645" viewBox="0 0 1181 645" fill="none" xmlns="http://www.w3.org/2000/svg">
<path d="M1181 0H-0.0029198L-0.00292969 645H1181V0Z" fill="white"/>
<g opacity="0.9">
<path d="M308.03 118.765C311.945 126.193 361.594 127.079 368.005 128.868C396.823 134.832 501.363 118.332 501.565 121.711C500.485 126.464 524.534 149.037 534.972 150.104C560.573 152.977 585.814 149.092 606.96 141.591C617.421 138.32 618.95 135.989 623.63 136.748C625.542 136.856 630.828 128.163 644.529 123.627C653.954 120.772 666.327 121.946 674.876 118.567C691.546 113.705 744.817 108.916 763.331 106.151C798.583 100.891 816.31 99.9516 843.845 102.952C864.542 106.042 881.616 103.62 902.763 104.795C924.966 105.554 940.781 104.506 962.985 105.283C983.906 107.416 1003.12 108.5 1025.55 108.301C1028.54 107.976 1031.53 107.669 1033.67 106.819C1035.83 105.988 1041.59 106.313 1044.56 105.988C1062.71 107.488 1079.13 112.259 1096.86 111.338C1101.76 111.121 1109.03 109.115 1107.55 107.108C1100.12 97.0419 1086.26 89.5236 1070.27 82.8366C1055.13 76.6738 1035.69 76.5654 1015.63 74.9569C987.866 72.9327 968.272 60.7336 954.436 48.8597C944.853 39.6425 937.452 25.2385 913.943 25.853C886.408 27.1904 861.392 34.4918 833.227 30.0097C813.588 26.5036 797.795 23.1963 777.729 21.6059C774.962 20.9733 763.646 19.3648 759.799 19.1479C737.168 20.2865 710.713 16.8888 695.078 25.6542C670.084 28.6 657.284 24.9855 637.397 31.1122C612.179 39.3534 586.713 48.5344 557.041 50.7212C540.169 52.1851 524.556 52.2755 508.337 50.8839C502.578 50.5766 482.128 42.1728 475.942 39.4257C464.424 34.4376 447.102 37.8172 435.561 41.5041C417.384 48.679 398.78 53.4321 376.576 57.0105C368.68 57.5347 361.436 55.1852 352.663 55.1852C331.944 56.4503 316.984 62.342 298.829 65.1975C231.093 70.1314 240.272 74.4508 237.482 73.8183C230.666 73.9267 227.899 68.9386 219.373 67.9808C207.832 67.3301 196.517 70.0772 189.025 73.0231C166.799 80.939 139.646 89.0718 111.458 84.5897C113.168 85.656 113.798 87.138 115.71 87.2464C155.191 93.3189 186.753 104.253 228.821 103.223C232.871 102.482 238.022 101.325 242.926 101.126C251.677 101.126 259.596 100.602 267.492 100.078C281.17 99.8793 304.611 112.277 307.985 118.747L308.03 118.765Z" fill="#E8F0D0"/>
<path d="M1119.88 115.458C1119.88 115.458 1158 107.997 1126.34 118.674C1126.34 118.674 1225.59 158.994 1118.67 149.96C1118.67 149.96 1097.78 154.143 1073.83 139.485C1073.83 139.485 1004.1 115.357 972.471 114.78C972.471 114.78 947.702 102.346 929.623 104.633C929.623 104.633 1099.48 101.981 1119.88 115.458Z" fill="#C2D87F" fill-opacity="0.84"/>
<path opacity="0.9" d="M1015.1 75.1738C1035.16 76.7823 1054.6 76.9088 1069.74 83.0536C1085.74 89.7405 1099.57 97.2588 1107.02 107.325C1108.52 109.331 1101.24 111.338 1096.33 111.554C1078.6 112.494 1062.18 107.705 1044.05 106.223C1041.06 106.53 1035.3 106.223 1033.16 107.054C1031.02 107.904 1028.03 108.211 1025.04 108.536C1002.61 108.717 983.4 107.651 962.479 105.518C940.275 104.759 924.46 105.807 902.256 105.03C881.11 103.837 864.035 106.259 843.316 103.169C815.781 100.187 798.054 101.108 762.802 106.368C744.288 109.133 691.039 113.922 674.347 118.784C665.799 122.163 653.403 120.988 644 123.826C644 123.826 637.138 120.139 621.999 113.976L788.425 77.1799L1015.1 75.1738Z" fill="#C2D87F"/>
<path opacity="0.9" d="M414.838 199.2C426.225 193.805 437.663 190.137 444.846 180.699C452.38 170.517 458.401 159.822 459.923 147.514C460.24 145.057 455.365 144.198 452.408 144.852C441.675 147.05 433.347 155.245 423.066 160.151C421.212 160.36 417.9 161.741 416.401 161.224C414.897 160.688 413.043 160.897 411.184 161.086C397.892 164.964 386.855 169.614 375.113 175.735C362.222 180.594 352.587 182.326 339.701 187.205C327.558 192.344 316.787 192.81 305.438 199.937C290.034 208.184 279.306 210.401 256.994 211.081C245.275 211.435 212.474 215.895 201.232 213.636C195.22 211.511 188.238 215.041 181.877 213.661C181.877 213.661 178.879 218.92 171.701 228.377L280.453 238.191L414.838 199.2Z" fill="#C2D87F"/>
<path d="M643.18 115.169C643.18 115.169 568.492 132.862 575.849 113.506C575.849 113.506 635.396 65.7212 677.464 64.7091C677.464 64.7091 707.789 64.0043 723.604 62.9561C723.604 62.9561 751.971 70.8178 784.231 65.8658C784.231 65.8658 913.472 53.8112 922.628 60.5885C922.628 60.5885 975.359 64.0224 988.789 69.1189C988.789 69.1189 1009.04 82.8 1032.72 81.2277C1032.72 81.2277 1104.42 95.3787 1067.91 97.6559C1067.91 97.6559 1046.76 100.819 1035.85 101.65C1035.85 101.65 881.482 95.9029 872.731 91.5473C872.731 91.5473 703.965 74.6853 643.157 115.169H643.18Z" fill="#CFE09B"/>
<path d="M640.659 120.5C640.659 120.5 592.247 142.224 565.612 126.754C565.612 126.754 487.46 108.572 510.564 96.8431C510.564 96.8431 600.841 50.7935 682.21 48.1007C682.21 48.1007 690.961 48.1007 707.226 40.8354C707.226 40.8354 750.823 33.1544 769.99 42.8957C769.99 42.8957 824.408 56.0708 848.322 53.5587C848.322 53.5587 867.939 61.4023 881.414 57.8239C881.414 57.8239 748.304 73.999 731.904 64.8903C731.904 64.8903 672.154 53.8298 610.739 88.4754C610.739 88.4754 592.427 114.446 640.659 120.519V120.5Z" fill="#DCE8B7"/>
<path d="M236.231 190.664C236.231 190.664 179.061 213.79 149.242 193.256C149.242 193.256 60.1254 166.009 87.4894 153.321C87.4894 153.321 194.427 103.479 288.5 105.625C288.5 105.625 298.6 106.207 317.805 98.4776C317.805 98.4776 368.581 92.0621 390.122 105.151C390.122 105.151 452.144 124.748 479.894 123.292C479.894 123.292 502.067 134.109 517.833 130.666C517.833 130.666 363.239 141.429 344.854 129.292C344.854 129.292 276.552 111.904 203.606 149.836C203.606 149.836 180.924 180.114 236.229 190.686L236.231 190.664Z" fill="#DCE8B7" fill-opacity="0.5"/>
<path d="M599.919 146.995C591.37 150.375 582.574 154.712 573.171 157.549C568.064 158.706 560.348 158.272 554.364 158.905C546.468 159.429 538.144 157.513 532.587 156.23C507.212 148.061 466.786 147.899 444.83 137.507C441.208 136.332 438.441 135.699 434.594 135.482C433.514 135.898 429.465 136.639 428.408 137.055C416.664 137.362 405.124 136.711 394.236 137.543C376.284 139.44 358.804 135.085 342.382 130.296C333.204 127.856 321.888 126.247 311.652 124.223C293.948 120.825 292.71 109.168 275.636 107.253C248.303 103.313 224.164 111.12 196.629 108.138C180.612 105.789 166.327 104.506 151.592 100.783C140.726 97.2765 128.556 95.162 116.61 92.0715C113.843 91.4209 107.004 87.1919 107.252 86.234C108.534 84.8605 115.148 85.7099 119.197 84.9689C130.31 83.1797 135.844 88.8003 143.088 91.1317C152.267 93.5716 164.235 92.3245 175.753 92.9571C180.454 93.6981 184.076 94.8728 188.553 96.5717C194.739 99.3187 203.918 97.4211 212.894 96.4813C224.007 94.6921 235.75 98.7223 247.471 98.4151C263.06 98.3247 276.108 92.3065 289.134 94.9632C278.043 92.4149 336.983 94.2764 325.015 95.5234C326.072 95.0897 329.492 97.2223 330.122 98.7043C329.897 99.644 330.527 101.126 329.469 101.56C320.898 104.939 321.528 110.759 318.514 115.404C319.368 115.946 350.323 116.705 362.066 120.735C371.02 124.133 378.893 127.946 390.434 128.597C393.403 128.289 394.911 125.958 397.925 125.633C404.764 125.542 486.47 106.783 495.851 108.283C501.408 109.548 508.449 112.837 506.942 115.169C505.412 121.837 515.445 124.801 519.067 130.314C519.697 131.796 517.335 133.585 517.965 135.067C520.934 139.079 526.693 143.76 533.307 144.609C544.398 147.158 557.873 147.917 567.906 146.561L599.941 146.905L599.919 146.995Z" fill="#F1F6E4"/>
<path d="M893.55 27.8587C893.55 27.8587 852.517 37.1301 811.777 25.9249C811.777 25.9249 777.515 20.3947 770.046 21.1718L758.866 19.0934C758.866 19.0934 705.325 17.6837 695.629 25.437C695.629 25.437 669.668 28.3286 665.619 26.9009C665.619 26.9009 644.9 25.9792 619.457 37.3289" stroke="#D9E6B1"/>
<path d="M377.701 141.79C368.883 140.651 327.062 133.494 315.679 129.301C297.637 123.139 280.855 117.066 262.948 110.271C261.103 109.837 258.539 109.692 257.099 110.271C245.828 114.138 232.173 111.445 221.353 113.415C216.651 114.12 212.377 115.801 207.247 115.53C180.342 114.03 155.596 108.771 132.583 101.704C122.909 98.5957 114.811 94.2763 105.272 90.5352C103.562 89.4689 100.593 88.3484 100.885 87.0833C100.458 86.0893 104.867 86.6676 107.229 86.3062C109.996 86.9387 112.268 88.3665 115.958 89.1978C122.662 91.1858 131.053 91.3304 137.014 93.5895C143.696 95.5775 148.96 98.1077 156.339 99.8066C161.333 100.728 165.742 101.307 170.849 101.596C189.206 103.584 207.135 104.596 225.379 104.325C232.646 100.873 243.736 103.421 252.15 103.566C254.714 103.71 257.144 104.487 260.249 104.993C267.942 105.427 276.063 103.945 281.305 106.494C291.676 112.223 302.204 117.301 314.847 121.566C325.083 125.036 368.478 133.892 379.838 135.175C394.933 137.29 409.736 134.922 424.403 136.061C425.686 136.133 413.988 144.934 377.701 141.808V141.79Z" fill="#FBFCF6"/>
</g>
<g opacity="0.9">
<g opacity="0.9">
<path d="M115.657 243.25C118.581 251.378 142.911 248.895 146.282 250.469C161.149 255.193 209.871 229.19 210.431 232.999C210.554 238.452 225.364 262.299 230.6 262.773C243.476 264.227 255.253 258.059 264.54 248.091C269.194 243.656 269.621 240.911 272.007 241.442C272.954 241.43 274.344 231.225 280.405 225.132C284.611 221.24 290.805 221.701 294.511 217.278C301.976 210.608 327.297 201.451 335.948 197.024C352.419 188.6 360.934 186.293 374.771 187.754C385.285 189.798 393.28 185.86 403.752 185.704C414.683 185.005 422.251 182.709 433.185 182.03C443.678 182.974 453.194 182.852 464.103 181.053C465.518 180.475 466.935 179.917 467.861 178.806C468.8 177.714 471.653 177.678 473.057 177.102C482.114 177.524 490.774 181.769 499.292 179.482C501.654 178.893 504.923 176.113 503.925 173.948C498.929 163.082 491.145 155.549 482.432 149.108C474.208 143.199 464.715 144.44 454.71 144.029C440.897 143.688 429.676 131.263 421.308 118.802C415.375 109.048 409.798 93.2729 398.419 95.6179C385.175 99.0634 373.974 109.079 359.628 105.985C349.573 103.398 341.42 100.765 331.418 100.374C329.982 99.8525 324.245 98.8272 322.339 98.8518C311.459 101.728 298.095 99.7415 291.669 110.754C279.884 115.841 273.148 112.651 264.288 120.977C253.117 132.07 241.954 144.243 227.784 148.799C219.756 151.639 212.156 152.837 204.057 152.402C201.206 152.458 190.087 144.387 186.695 141.713C180.397 136.879 172.412 141.918 167.288 146.899C159.405 156.291 150.983 162.974 140.645 168.58C136.866 169.727 133.013 167.578 128.734 168.194C118.804 171.079 112.314 178.794 103.852 183.298C71.4966 193.634 76.5623 197.876 75.1156 197.356C71.8067 197.957 69.7759 192.509 65.4876 192.023C59.7713 192.097 54.6289 195.999 51.3784 199.857C41.6219 210.372 29.4927 221.478 15.1354 218.386C16.1148 219.472 16.6244 221.105 17.5716 221.093C37.6529 225.191 54.5371 235.345 74.9096 231.227C76.7829 230.105 79.1369 228.435 81.5011 227.866C85.7683 227.251 89.558 226.103 93.3367 224.956C99.9791 223.771 113.103 236.15 115.633 243.233L115.657 243.25Z" fill="#E8F0D0"/>
<path opacity="0.9" d="M454.497 144.319C464.501 144.731 473.996 143.51 482.218 149.398C490.931 155.84 498.705 163.373 503.711 174.238C504.72 176.401 501.44 179.182 499.078 179.772C490.562 182.079 481.9 177.814 472.856 177.41C471.439 177.968 468.589 178.024 467.661 179.115C466.735 180.225 465.318 180.783 463.903 181.361C452.991 183.14 443.478 183.282 432.984 182.338C422.054 183.037 414.485 185.333 403.552 186.012C393.078 186.147 385.083 190.085 374.558 188.043C360.724 186.603 352.205 188.889 335.735 197.313C327.084 201.74 301.774 210.895 294.299 217.566C290.592 221.989 284.387 221.53 280.189 225.399C280.189 225.399 276.34 221.71 268.116 215.802L344.241 162.497L454.497 144.319Z" fill="#C2D87F"/>
<path d="M278.589 215.665C278.589 215.665 244.587 240.922 245.53 218.51C245.53 218.51 268.038 160.276 288.413 156.178C288.413 156.178 303.104 153.252 310.672 150.957C310.672 150.957 325.579 157.859 340.633 149.993C340.633 149.993 402.006 127.286 407.397 134.31C407.397 134.31 433.579 134.493 440.824 139.316C440.824 139.316 452.566 153.371 463.902 149.93C463.902 149.93 500.795 160.906 483.303 166.045C483.303 166.045 473.423 171.107 468.217 172.813C468.217 172.813 392.158 177.146 387.296 172.833C387.296 172.833 302.698 165.603 278.578 215.667L278.589 215.665Z" fill="#CFE09B"/>
<path d="M278.089 221.872C278.089 221.872 257.45 249.846 242.348 234.214C242.348 234.214 201.755 219.131 211.419 204.24C211.419 204.24 249.149 145.807 288.459 137.049C288.459 137.049 292.726 136.435 299.665 127.074C299.665 127.074 319.875 115.325 330.552 125C330.552 125 358.888 136.085 370.205 131.564C370.205 131.564 380.843 139.061 386.925 134.067C386.925 134.067 324.226 161.709 314.985 152.555C314.985 152.555 284.338 144.236 259.124 187.742C259.124 187.742 253.743 218.408 278.091 221.892L278.089 221.872Z" fill="#DCE8B7"/>
<path d="M261.849 254.699C258.142 259.122 254.446 264.646 250.248 268.516C247.916 270.183 244.094 270.234 241.263 271.369C237.484 272.516 233.163 270.933 230.279 269.872C216.789 262.412 197.054 265.065 184.928 254.85C183.001 253.776 181.566 253.254 179.66 253.279C179.191 253.825 177.317 254.947 176.858 255.492C171.174 256.664 165.458 256.738 160.262 258.442C151.768 261.849 142.649 258.149 133.987 253.883C129.178 251.768 123.441 250.742 118.173 249.171C109.076 246.57 106.88 233.47 98.292 232.501C84.4256 229.962 73.7218 240.489 59.8876 239.048C51.7562 237.514 44.6152 237.066 36.9214 233.888C31.1441 230.684 24.9206 229.147 18.6735 226.489C17.2354 225.947 13.3228 221.643 13.3126 220.542C13.7503 218.898 17.0914 219.395 18.9647 218.273C24.1392 215.469 27.6057 221.438 31.4564 223.567C36.2654 225.683 41.9308 223.433 47.6337 223.34C50.0276 223.848 51.9542 224.923 54.3693 226.53C57.7612 229.204 61.9776 226.413 66.2261 224.72C71.4006 221.916 77.6774 225.651 83.3506 224.48C90.9402 223.284 96.4804 215.56 103.195 217.651C97.4386 215.547 126.433 213.516 120.768 215.767C121.224 215.202 123.183 217.374 123.693 219.006C123.711 220.085 124.221 221.718 123.765 222.282C120.047 226.707 121.149 233.246 120.314 238.712C120.805 239.266 136.003 237.952 142.279 241.687C147.109 244.902 151.47 248.663 157.186 248.589C158.592 248.033 159.009 245.29 160.434 244.71C163.757 244.128 201.035 217.172 205.815 218.21C208.697 219.251 212.58 222.478 212.163 225.221C212.329 232.873 217.626 235.521 220.145 241.503C220.655 243.135 219.747 245.325 220.257 246.957C222.253 251.288 225.701 256.179 229.042 256.675C234.798 258.78 241.473 258.692 246.18 256.455L261.848 254.595L261.849 254.699Z" fill="#F1F6E4"/>
<path d="M388.759 99.3102C388.759 99.3102 370.017 112.677 348.62 102.862C348.62 102.862 331.158 99.0107 327.623 100.414L321.887 98.8477C321.887 98.8477 295.587 101.011 291.918 110.461C291.918 110.461 279.654 115.554 277.485 114.223C277.485 114.223 267.256 114.635 256.4 129.258" stroke="#D9E6B1"/>
<path d="M152.781 264.404C148.325 263.735 126.955 258.574 120.831 254.63C111.192 248.924 102.179 243.233 92.5183 236.802C91.5596 236.441 90.2893 236.457 89.6662 237.213C84.6988 242.379 77.6723 240.291 72.665 243.279C70.4687 244.406 68.614 246.608 66.0759 246.661C52.7512 246.853 39.9661 242.64 27.7787 236.261C22.637 233.424 18.0978 229.106 12.9356 225.543C11.9562 224.457 10.3551 223.398 10.3249 221.946C9.98065 220.851 12.2097 221.196 13.3122 220.622C14.7478 221.143 16.0508 222.599 17.9635 223.28C21.504 225.059 25.6155 224.633 28.8311 226.77C32.3607 228.55 35.2732 231.043 39.1034 232.447C41.6646 233.139 43.8937 233.484 46.4233 233.453C55.6461 234.413 64.5273 234.3 73.3866 232.713C76.4582 228.298 82.2144 230.402 86.3368 229.975C87.6071 229.958 88.898 230.667 90.481 231.022C94.2919 230.972 98.0495 228.726 100.954 231.241C106.793 236.994 112.621 242 119.369 245.938C124.834 249.145 147.204 256.117 152.919 256.771C160.569 258.104 167.463 254.386 174.771 254.645C175.406 254.637 170.905 265.415 152.783 264.425L152.781 264.404Z" fill="#FBFCF6"/>
</g>
<path d="M912.489 107.415L1017.14 135.046H915.864L877.042 107.415H912.489Z" fill="#CBBBA0" fill-opacity="0.65"/>
<path d="M1027.27 140.573L1181 189V287.942H1094.79L922.616 140.573H1027.27Z" fill="#CBBBA0" fill-opacity="0.83"/>
<path d="M875.353 107.415L912.488 135.046H794.333L841.595 107.415H875.353Z" fill="#CBBBA0" fill-opacity="0.65"/>
<path d="M917.552 140.573L1055.96 287.942H568.149L789.269 140.573H917.552Z" fill="#CBBBA0" fill-opacity="0.83"/>
<path d="M839.296 107.415L790.957 135.046H674.489L790.957 107.415H839.296Z" fill="#CBBBA0" fill-opacity="0.65"/>
<path d="M784.205 140.573L529.327 287.942H196.804L657.61 140.573H784.205Z" fill="#CBBBA0" fill-opacity="0.83"/>
</g>
<path d="M0 296.895L32.2829 296.895H76.5955H115.078H167.553H209.534H238.687H317.983H351.215L1181 296.895V363.871H0V296.895Z" fill="#95C11F" fill-opacity="0.3"/>
<path d="M1181 363.871H0V540H1181V363.871Z" fill="#666666"/>
<path d="M1181 365.87V369.368H0V365.87H1181Z" fill="white"/>
<path d="M1181 524V534.81H0V524H1181Z" fill="white"/>
<rect width="1181" height="105" transform="translate(0 540)" fill="#95C11F" fill-opacity="0.6"/>
</svg>
