<svg width="1181" height="645" viewBox="0 0 1181 645" fill="none" xmlns="http://www.w3.org/2000/svg">
<path d="M1181 0H9.89021e-06L0 645H1181V0Z" fill="white"/>
<g opacity="0.9">
<path d="M308.033 118.765C311.948 126.193 361.597 127.079 368.008 128.868C396.826 134.832 501.366 118.331 501.568 121.711C500.488 126.464 524.537 149.037 534.975 150.104C560.576 152.977 585.816 149.091 606.963 141.591C617.424 138.32 618.953 135.989 623.633 136.748C625.545 136.856 630.831 128.163 644.531 123.627C653.957 120.771 666.33 121.946 674.879 118.566C691.549 113.705 744.82 108.916 763.334 106.15C798.586 100.891 816.313 99.9514 843.848 102.951C864.544 106.042 881.619 103.62 902.766 104.795C924.969 105.554 940.784 104.506 962.988 105.283C983.909 107.415 1003.12 108.5 1025.55 108.301C1028.54 107.976 1031.53 107.668 1033.67 106.819C1035.83 105.988 1041.59 106.313 1044.56 105.988C1062.71 107.488 1079.14 112.259 1096.86 111.337C1101.77 111.12 1109.03 109.114 1107.55 107.108C1100.12 97.0416 1086.27 89.5233 1070.27 82.8364C1055.13 76.6736 1035.7 76.5651 1015.63 74.9566C987.869 72.9325 968.274 60.7333 954.439 48.8595C944.856 39.6423 937.455 25.2383 913.946 25.8527C886.411 27.1901 861.395 34.4916 833.23 30.0095C813.591 26.5034 797.798 23.196 777.732 21.6056C774.965 20.9731 763.649 19.3646 759.802 19.1477C737.171 20.2863 710.715 16.8886 695.081 25.6539C670.087 28.5998 657.287 24.9852 637.4 31.1119C612.182 39.3531 586.716 48.5342 557.044 50.721C540.172 52.1849 524.559 52.2752 508.34 50.8836C502.58 50.5764 482.131 42.1725 475.945 39.4254C464.427 34.4373 447.105 37.8169 435.564 41.5038C417.387 48.6787 398.783 53.4319 376.579 57.0103C368.683 57.5344 361.439 55.1849 352.666 55.1849C331.947 56.45 316.987 62.3418 298.832 65.1973C231.096 70.1312 240.275 74.4506 237.485 73.8181C230.669 73.9265 227.902 68.9384 219.376 67.9805C207.835 67.3299 196.52 70.077 189.028 73.0228C166.802 80.9387 139.649 89.0715 111.461 84.5895C113.171 85.6558 113.801 87.1377 115.713 87.2462C155.194 93.3186 186.756 104.253 228.824 103.223C232.873 102.482 238.025 101.325 242.929 101.126C251.68 101.126 259.599 100.602 267.495 100.078C281.173 99.8791 304.614 112.277 307.988 118.747L308.033 118.765Z" fill="#E8F0D0"/>
<path d="M1119.88 115.458C1119.88 115.458 1158 107.997 1126.34 118.674C1126.34 118.674 1225.59 158.994 1118.67 149.96C1118.67 149.96 1097.79 154.143 1073.83 139.485C1073.83 139.485 1004.1 115.357 972.474 114.78C972.474 114.78 947.705 102.346 929.626 104.633C929.626 104.633 1099.48 101.981 1119.88 115.458Z" fill="#C2D87F" fill-opacity="0.84"/>
<path opacity="0.9" d="M1015.1 75.1736C1035.17 76.7821 1054.6 76.9086 1069.74 83.0533C1085.74 89.7403 1099.57 97.2586 1107.02 107.325C1108.53 109.331 1101.24 111.337 1096.33 111.554C1078.61 112.494 1062.18 107.705 1044.05 106.223C1041.06 106.53 1035.3 106.223 1033.16 107.054C1031.03 107.903 1028.04 108.211 1025.04 108.536C1002.61 108.717 983.403 107.65 962.482 105.518C940.278 104.759 924.463 105.807 902.259 105.03C881.113 103.837 864.038 106.259 843.319 103.168C815.784 100.186 798.057 101.108 762.805 106.367C744.291 109.132 691.042 113.922 674.35 118.783C665.802 122.163 653.406 120.988 644.003 123.826C644.003 123.826 637.141 120.139 622.001 113.976L788.428 77.1797L1015.1 75.1736Z" fill="#C2D87F"/>
<path opacity="0.9" d="M414.841 199.2C426.228 193.805 437.666 190.136 444.849 180.699C452.383 170.516 458.404 159.821 459.926 147.513C460.243 145.056 455.368 144.197 452.411 144.852C441.678 147.049 433.35 155.244 423.069 160.151C421.215 160.36 417.903 161.74 416.404 161.224C414.9 160.688 413.046 160.897 411.187 161.086C397.895 164.964 386.858 169.614 375.116 175.735C362.225 180.594 352.59 182.326 339.704 187.205C327.561 192.344 316.79 192.81 305.441 199.937C290.037 208.184 279.309 210.401 256.997 211.081C245.278 211.434 212.476 215.894 201.235 213.636C195.223 211.511 188.241 215.041 181.88 213.661C181.88 213.661 178.882 218.919 171.704 228.376L280.455 238.191L414.841 199.2Z" fill="#C2D87F"/>
<path d="M643.183 115.168C643.183 115.168 568.495 132.862 575.852 113.506C575.852 113.506 635.399 65.721 677.467 64.7089C677.467 64.7089 707.792 64.004 723.607 62.9558C723.607 62.9558 751.974 70.8175 784.234 65.8655C784.234 65.8655 913.475 53.811 922.631 60.5883C922.631 60.5883 975.362 64.0221 988.792 69.1187C988.792 69.1187 1009.04 82.7998 1032.73 81.2275C1032.73 81.2275 1104.42 95.3785 1067.91 97.6557C1067.91 97.6557 1046.76 100.818 1035.85 101.65C1035.85 101.65 881.485 95.9026 872.734 91.5471C872.734 91.5471 703.967 74.6851 643.16 115.168H643.183Z" fill="#CFE09B"/>
<path d="M640.662 120.5C640.662 120.5 592.25 142.224 565.615 126.753C565.615 126.753 487.463 108.572 510.567 96.8429C510.567 96.8429 600.844 50.7933 682.213 48.1004C682.213 48.1004 690.964 48.1004 707.229 40.8351C707.229 40.8351 750.826 33.1542 769.993 42.8954C769.993 42.8954 824.411 56.0705 848.325 53.5584C848.325 53.5584 867.941 61.402 881.417 57.8236C881.417 57.8236 748.307 73.9988 731.907 64.8901C731.907 64.8901 672.157 53.8295 610.742 88.4752C610.742 88.4752 592.43 114.446 640.662 120.518V120.5Z" fill="#DCE8B7"/>
<path d="M236.233 190.664C236.233 190.664 179.064 213.79 149.245 193.256C149.245 193.256 60.1283 166.009 87.4923 153.321C87.4923 153.321 194.43 103.479 288.503 105.625C288.503 105.625 298.603 106.207 317.808 98.4776C317.808 98.4776 368.584 92.0622 390.125 105.151C390.125 105.151 452.147 124.748 479.897 123.292C479.897 123.292 502.07 134.109 517.836 130.666C517.836 130.666 363.242 141.429 344.857 129.292C344.857 129.292 276.555 111.904 203.609 149.836C203.609 149.836 180.927 180.114 236.232 190.686L236.233 190.664Z" fill="#DCE8B7" fill-opacity="0.5"/>
<path d="M599.922 146.995C591.373 150.375 582.577 154.712 573.174 157.549C568.067 158.706 560.351 158.272 554.367 158.905C546.471 159.429 538.147 157.513 532.59 156.23C507.215 148.061 466.789 147.899 444.833 137.507C441.211 136.332 438.444 135.699 434.597 135.482C433.517 135.898 429.468 136.639 428.41 137.055C416.667 137.362 405.127 136.711 394.239 137.543C376.287 139.44 358.807 135.085 342.385 130.296C333.206 127.856 321.891 126.247 311.655 124.223C293.951 120.825 292.713 109.168 275.639 107.253C248.306 103.313 224.167 111.12 196.632 108.138C180.615 105.789 166.33 104.506 151.595 100.783C140.729 97.2765 128.558 95.162 116.613 92.0715C113.846 91.4209 107.007 87.1919 107.255 86.234C108.537 84.8605 115.151 85.7099 119.2 84.9689C130.313 83.1797 135.847 88.8003 143.091 91.1317C152.269 93.5716 164.237 92.3245 175.756 92.9571C180.457 93.6981 184.079 94.8728 188.556 96.5717C194.742 99.3187 203.921 97.4211 212.897 96.4813C224.01 94.6921 235.753 98.7223 247.473 98.4151C263.063 98.3247 276.111 92.3065 289.136 94.9632C278.046 92.4149 336.986 94.2764 325.018 95.5234C326.075 95.0897 329.495 97.2223 330.125 98.7043C329.9 99.644 330.529 101.126 329.472 101.56C320.901 104.939 321.531 110.759 318.516 115.404C319.371 115.946 350.326 116.705 362.069 120.735C371.023 124.133 378.896 127.946 390.437 128.597C393.406 128.289 394.914 125.958 397.928 125.633C404.767 125.542 486.473 106.783 495.854 108.283C501.411 109.548 508.452 112.837 506.945 115.169C505.415 121.837 515.448 124.801 519.07 130.314C519.7 131.796 517.338 133.585 517.968 135.067C520.937 139.079 526.696 143.76 533.31 144.609C544.401 147.158 557.876 147.917 567.909 146.561L599.944 146.905L599.922 146.995Z" fill="#F1F6E4"/>
<path d="M893.553 27.8587C893.553 27.8587 852.52 37.1301 811.78 25.9249C811.78 25.9249 777.518 20.3947 770.049 21.1718L758.869 19.0934C758.869 19.0934 705.328 17.6837 695.632 25.437C695.632 25.437 669.671 28.3286 665.622 26.9009C665.622 26.9009 644.903 25.9792 619.459 37.3289" stroke="#D9E6B1"/>
<path d="M377.704 141.79C368.886 140.651 327.065 133.494 315.682 129.301C297.64 123.139 280.858 117.066 262.951 110.271C261.106 109.837 258.542 109.692 257.102 110.271C245.831 114.138 232.176 111.445 221.356 113.415C216.654 114.12 212.38 115.801 207.25 115.53C180.345 114.03 155.599 108.771 132.585 101.704C122.912 98.5957 114.813 94.2763 105.275 90.5352C103.565 89.4689 100.596 88.3484 100.888 87.0833C100.461 86.0893 104.87 86.6676 107.232 86.3062C109.999 86.9387 112.271 88.3665 115.961 89.1978C122.665 91.1858 131.056 91.3304 137.017 93.5895C143.699 95.5775 148.963 98.1077 156.341 99.8066C161.336 100.728 165.745 101.307 170.852 101.596C189.208 103.584 207.138 104.596 225.382 104.325C232.649 100.873 243.739 103.421 252.153 103.566C254.717 103.71 257.147 104.487 260.251 104.993C267.945 105.427 276.066 103.945 281.308 106.494C291.679 112.223 302.207 117.301 314.85 121.566C325.086 125.036 368.481 133.892 379.841 135.175C394.936 137.29 409.739 134.922 424.406 136.061C425.689 136.133 413.991 144.934 377.704 141.808V141.79Z" fill="#FBFCF6"/>
</g>
<g opacity="0.9">
<g opacity="0.9">
<path d="M115.66 243.25C118.583 251.378 142.914 248.895 146.285 250.469C161.152 255.193 209.874 229.19 210.434 232.999C210.557 238.452 225.367 262.299 230.603 262.773C243.479 264.227 255.256 258.059 264.543 248.091C269.197 243.656 269.624 240.911 272.009 241.442C272.957 241.43 274.347 231.225 280.408 225.132C284.614 221.24 290.808 221.701 294.514 217.278C301.979 210.608 327.3 201.451 335.951 197.024C352.422 188.6 360.937 186.293 374.774 187.754C385.288 189.798 393.283 185.86 403.755 185.704C414.686 185.005 422.254 182.709 433.187 182.03C443.681 182.974 453.197 182.852 464.106 181.053C465.521 180.475 466.938 179.917 467.864 178.806C468.803 177.714 471.656 177.678 473.06 177.102C482.117 177.524 490.777 181.769 499.295 179.482C501.657 178.893 504.926 176.113 503.928 173.948C498.932 163.082 491.148 155.549 482.435 149.108C474.21 143.199 464.718 144.44 454.713 144.029C440.9 143.688 429.679 131.263 421.311 118.802C415.378 109.048 409.801 93.2729 398.422 95.6179C385.178 99.0634 373.977 109.079 359.631 105.985C349.575 103.398 341.423 100.765 331.421 100.374C329.985 99.8525 324.248 98.8272 322.342 98.8518C311.462 101.728 298.098 99.7415 291.671 110.754C279.887 115.841 273.151 112.651 264.291 120.977C253.12 132.07 241.957 144.243 227.786 148.799C219.759 151.639 212.159 152.837 204.059 152.402C201.209 152.458 190.09 144.387 186.698 141.713C180.4 136.879 172.415 141.918 167.291 146.899C159.408 156.291 150.986 162.974 140.647 168.58C136.869 169.727 133.016 167.578 128.737 168.194C118.807 171.079 112.317 178.794 103.855 183.298C71.4995 193.634 76.5652 197.876 75.1186 197.356C71.8096 197.957 69.7789 192.509 65.4905 192.023C59.7742 192.097 54.6318 195.999 51.3814 199.857C41.6249 210.372 29.4956 221.478 15.1383 218.386C16.1177 219.472 16.6273 221.105 17.5746 221.093C37.6559 225.191 54.54 235.345 74.9125 231.227C76.7858 230.105 79.1398 228.435 81.504 227.866C85.7712 227.251 89.5609 226.103 93.3396 224.956C99.982 223.771 113.106 236.15 115.636 243.233L115.66 243.25Z" fill="#E8F0D0"/>
<path opacity="0.9" d="M454.5 144.319C464.504 144.731 473.999 143.51 482.221 149.398C490.934 155.84 498.708 163.373 503.714 174.238C504.723 176.401 501.443 179.182 499.081 179.772C490.565 182.079 481.903 177.814 472.859 177.41C471.442 177.968 468.592 178.024 467.664 179.115C466.738 180.225 465.321 180.783 463.906 181.361C452.994 183.14 443.48 183.282 432.987 182.338C422.057 183.037 414.488 185.333 403.555 186.012C393.081 186.147 385.086 190.085 374.561 188.043C360.726 186.603 352.208 188.889 335.738 197.313C327.087 201.74 301.777 210.895 294.301 217.566C290.595 221.989 284.39 221.53 280.192 225.399C280.192 225.399 276.343 221.71 268.119 215.802L344.244 162.497L454.5 144.319Z" fill="#C2D87F"/>
<path d="M278.592 215.665C278.592 215.665 244.59 240.922 245.533 218.51C245.533 218.51 268.041 160.276 288.416 156.178C288.416 156.178 303.106 153.252 310.675 150.957C310.675 150.957 325.582 157.859 340.636 149.993C340.636 149.993 402.009 127.286 407.4 134.31C407.4 134.31 433.582 134.493 440.827 139.316C440.827 139.316 452.568 153.371 463.905 149.93C463.905 149.93 500.798 160.906 483.305 166.045C483.305 166.045 473.426 171.107 468.219 172.813C468.219 172.813 392.161 177.146 387.299 172.833C387.299 172.833 302.701 165.603 278.581 215.667L278.592 215.665Z" fill="#CFE09B"/>
<path d="M278.092 221.872C278.092 221.872 257.453 249.846 242.351 234.214C242.351 234.214 201.758 219.131 211.422 204.24C211.422 204.24 249.152 145.807 288.462 137.049C288.462 137.049 292.729 136.435 299.668 127.074C299.668 127.074 319.878 115.325 330.555 125C330.555 125 358.891 136.085 370.208 131.564C370.208 131.564 380.846 139.061 386.928 134.067C386.928 134.067 324.229 161.709 314.988 152.555C314.988 152.555 284.341 144.236 259.127 187.742C259.127 187.742 253.746 218.408 278.094 221.892L278.092 221.872Z" fill="#DCE8B7"/>
<path d="M261.852 254.699C258.145 259.122 254.449 264.646 250.251 268.516C247.919 270.183 244.097 270.234 241.266 271.369C237.487 272.516 233.166 270.933 230.282 269.872C216.792 262.412 197.057 265.065 184.931 254.85C183.004 253.776 181.569 253.254 179.663 253.279C179.193 253.825 177.32 254.947 176.861 255.492C171.177 256.664 165.461 256.738 160.265 258.442C151.771 261.849 142.652 258.149 133.99 253.883C129.181 251.768 123.444 250.742 118.176 249.171C109.079 246.57 106.883 233.47 98.2949 232.501C84.4286 229.962 73.7248 240.489 59.8905 239.048C51.7591 237.514 44.6181 237.066 36.9244 233.888C31.147 230.684 24.9236 229.147 18.6765 226.489C17.2383 225.947 13.3258 221.643 13.3156 220.542C13.7532 218.898 17.0943 219.395 18.9676 218.273C24.1422 215.469 27.6086 221.438 31.4593 223.567C36.2683 225.683 41.9338 223.433 47.6366 223.34C50.0305 223.848 51.9571 224.923 54.3722 226.53C57.7641 229.204 61.9805 226.413 66.229 224.72C71.4036 221.916 77.6803 225.651 83.3535 224.48C90.9432 223.284 96.4834 215.56 103.198 217.651C97.4416 215.547 126.436 213.516 120.771 215.767C121.227 215.202 123.186 217.374 123.696 219.006C123.714 220.085 124.224 221.718 123.768 222.282C120.05 226.707 121.152 233.246 120.317 238.712C120.808 239.266 136.006 237.952 142.282 241.687C147.112 244.902 151.473 248.663 157.189 248.589C158.595 248.033 159.012 245.29 160.437 244.71C163.759 244.128 201.038 217.172 205.818 218.21C208.7 219.251 212.583 222.478 212.166 225.221C212.331 232.873 217.629 235.521 220.148 241.503C220.658 243.135 219.75 245.325 220.26 246.957C222.256 251.288 225.704 256.179 229.045 256.675C234.801 258.78 241.476 258.692 246.183 256.455L261.851 254.595L261.852 254.699Z" fill="#F1F6E4"/>
<path d="M388.762 99.3102C388.762 99.3102 370.02 112.677 348.623 102.862C348.623 102.862 331.161 99.0107 327.626 100.414L321.89 98.8477C321.89 98.8477 295.59 101.011 291.921 110.461C291.921 110.461 279.657 115.554 277.488 114.223C277.488 114.223 267.259 114.635 256.403 129.258" stroke="#D9E6B1"/>
<path d="M152.784 264.404C148.328 263.735 126.958 258.574 120.834 254.63C111.195 248.924 102.182 243.233 92.5213 236.802C91.5625 236.441 90.2922 236.457 89.6691 237.213C84.7017 242.379 77.6752 240.291 72.6679 243.279C70.4716 244.406 68.617 246.608 66.0788 246.661C52.7542 246.853 39.969 242.64 27.7816 236.261C22.64 233.424 18.1007 229.106 12.9385 225.543C11.9591 224.457 10.358 223.398 10.3278 221.946C9.98358 220.851 12.2127 221.196 13.3151 220.622C14.7508 221.143 16.0538 222.599 17.9664 223.28C21.5069 225.059 25.6184 224.633 28.834 226.77C32.3636 228.55 35.2762 231.043 39.1063 232.447C41.6675 233.139 43.8966 233.484 46.4262 233.453C55.6491 234.413 64.5302 234.3 73.3896 232.713C76.4612 228.298 82.2174 230.402 86.3398 229.975C87.6101 229.958 88.901 230.667 90.4839 231.022C94.2948 230.972 98.0524 228.726 100.956 231.241C106.796 236.994 112.624 242 119.372 245.938C124.837 249.145 147.207 256.117 152.922 256.771C160.572 258.104 167.466 254.386 174.774 254.645C175.409 254.637 170.907 265.415 152.786 264.425L152.784 264.404Z" fill="#FBFCF6"/>
</g>
<path d="M912.492 107.415L1017.14 135.046H915.867L877.045 107.415H912.492Z" fill="#CBBBA0" fill-opacity="0.65"/>
<path d="M1027.27 140.573L1181 189V287.942H1094.79L922.619 140.573H1027.27Z" fill="#CBBBA0" fill-opacity="0.83"/>
<path d="M875.356 107.415L912.491 135.046H794.335L841.598 107.415H875.356Z" fill="#CBBBA0" fill-opacity="0.65"/>
<path d="M917.555 140.573L1055.97 287.942H568.152L789.272 140.573H917.555Z" fill="#CBBBA0" fill-opacity="0.83"/>
<path d="M839.299 107.415L790.96 135.046H674.492L790.96 107.415H839.299Z" fill="#CBBBA0" fill-opacity="0.65"/>
<path d="M784.208 140.573L529.33 287.942H196.807L657.613 140.573H784.208Z" fill="#CBBBA0" fill-opacity="0.83"/>
</g>
<path d="M0.00292969 296.895L32.2858 296.895H76.5985H115.081H167.556H209.536H238.69H317.986H351.218L1181 296.895V363.871H0.00292969V296.895Z" fill="#95C11F" fill-opacity="0.3"/>
<path d="M1181 363.871H0.00292969V540H1181V363.871Z" fill="#666666"/>
<path d="M1181 365.87V369.368H0.00292969V365.87H1181Z" fill="white"/>
<path d="M1181 524V534.81H0.00292969V524H1181Z" fill="white"/>
<rect width="1181" height="105" transform="translate(0.00292969 540)" fill="#95C11F" fill-opacity="0.6"/>
</svg>
