<svg width="259" height="119" viewBox="0 0 259 119" fill="none" xmlns="http://www.w3.org/2000/svg">
<ellipse cx="129.5" cy="59.5" rx="129.5" ry="59.5" fill="white"/>
<g opacity="0.9">
<g opacity="0.9">
<path d="M67.7027 35.8781C68.4933 37.8077 78.5212 38.0378 79.8162 38.5026C85.6366 40.0519 106.751 35.7655 106.792 36.6434C106.574 37.8782 111.431 43.7421 113.539 44.0191C118.71 44.7655 123.808 43.7561 128.079 41.8078C130.192 40.958 130.501 40.3524 131.446 40.5495C131.832 40.5777 132.9 38.3195 135.667 37.1411C137.571 36.3993 140.07 36.7044 141.797 35.8265C145.163 34.5636 155.923 33.3194 159.662 32.6011C166.782 31.2349 170.363 30.9908 175.924 31.7701C180.104 32.573 183.553 31.9438 187.824 32.249C192.309 32.4462 195.503 32.1739 199.988 32.3758C204.213 32.9298 208.093 33.2115 212.624 33.1598C213.228 33.0753 213.832 32.9955 214.264 32.7748C214.7 32.5589 215.863 32.6434 216.463 32.5589C220.13 32.9485 223.447 34.188 227.027 33.9485C228.018 33.8922 229.485 33.3711 229.185 32.85C227.686 30.2349 224.887 28.2818 221.656 26.5447C218.598 24.9438 214.673 24.9156 210.62 24.4978C205.013 23.9719 201.055 20.8029 198.261 17.7184C196.325 15.324 194.83 11.5822 190.082 11.7418C184.521 12.0892 179.468 13.9859 173.78 12.8216C169.813 11.9108 166.623 11.0517 162.57 10.6385C162.011 10.4742 159.726 10.0563 158.949 10C154.378 10.2958 149.035 9.41314 145.877 11.6902C140.829 12.4554 138.243 11.5164 134.227 13.108C129.133 15.2489 123.99 17.6339 117.997 18.2019C114.589 18.5822 111.436 18.6057 108.16 18.2442C106.996 18.1644 102.866 15.9813 101.617 15.2677C99.2904 13.9719 95.7918 14.8498 93.4609 15.8076C89.7896 17.6714 86.0319 18.9062 81.5473 19.8358C79.9525 19.9719 78.4894 19.3616 76.7174 19.3616C72.5326 19.6902 69.5111 21.2207 65.8443 21.9625C52.1633 23.2442 54.0171 24.3663 53.4537 24.202C52.077 24.2302 51.5181 22.9344 49.7961 22.6855C47.4651 22.5165 45.1797 23.2302 43.6666 23.9954C39.1775 26.0518 33.6932 28.1645 28 27.0001C28.3453 27.2771 28.4725 27.6621 28.8588 27.6903C36.8329 29.2678 43.2077 32.1082 51.7044 31.8406C52.5223 31.6481 53.5628 31.3476 54.5533 31.2959C56.3208 31.2959 57.9202 31.1598 59.515 31.0236C62.2776 30.972 67.0121 34.1927 67.6936 35.8735L67.7027 35.8781Z" fill="#E8F0D0"/>
<path opacity="0.9" d="M210.52 24.5546C214.573 24.9724 218.499 25.0053 221.556 26.6015C224.787 28.3386 227.581 30.2917 229.085 32.9067C229.39 33.4279 227.918 33.949 226.927 34.0053C223.347 34.2495 220.03 33.0053 216.368 32.6204C215.763 32.7002 214.6 32.6204 214.168 32.8363C213.737 33.057 213.132 33.1368 212.528 33.2213C207.998 33.2682 204.118 32.9913 199.892 32.4373C195.408 32.2401 192.213 32.5124 187.729 32.3105C183.458 32.0006 180.009 32.6297 175.824 31.8269C170.263 31.0523 166.682 31.2917 159.562 32.6579C155.823 33.3762 145.068 34.6204 141.697 35.8833C139.97 36.7612 137.467 36.4561 135.567 37.1932C135.567 37.1932 134.181 36.2354 131.124 34.6345L164.738 25.0757L210.52 24.5546Z" fill="#C2D87F"/>
<path opacity="0.9" d="M169.262 100.366C171.5 97.5003 185.5 101.5 187 96.5001C184 95.5002 187.499 91.0008 190 90.0003C192.5 88.9998 216.5 97 233.5 91.9998C250.5 86.9995 208 100.5 206 100.5C204 100.5 189.412 103.829 189 104C188.588 104.173 172.373 105.057 171.782 105.17C167.32 105.679 163.478 105.931 159.278 106.059C154.845 106.421 151.714 106.919 147.28 107.278C143.051 107.553 139.691 108.283 135.516 108.263C129.986 108.406 126.471 108.925 119.538 110.473C115.897 111.286 105.374 113.149 102.129 114.238C100.482 114.93 97.9951 115.019 96.169 115.648C96.169 115.648 96.1141 115.602 93 115C104.04 110.116 110.728 107.906 124.166 105.533L169.262 100.366Z" fill="#7FBCD8"/>
<path opacity="0.9" d="M176 105.5C180.154 105.451 186.813 104.294 190 105C199.5 101.5 209 103 233.5 93C229 96.5 213.5 104.5 193.5 109.5C189.855 109.9 186.602 110.39 182.848 110.431C182.234 110.521 181.044 110.558 180.612 110.715C180.18 110.874 179.567 110.964 178.953 111.057C174.331 111.411 170.359 111.53 166.023 111.513C161.437 111.722 158.188 112.11 153.602 112.317C149.229 112.445 145.735 113.059 141.43 112.895C135.721 112.846 132.076 113.243 124.865 114.55C121.077 115.237 115.39 115.023 112 116C110.274 116.635 118.943 114.085 110 117C110 117 101.5 116.5 98.0001 116C108.081 113.527 112.302 113.102 129.836 109.773L176 105.5Z" fill="#7FBCD8"/>
<path d="M111.5 94.5C127.917 92.2536 137.113 91.4428 153.5 90.5C155.2 90.1767 155.291 89.9598 153.5 89.5L140 85C139.747 84.8122 139.543 84.8071 140 84.5C141.956 84.1899 143.055 84.1301 145 84C146.945 83.8699 163 83 163 83H163.5C154.162 83.8242 152.93 83.3425 141 84.5C140.033 84.6759 139.958 84.7879 141 85L155 89C156.598 89.7332 157.12 90.4101 155.5 91.5C141.953 93.0128 134.373 93.4448 121 96C119 96.5 118.5 96.5 117 97C113 98 111.562 98.8176 107 100.5C97.9208 103.804 91.269 107.68 82 112.5L70 110C78.8579 105.785 86.4583 102.05 96 98.5C102.073 96.5906 105.469 95.7564 111.5 94.5Z" fill="#666666"/>
<path d="M135.394 34.9447C135.394 34.9447 120.309 39.541 121.795 34.5128C121.795 34.5128 133.822 22.0996 142.319 21.8366C142.319 21.8366 148.444 21.6535 151.638 21.3812C151.638 21.3812 157.367 23.4235 163.883 22.1371C163.883 22.1371 189.986 19.0056 191.836 20.7662C191.836 20.7662 202.486 21.6582 205.199 22.9822C205.199 22.9822 209.288 26.5362 214.073 26.1278C214.073 26.1278 228.553 29.8038 221.179 30.3954C221.179 30.3954 216.908 31.217 214.704 31.433C214.704 31.433 183.525 29.94 181.758 28.8085C181.758 28.8085 147.671 24.4282 135.39 34.9447H135.394Z" fill="#CFE09B"/>
<path d="M134.885 36.3291C134.885 36.3291 125.107 41.9723 119.727 37.9535C119.727 37.9535 103.942 33.2304 108.609 30.1835C108.609 30.1835 126.843 18.2209 143.277 17.5214C143.277 17.5214 145.045 17.5214 148.33 15.6341C148.33 15.6341 157.135 13.6387 161.007 16.1693C161.007 16.1693 171.998 19.5918 176.828 18.9392C176.828 18.9392 180.79 20.9768 183.511 20.0472C183.511 20.0472 156.626 24.2491 153.314 21.8829C153.314 21.8829 141.246 19.0097 128.842 28.0097C128.842 28.0097 125.143 34.7563 134.885 36.3337V36.3291Z" fill="#DCE8B7"/>
<path d="M162.25 89.0154C162.25 89.0154 158.922 88.5906 155.5 88.9999C154 87.9999 137.227 84.5479 142.131 84.7199C142.131 84.7199 170.559 78.8107 184.308 84.063C184.308 84.063 185.756 84.6968 189.205 84.1457C189.205 84.1457 196.842 86.7935 199 90.5L197 90.5C197 90.5 195 89 192.5 88C192.5 88 190.5 87.9999 188 89.9999C188 89.9999 185.192 91.0001 185 96C185 96 169.939 90.1609 164.509 89.4102L162.25 89.0154Z" fill="#DCE8B7"/>
<path opacity="0.9" d="M157 90.5001C155.724 88.0396 153 89.0001 163 88.4999C166.555 89.7689 183.976 94.3991 185.875 96.7797C186.258 97.2534 184.815 97.9759 183.805 98.1703C180.157 98.9135 176.58 98.145 172.764 98.2762C172.153 98.4399 170.947 98.5237 170.532 98.7981C170.118 99.0771 169.508 99.2408 168.898 99.4092C164.248 100.09 160.222 100.359 155.804 100.401C151.168 100.834 147.921 101.551 143.284 101.978C138.852 102.269 135.392 103.375 130.983 103.166C125.162 103.177 121.514 103.915 114.38 106.265C110.633 107.501 99.7458 110.239 96.4508 111.962C94.7945 113.074 91.7689 114.463 91.7689 114.463C91.7689 114.463 82.5004 114 84.5 112.5C86.4996 111 106.5 98.4999 130 95.0001C153.5 91.5002 158.276 92.9605 157 90.5001Z" fill="#C2D87F"/>
<path d="M111.32 89.512C111.32 89.512 107.936 89.9798 104.635 90.9695C106.257 89.3803 85.9019 89.3981 90.7631 88.7273C90.7631 88.7273 120 84 134 83.3069C134 83.3069 136.197 84.1338 139.5 82.9999C139.5 82.9999 144.56 82.1863 148.5 83.5C148.5 83.5 148.5 84 144 84C144 84 140.5 84 139 84.5C139 84.5 139 85 140 85.5C140 85.5 137.751 84.9811 124.832 91.0824C124.832 91.0824 119.092 89.323 113.614 89.5138L111.32 89.512Z" fill="#DCE8B7"/>
<path opacity="0.9" d="M122.67 83.5106C126.742 83.3777 130.636 82.8805 133.882 84.0495C137.5 84.4999 150.5 88.4999 153.5 89.9999C153.872 90.4752 141.176 90.4714 140.202 90.6609C136.688 91.386 134.181 91.1115 130.5 91.2243C129.912 91.3849 128.097 91.4999 127.5 91.4999C127 91.4999 126.417 91.6618 125.829 91.8271C121.347 92.4849 118 92.4999 113.5 93.4999C109.03 93.9097 105.971 95.0948 101.5 95.4999C96.9999 96.4999 95.9999 97.4999 92.4999 98.9999C87.4999 99.9999 87.8704 101.185 80.9999 103.5C77.3768 105.5 75.4999 106 71.9999 107.5C70.4076 108.603 70.2822 108.513 68.4998 109.5C68.4998 109.5 34 100.5 26 91.5L56.5 88.4998L122.67 83.5106Z" fill="#C2D87F"/>
<path d="M127.508 42.2027C125.781 43.0806 124.005 44.2074 122.106 44.9445C121.074 45.2449 119.516 45.1322 118.307 45.2966C116.712 45.4327 115.031 44.9351 113.909 44.6017C108.783 42.4796 100.618 42.4374 96.1838 39.7378C95.4523 39.4327 94.8934 39.2684 94.1165 39.212C93.8984 39.32 93.0805 39.5125 92.867 39.6205C90.4952 39.7003 88.1642 39.5313 85.9651 39.7472C82.3392 40.2402 78.8088 39.1087 75.4919 37.8646C73.6381 37.2308 71.3526 36.8129 69.2852 36.2871C65.7094 35.4045 65.4595 32.3763 62.0108 31.8786C56.4902 30.8551 51.6148 32.8833 46.0534 32.1087C42.8183 31.4983 39.933 31.165 36.9569 30.1979C34.7623 29.2871 32.3042 28.7378 29.8915 27.9349C29.3326 27.7659 27.9513 26.6673 28.0013 26.4185C28.2603 26.0617 29.5962 26.2823 30.414 26.0898C32.6586 25.6251 33.7763 27.0852 35.2394 27.6908C37.0932 28.3246 39.5105 28.0007 41.8368 28.165C42.7865 28.3575 43.518 28.6626 44.4222 29.104C45.6717 29.8176 47.5255 29.3246 49.3385 29.0805C51.583 28.6157 53.9548 29.6626 56.3221 29.5828C59.4709 29.5594 62.1062 27.996 64.737 28.6861C62.497 28.0241 74.4014 28.5077 71.9842 28.8316C72.1977 28.719 72.8884 29.273 73.0156 29.6579C72.9702 29.9021 73.0974 30.2871 72.8838 30.3997C71.1527 31.2777 71.2799 32.7894 70.6711 33.996C70.8437 34.1369 77.0958 34.334 79.4676 35.381C81.276 36.2636 82.8663 37.2543 85.1972 37.4233C85.797 37.3435 86.1014 36.7378 86.7103 36.6533C88.0915 36.6298 104.594 31.7566 106.489 32.1462C107.611 32.4749 109.033 33.3293 108.729 33.935C108.42 35.6674 110.446 36.4373 111.178 37.8693C111.305 38.2543 110.828 38.7191 110.955 39.104C111.555 40.1463 112.718 41.3623 114.054 41.5829C116.294 42.2449 119.016 42.4421 121.042 42.09L127.513 42.1792L127.508 42.2027Z" fill="#F1F6E4"/>
<path d="M186.492 28.3031C186.492 28.3031 178.204 30.7115 169.975 27.8007C169.975 27.8007 163.055 26.3641 161.547 26.566L159.289 26.026C159.289 26.026 148.475 25.6598 146.516 27.6739C146.516 27.6739 141.273 28.4251 140.455 28.0542C140.455 28.0542 136.27 27.8148 131.131 30.7632" stroke="#D9E6B1"/>
<path d="M82.2963 57.9001C80.5151 57.6043 72.0684 55.7451 69.7693 54.6559C66.1253 53.055 62.7357 51.4775 59.1189 49.7122C58.7463 49.5995 58.2284 49.562 57.9376 49.7122C55.6612 50.7169 52.9032 50.0174 50.7177 50.5291C49.768 50.7122 48.9047 51.1488 47.8688 51.0784C42.4345 50.6888 37.4365 49.3225 32.7883 47.4869C30.8345 46.6793 29.1988 45.5573 27.2722 44.5854C26.9269 44.3084 26.3272 44.0173 26.3862 43.6887C26.2999 43.4305 27.1905 43.5807 27.6675 43.4868C28.2264 43.6511 28.6853 44.022 29.4305 44.238C30.7845 44.7544 32.4793 44.792 33.6834 45.3788C35.0329 45.8953 36.0961 46.5526 37.5864 46.9939C38.5951 47.2333 39.4857 47.3836 40.5171 47.4587C44.2247 47.9751 47.846 48.238 51.531 48.1676C52.9986 47.2709 55.2386 47.9329 56.938 47.9704C57.4559 48.008 57.9467 48.2099 58.5737 48.3413C60.1276 48.454 61.7679 48.069 62.8266 48.731C64.9212 50.2193 67.0477 51.5385 69.6012 52.6465C71.6686 53.5479 80.4334 55.8484 82.7279 56.1818C85.7767 56.7311 88.7665 56.116 91.729 56.4118C91.9879 56.4306 89.6252 58.717 82.2963 57.9048V57.9001Z" fill="#FBFCF6"/>
</g>
</g>
<path d="M92.9941 67.3336L95 68.423C93.8085 70.1221 92.2752 71.4764 90.4152 72.4858C88.5551 73.4953 86.5341 74 84.3624 74C81.9041 74 79.6619 73.3703 77.641 72.116C75.62 70.8567 74.0063 69.1726 72.8048 67.0537C71.6033 64.9349 71 62.5961 71 60.0275C71 58.0785 71.3469 56.2595 72.0406 54.5654C72.7344 52.8763 73.6946 51.3871 74.9112 50.1028C76.1328 48.8185 77.5555 47.814 79.1743 47.0894C80.7981 46.3648 82.5224 46 84.3624 46C86.5392 46 88.5551 46.5047 90.4152 47.5142C92.2752 48.5236 93.8035 49.8779 95 51.582L92.9941 52.6714C91.9083 51.2522 90.5911 50.1678 89.0528 49.4182C87.5094 48.6636 85.946 48.2888 84.3624 48.2888C82.2761 48.2888 80.4009 48.8235 78.7369 49.8979C77.0679 50.9723 75.7457 52.3966 74.7654 54.1756C73.7851 55.9547 73.2924 57.9086 73.2924 60.0325C73.2924 62.1563 73.7901 64.1353 74.7905 65.9043C75.7859 67.6784 77.1232 69.0876 78.7972 70.1421C80.4713 71.1965 82.3264 71.7212 84.3574 71.7212C86.1018 71.7212 87.7357 71.3114 89.2488 70.4969C90.762 69.6823 92.0088 68.6279 92.9891 67.3336H92.9941Z" fill="#936037"/>
<path d="M211.535 73.995C209.229 73.995 207.126 73.3654 205.23 72.1113C203.334 70.8522 201.82 69.1684 200.693 67.05C199.566 64.9315 199 62.5931 199 60.025C199 58.0764 199.325 56.2577 199.976 54.5639C200.627 52.8751 201.528 51.3862 202.669 50.1021C203.815 48.818 205.15 47.8137 206.668 47.0892C208.191 46.3647 209.809 46 211.535 46C213.261 46 215.006 46.3697 216.539 47.1042C218.067 47.8387 219.392 48.8729 220.514 50.212C221.637 51.551 222.5 53.1349 223.108 54.9686C223.717 56.8023 224.014 58.8158 224 61.0143H201.231C201.396 63.0678 201.962 64.8965 202.924 66.5004C203.886 68.1042 205.107 69.3733 206.597 70.3126C208.083 71.252 209.734 71.7216 211.535 71.7216C213.525 71.7216 215.313 71.162 216.902 70.0478C218.491 68.9336 219.75 67.3997 220.689 65.4511L222.872 65.9807C221.868 68.334 220.359 70.2627 218.336 71.7566C216.312 73.2555 214.049 74 211.54 74L211.535 73.995ZM201.179 58.9607H221.84C221.755 57.0321 221.241 55.2484 220.297 53.6096C219.354 51.9707 218.114 50.6567 216.586 49.6624C215.058 48.6731 213.37 48.1734 211.535 48.1734C209.701 48.1734 207.998 48.6581 206.494 49.6224C204.989 50.5867 203.763 51.8908 202.82 53.5296C201.877 55.1685 201.33 56.9772 201.179 58.9607Z" fill="#936037"/>
<path d="M198.003 77H197.997C194.685 77 192 79.6848 192 82.9967V83.0033C192 86.3152 194.685 89 197.997 89H198.003C201.315 89 204 86.3152 204 83.0033V82.9967C204 79.6848 201.315 77 198.003 77Z" fill="#95C11F" stroke="white"/>
<path d="M211.003 77H210.997C207.685 77 205 79.6848 205 82.9967V83.0033C205 86.3152 207.685 89 210.997 89H211.003C214.315 89 217 86.3152 217 83.0033V82.9967C217 79.6848 214.315 77 211.003 77Z" fill="#CBBBA0" stroke="white"/>
<path d="M223.997 77.25H224.003C227.177 77.25 229.75 79.8232 229.75 82.9971V83.0029C229.75 86.1768 227.177 88.75 224.003 88.75H223.997C220.823 88.75 218.25 86.1768 218.25 83.0029V82.9971C218.25 79.9224 220.665 77.4116 223.701 77.2578L223.997 77.25Z" fill="#936037" stroke="white" stroke-width="0.5"/>
<path d="M53.2304 69.2725C59.0604 69.2725 63.8642 67.2668 67.642 63.2556L71 66.6222C68.808 69.0576 66.1728 70.8961 63.0946 72.1376C60.0165 73.3792 56.6351 74 52.9506 74C48.893 74 45.1385 73.2121 41.6872 71.6362C38.2359 70.0126 35.321 67.7683 32.9424 64.9031C30.6104 62.0379 29.0014 58.743 28.1152 55.0183H20V51.8666H27.5556C27.4156 50.7683 27.3457 49.6461 27.3457 48.5C27.3457 47.3062 27.4156 46.184 27.5556 45.1334H20V41.9817H28.1152C29.0014 38.257 30.6104 34.9621 32.9424 32.0969C35.321 29.2317 38.2359 27.0112 41.6872 25.4354C45.1385 23.8118 48.893 23 52.9506 23C56.6351 23 60.0165 23.6208 63.0946 24.8624C66.1728 26.1039 68.808 27.9185 71 30.3062L67.642 33.6727C63.8176 29.7093 59.0137 27.7275 53.2304 27.7275C48.4733 27.7275 44.299 29.0407 40.7078 31.6671C37.1632 34.2935 34.7613 37.7317 33.5021 41.9817H57.4979V45.1334H32.7325C32.5926 46.184 32.5226 47.3062 32.5226 48.5C32.5226 49.6461 32.5926 50.7683 32.7325 51.8666H57.4979V55.0183H33.5021C34.7613 59.2683 37.1632 62.7065 40.7078 65.3329C44.299 67.9593 48.4733 69.2725 53.2304 69.2725Z" fill="#936037"/>
<path d="M142.812 74L136.515 65C135.807 65.08 135.072 65.12 134.311 65.12H126.912V74H124V46H134.311C137.827 46 140.582 46.8533 142.576 48.56C144.57 50.2667 145.567 52.6133 145.567 55.6C145.567 57.7867 145.016 59.64 143.914 61.16C142.838 62.6533 141.29 63.7333 139.27 64.4L146 74H142.812ZM134.233 62.6C136.961 62.6 139.047 61.9867 140.49 60.76C141.933 59.5333 142.655 57.8133 142.655 55.6C142.655 53.3333 141.933 51.6 140.49 50.4C139.047 49.1733 136.961 48.56 134.233 48.56H126.912V62.6H134.233Z" fill="#936037"/>
<path d="M108.503 74C106.647 74 104.907 73.6343 103.277 72.9086C101.647 72.1829 100.209 71.1771 98.9732 69.8914C97.7319 68.6057 96.7633 67.12 96.0556 65.4286C95.348 63.7371 95 61.9314 95 60C95 58.0686 95.3538 56.2629 96.0556 54.5714C96.7575 52.88 97.7319 51.3943 98.9732 50.1086C100.214 48.8229 101.647 47.8171 103.277 47.0914C104.907 46.3657 106.647 46 108.503 46C110.359 46 112.116 46.3657 113.746 47.0914C115.376 47.8171 116.815 48.8229 118.05 50.1086C119.291 51.3943 120.26 52.88 120.956 54.5714C121.652 56.2629 122 58.0686 122 60C122 61.9314 121.652 63.7371 120.956 65.4286C120.26 67.12 119.291 68.6057 118.05 69.8914C116.809 71.1771 115.376 72.1829 113.746 72.9086C112.116 73.6343 110.365 74 108.503 74ZM108.503 70.76C109.924 70.76 111.252 70.48 112.488 69.9143C113.723 69.3486 114.802 68.5657 115.736 67.5714C116.67 66.5771 117.4 65.4343 117.928 64.1371C118.456 62.8457 118.723 61.4686 118.723 60C118.723 58.5314 118.456 57.1486 117.922 55.8457C117.389 54.5429 116.652 53.3943 115.724 52.4114C114.79 51.4286 113.706 50.6514 112.476 50.0857C111.241 49.52 109.924 49.24 108.515 49.24C107.105 49.24 105.765 49.52 104.53 50.0857C103.294 50.6514 102.215 51.4343 101.282 52.4286C100.348 53.4229 99.617 54.5657 99.0892 55.8629C98.5613 57.1543 98.2945 58.5314 98.2945 60C98.2945 61.4686 98.5613 62.8686 99.095 64.1657C99.6286 65.4629 100.365 66.6057 101.293 67.6C102.227 68.5886 103.312 69.3657 104.541 69.9257C105.777 70.4857 107.093 70.7657 108.503 70.7657V70.76Z" fill="#936037"/>
<rect x="154.394" y="69.6682" width="3.69714" height="3.69714" fill="#936037"/>
<path d="M153.331 43.7881H159.943L165.486 69.6681H147L153.331 43.7881Z" fill="#346928"/>
<path d="M156.35 28.9999L159.755 42.016H153.285L156.35 28.9999Z" fill="#346928"/>
<path d="M197 32V73.7189H192.917V67.8715C191.637 69.8581 189.936 71.3762 187.814 72.4257C185.733 73.4752 183.371 74 180.73 74C177.768 74 175.086 73.3628 172.685 72.0884C170.283 70.8139 168.402 69.0335 167.041 66.747C165.68 64.4605 165 61.8554 165 58.9317C165 56.008 165.68 53.4029 167.041 51.1165C168.402 48.83 170.283 47.0683 172.685 45.8313C175.086 44.5569 177.768 43.9197 180.73 43.9197C183.291 43.9197 185.593 44.4257 187.634 45.4378C189.715 46.4123 191.417 47.8554 192.737 49.7671V32H197ZM181.09 70.4578C183.291 70.4578 185.273 69.9893 187.034 69.0522C188.835 68.0776 190.236 66.7095 191.236 64.9478C192.277 63.1861 192.797 61.1807 192.797 58.9317C192.797 56.6827 192.277 54.6774 191.236 52.9157C190.236 51.1539 188.835 49.8046 187.034 48.8675C185.273 47.8929 183.291 47.4056 181.09 47.4056C178.849 47.4056 176.827 47.8929 175.026 48.8675C173.265 49.8046 171.864 51.1539 170.824 52.9157C169.823 54.6774 169.323 56.6827 169.323 58.9317C169.323 61.1807 169.823 63.1861 170.824 64.9478C171.864 66.7095 173.265 68.0776 175.026 69.0522C176.827 69.9893 178.849 70.4578 181.09 70.4578Z" fill="#936037"/>
<path opacity="0.9" d="M142.5 113.499C143.974 113.614 144.499 113.485 145.998 113.475C147.497 113.464 147.997 113.46 149.5 113C149.629 113.264 154.852 112.91 154.498 112.964C153.218 113.183 150.992 112.719 164.996 112.44C179 112.161 192.832 109.913 191.996 110.449C191.16 110.986 164.167 116.175 155.471 116.231C154.472 116.238 152.092 116.705 150.47 116.716C148.848 116.728 143.958 117.215 142.336 117.224C140.787 117.171 146.013 116.622 144.477 116.309C147.176 118.112 129.498 117.468 125 117.5C123.501 117.511 119.295 117.646 117.483 117.4C120.549 115.13 116.894 117.903 117.483 117.4C117.483 117.4 113.5 117.5 112 117C115.488 115.17 119.839 116.309 126 115L134 114C137.228 113.481 139.107 113.429 142.5 113.499Z" fill="#7FBCD8"/>
</svg>
