<svg width="36" height="37" viewBox="0 0 36 37" fill="none" xmlns="http://www.w3.org/2000/svg">
<g clip-path="url(#clip0_414_1403)">
<path d="M4.5 0C3.30653 0 2.16193 0.487275 1.31802 1.35463C0.474106 2.22199 0 3.39837 0 4.625L0 32.375C0 33.6016 0.474106 34.778 1.31802 35.6454C2.16193 36.5127 3.30653 37 4.5 37H31.5C32.6935 37 33.8381 36.5127 34.682 35.6454C35.5259 34.778 36 33.6016 36 32.375V4.625C36 3.39837 35.5259 2.22199 34.682 1.35463C33.8381 0.487275 32.6935 0 31.5 0L4.5 0ZM5.625 11.5625H30.375C30.6734 11.5625 30.9595 11.6843 31.1705 11.9012C31.3815 12.118 31.5 12.4121 31.5 12.7188C31.5 13.0254 31.3815 13.3195 31.1705 13.5363C30.9595 13.7532 30.6734 13.875 30.375 13.875H5.625C5.32663 13.875 5.04048 13.7532 4.82951 13.5363C4.61853 13.3195 4.5 13.0254 4.5 12.7188C4.5 12.4121 4.61853 12.118 4.82951 11.9012C5.04048 11.6843 5.32663 11.5625 5.625 11.5625ZM9 19.6562C9 19.3496 9.11853 19.0555 9.32951 18.8387C9.54048 18.6218 9.82663 18.5 10.125 18.5H25.875C26.1734 18.5 26.4595 18.6218 26.6705 18.8387C26.8815 19.0555 27 19.3496 27 19.6562C27 19.9629 26.8815 20.257 26.6705 20.4738C26.4595 20.6907 26.1734 20.8125 25.875 20.8125H10.125C9.82663 20.8125 9.54048 20.6907 9.32951 20.4738C9.11853 20.257 9 19.9629 9 19.6562ZM13.5 26.5938C13.5 26.2871 13.6185 25.993 13.8295 25.7762C14.0405 25.5593 14.3266 25.4375 14.625 25.4375H21.375C21.6734 25.4375 21.9595 25.5593 22.1705 25.7762C22.3815 25.993 22.5 26.2871 22.5 26.5938C22.5 26.9004 22.3815 27.1945 22.1705 27.4113C21.9595 27.6282 21.6734 27.75 21.375 27.75H14.625C14.3266 27.75 14.0405 27.6282 13.8295 27.4113C13.6185 27.1945 13.5 26.9004 13.5 26.5938Z" fill="#34280C"/>
</g>
<defs>
<clipPath id="clip0_414_1403">
<rect width="36" height="37" fill="white"/>
</clipPath>
</defs>
</svg>
