<svg width="58" height="59" viewBox="0 0 58 59" fill="none" xmlns="http://www.w3.org/2000/svg">
<circle cx="29" cy="30" r="22" fill="#DEDEDE"/>
<path d="M29 0C12.9853 0 0 13.2092 0 29.5C0 45.7908 12.9853 59 29 59C45.0146 59 58 45.7908 58 29.5C58 13.2092 45.0146 0 29 0ZM48.2102 31.3226L46.4554 32.8822L40.249 30.7777L37.9032 32.7131L38.679 35.6819L44.9038 37.6924L45.421 40.0035L42.835 43.8178L40.1936 44.1185L33.6363 34.9115L32.9898 35.3812L32.3433 35.851L38.9006 45.058L37.7924 47.5007L33.4147 48.7971L31.4197 47.5758L31.4936 40.9242L28.9815 39.2519L26.451 40.943L26.5248 47.5946L24.5299 48.8159L20.1707 47.5007L19.0624 45.058L25.6382 35.851L24.9917 35.3812L24.3452 34.9115L17.7694 44.1185L15.128 43.7991L12.5605 39.9847L13.0962 37.6736L19.3395 35.6819L20.0968 32.6943L17.7325 30.7777L11.5446 32.901L9.78981 31.3602L9.66051 26.7379L11.6 24.8965L22.2395 28.3914L22.4796 27.621L22.7197 26.8506L12.0803 23.3557L11.5631 20.7064L14.3338 17.0236L16.6611 16.8169L20.4662 22.2283L23.5325 22.1156L24.6038 19.2408L20.7064 13.9045L21.6115 11.7249L25.8968 10.1841L28.2057 11.4994V22.8672H29.7943V11.4994L32.1032 10.1841L36.3885 11.7249L37.2936 13.9045L33.3962 19.2408L34.4675 22.0968L37.4783 22.2283L41.2465 16.7981L43.5739 16.986L46.3631 20.65L45.8459 23.2994L35.2248 26.8319L35.465 27.6022L35.7051 28.3726L46.3261 24.8401L48.2841 26.6627L48.1733 31.285L48.2102 31.3226Z" fill="#212426"/>
</svg>
