<svg width="59" height="59" viewBox="0 0 59 59" fill="none" xmlns="http://www.w3.org/2000/svg">
<circle cx="30" cy="30" r="22" fill="#DEDEDE"/>
<path d="M29.5 0C13.2092 0 0 13.2092 0 29.5C0 45.7908 13.2092 59 29.5 59C45.7908 59 59 45.7908 59 29.5C59 13.2092 45.7908 0 29.5 0ZM49.0414 31.3226L47.2564 32.8822L40.943 30.7777L38.5567 32.7131L39.3459 35.6819L45.678 37.6924L46.2041 40.0035L43.5736 43.8178L40.8866 44.1185L34.2162 34.9115L33.5586 35.3812L32.901 35.851L39.5713 45.058L38.4439 47.5006L33.9908 48.7971L31.9615 47.5758L32.0366 40.9242L29.4812 39.2519L26.907 40.943L26.9822 47.5946L24.9529 48.8159L20.5185 47.5006L19.3911 45.058L26.0803 35.851L25.4226 35.3812L24.765 34.9115L18.0758 44.1185L15.3889 43.7991L12.7771 39.9847L13.322 37.6736L19.6729 35.6819L20.4433 32.6943L18.0382 30.7777L11.7436 32.901L9.9586 31.3602L9.82707 26.7379L11.8 24.8965L22.6229 28.3914L22.8672 27.621L23.1115 26.8506L12.2885 23.3557L11.7624 20.7064L14.5809 17.0236L16.9484 16.8169L20.8191 22.2283L23.9382 22.1156L25.028 19.2408L21.0634 13.9045L21.9841 11.7249L26.3433 10.1841L28.692 11.4994V22.8672H30.308V11.4994L32.6567 10.1841L37.0159 11.7249L37.9366 13.9045L33.972 19.2408L35.0618 22.0968L38.1245 22.2283L41.9576 16.7981L44.3252 16.986L47.1624 20.65L46.6363 23.2994L35.8322 26.8319L36.0764 27.6022L36.3207 28.3726L47.1248 24.8401L49.1166 26.6627L49.0038 31.285L49.0414 31.3226Z" fill="#212426"/>
</svg>
