<svg width="121" height="121" viewBox="0 0 121 121" fill="none" xmlns="http://www.w3.org/2000/svg">
<path d="M56.9257 71.9509C48.4304 70.7016 37.8363 65.3546 30.8402 58.7582C26.1428 54.3107 20.7384 46.724 21.0457 44.9661C21.3529 43.2082 22.7947 43.1671 25.9429 46.915C34.1883 56.7594 43.8251 62.1563 54.4691 64.3551C60.3158 65.6044 66.7122 65.1137 71.2097 63.7145C77.3063 61.8655 82.8112 58.8582 87.4087 52.7616C90.407 48.714 91.4484 50.4719 91.4484 51.971C91.4484 55.7689 87.2587 62.1563 82.6113 65.8543C76.2649 70.9514 66.2705 73.3001 56.9257 71.9509Z" fill="#3F3F46"/>
<path d="M75.1654 33.8223C71.3175 30.5742 70.7678 22.9784 74.2659 19.8801C76.4147 17.9312 79.463 18.0312 81.4619 20.18C84.9599 23.8279 85.1098 30.2243 81.7617 33.5725C80.0127 35.2715 77.0143 35.3715 75.1654 33.8223Z" fill="#3F3F46"/>
<path d="M55.3765 31.274C52.4701 27.7349 48.6302 25.7771 42.9834 28.7255C39.0356 30.7743 37.2866 30.9242 37.2866 29.3751C37.2866 27.0764 40.035 24.128 43.4831 22.7288C45.9817 21.6794 50.5792 21.7793 53.1278 22.9787C58.6247 25.4273 63.1722 33.4728 59.1244 33.4728C58.3249 33.4728 56.4759 32.8232 55.3765 31.274Z" fill="#3F3F46"/>
<path d="M50.2115 120.164C36.9687 117.766 27.0742 112.669 17.9293 103.474C8.73442 94.2788 2.83773 83.0851 0.738898 71.0418C-0.360486 64.7453 -0.21057 54.4511 1.03873 48.3047C6.03593 23.7185 24.4257 5.7285 49.5616 0.931195C56.8577 -0.468024 67.4518 -0.268137 73.7483 1.38094C98.6344 7.92727 115.975 26.367 120.172 50.6532C125.669 82.9352 103.182 114.468 70.6001 120.164C65.4529 121.064 55.0587 121.064 50.2115 120.164ZM72.9488 114.018C83.1431 111.319 91.0886 106.822 98.2846 99.6259C115.025 82.9852 119.073 57.5494 108.329 36.2115C102.232 24.0183 91.7383 14.8234 78.2458 9.72627C67.7517 5.77847 54.3591 5.47864 43.8648 8.97669C35.0197 11.925 28.5234 15.8728 21.8271 22.4192C10.8832 33.0632 5.43626 45.8061 5.43626 60.9475C5.43626 76.7386 11.0831 89.7814 22.6766 100.825C30.5223 108.271 39.1674 112.669 49.7115 114.667C55.4086 115.717 67.9016 115.367 72.9488 114.018Z" fill="#6B7280"/>
</svg>
