<svg width="696" height="128" viewBox="0 0 696 128" fill="none" xmlns="http://www.w3.org/2000/svg">
<g clip-path="url(#clip0_307_1747)">
<path d="M416.816 95.568L413.688 108.203L519.089 104.852C521.575 102.388 524.099 99.9579 526.66 97.5446L416.823 95.5498L416.816 95.568Z" fill="#95C11F"/>
<path d="M419.32 79.0869L416.184 91.7227L537.388 87.8752C539.927 85.6775 542.504 83.4964 545.105 81.3683L419.32 79.0869Z" fill="#95C11F"/>
<path d="M582.988 47.9977L425.307 45.1433L422.171 57.779L577.547 52.8349C579.35 51.199 581.162 49.5986 582.988 47.9798L582.988 47.9977Z" fill="#95C11F"/>
<path d="M597.284 81.4913L563.699 80.8856C561.616 82.9963 559.54 85.089 557.464 87.1995L592.376 86.0958C593.997 84.5555 595.633 83.0147 597.292 81.491L597.284 81.4913Z" fill="#95C11F"/>
<path d="M580.707 97.7124L547.759 97.121C545.469 99.4535 543.186 101.804 540.888 104.136L575.763 103.034C577.391 101.243 579.034 99.4692 580.708 97.7302L580.707 97.7124Z" fill="#95C11F"/>
<path d="M635.669 32.8531L617.024 32.5141C607.521 32.3686 608.598 33.8001 606.582 34.8167L633.277 34.8131C634.076 34.1597 634.869 33.5065 635.661 32.8533L635.669 32.8531Z" fill="#95C11F"/>
<path d="M660.419 34.0425L642.874 34.0246C641.69 34.6909 640.505 35.3573 639.314 36.0239L657.815 35.4011C658.681 34.9603 659.547 34.5194 660.42 34.0604L660.419 34.0425Z" fill="#95C11F"/>
<path d="M603.592 31.1043L428.037 27.9208L424.908 40.5563L598.498 35.0349C600.186 33.7071 601.881 32.397 603.599 31.0862L603.592 31.1043Z" fill="#95C11F"/>
<path d="M623.423 47.9971L594.763 47.4762C592.34 48.9361 589.939 50.4131 587.547 51.9257L619.833 50.8925C621.03 49.9214 622.226 48.9682 623.415 47.9974L623.423 47.9971Z" fill="#95C11F"/>
<path d="M645.344 64.9804L621.284 64.5373C620.105 65.5795 618.934 66.6392 617.77 67.6808L643.549 66.8667C644.143 66.2381 644.735 65.5916 645.343 64.9626L645.344 64.9804Z" fill="#95C11F"/>
<path d="M635.91 82.0706L608.702 81.5723C607.406 82.869 606.117 84.1654 604.844 85.4792L633.936 84.5536C634.596 83.7258 635.249 82.8983 635.91 82.0706Z" fill="#95C11F"/>
<path d="M625.544 98.5296L595.308 97.9902C593.974 99.5029 592.655 101.015 591.359 102.544L623.453 101.518C624.153 100.528 624.852 99.5196 625.552 98.5294L625.544 98.5296Z" fill="#95C11F"/>
<path d="M419.668 74.2603L559.581 69.8188C561.502 67.9283 563.431 66.0734 565.374 64.2L422.804 61.6245L419.676 74.26L419.668 74.2603Z" fill="#95C11F"/>
<path d="M565.374 64.2C563.43 66.0554 561.502 67.9283 559.581 69.8188L559.892 69.8083C562.426 67.9151 564.993 66.0744 567.582 64.251L565.382 64.2176L565.374 64.2Z" fill="#95C11F"/>
<path d="M609.311 64.4569L578.118 64.0749C575.889 65.8326 574.079 67.9163 572.094 69.8626L603.397 68.8626C605.36 67.3823 607.332 65.9197 609.311 64.4569Z" fill="#95C11F"/>
<path d="M628.217 51.6485L652.99 50.8682C653.12 50.7565 653.241 50.6271 653.371 50.5153C653.634 50.1842 653.897 49.8711 654.153 49.5582L631.134 49.0084C630.156 49.8827 629.187 50.7745 628.217 51.6485Z" fill="#95C11F"/>
<path d="M666.211 65.7994L650.848 65.5289C650.327 66.1193 649.814 66.7093 649.301 67.2994L665.341 66.7953C665.641 66.463 665.934 66.1488 666.219 65.817L666.211 65.7994Z" fill="#95C11F"/>
<path d="M672.91 66.0034C672.77 66.2408 672.621 66.4606 672.481 66.698L680.859 66.416L672.91 66.0034Z" fill="#95C11F"/>
<path d="M661.884 82.664L641.107 82.2895C640.526 83.0608 639.959 83.8317 639.386 84.6029L660.772 83.9187C661.112 83.4598 661.483 83.0535 661.877 82.6643L661.884 82.664Z" fill="#95C11F"/>
<path d="M633.894 98.9647C633.296 99.8799 632.735 100.794 632.211 101.724L656.984 100.944C657.227 100.453 657.453 99.9259 657.665 99.3996L633.894 98.9647Z" fill="#95C11F"/>
<path d="M674.777 50.2245C674.777 50.2245 674.766 50.3323 674.761 50.3861L676.513 50.3271L674.777 50.2245Z" fill="#95C11F"/>
<path d="M658.497 49.734C658.303 50.1343 658.131 50.5339 657.945 50.934L669.696 50.5742C669.696 50.5742 669.707 50.4664 669.706 50.4128L658.504 49.7338L658.497 49.734Z" fill="#95C11F"/>
<path d="M671.083 82.569C670.777 82.9195 670.477 83.2697 670.186 83.6196L682.691 83.2344C682.691 83.2344 682.716 83.0904 682.728 83.0183L671.084 82.5869L671.083 82.569Z" fill="#95C11F"/>
<path d="M687.589 83.3917C687.589 83.3917 687.565 83.5358 687.552 83.6078L690.754 83.5L687.589 83.3917Z" fill="#95C11F"/>
<path d="M667.377 98.9474C666.796 99.2713 666.229 99.5947 665.655 99.9183L682.938 99.3723C682.938 99.3723 682.954 99.2107 682.967 99.1387L667.377 98.9474Z" fill="#95C11F"/>
<path d="M691.088 98.9188C691.088 98.9188 691.071 99.0804 691.066 99.1522L695.732 98.9951L691.088 98.9188Z" fill="#95C11F"/>
<path d="M667.002 34.3039L665.073 34.1898L662.24 34.0167C662.172 34.2159 662.097 34.3974 662.03 34.5966C661.969 34.7597 661.915 34.9227 661.861 35.0856L664.878 34.984L666.719 34.922L671.799 34.751C671.799 34.751 671.84 34.6422 671.852 34.5702L667.001 34.286L667.002 34.3039Z" fill="#95C11F"/>
<path d="M674.283 34.6319C674.283 34.6319 674.271 34.7397 674.266 34.7936L676.011 34.7349L674.275 34.6322L674.283 34.6319Z" fill="#95C11F"/>
<path d="M684.16 66.162C684.16 66.162 684.149 66.2698 684.143 66.3236L685.896 66.2646L684.16 66.162Z" fill="#95C11F"/>
</g>
<path d="M87.3724 69.1201L99.5149 79.7455L108.622 96.4426L108.622 113.14L105 114L104 111L102.491 109.938L39.096 111.814L36.8453 113.314L35.1734 116.175L29.6908 116.175L32.9154 103.645L37.2812 82.7813L52.4604 70.638L69.1575 66.0843L87.3724 69.1201Z" fill="#0C0C0C"/>
<path d="M327.803 63.9263L340.13 74.7193L349.134 91.5446L348 107L341 109L340.13 107.104L339.5 106L338.5 105.5L275.5 108L273.5 109.5L272.354 113.199L268.451 113.179L265.294 113.199L270.233 97.7226L275.351 76.9123L291.468 64.9713L308.952 60.6427L327.803 63.9263Z" fill="#0C0C0C"/>
<path d="M218.48 2.97394L215.507 44.7376L283.875 40.1479L291.307 25.2783L294.28 17.8435L270.5 8.92176L246.454 4.47741L218.48 2.97394Z" fill="black" fill-opacity="0.6"/>
<path d="M212.536 2.97381L199.159 44.6087L150.113 47.5826L133.764 49.0696L125.804 31.0145L160.516 13.3825L181.324 5.94772L212.536 2.97381Z" fill="black" fill-opacity="0.6"/>
<path d="M268.4 92.6736L269.493 105.178L265.229 109.585L114.833 110.975L114.828 100.909L268.4 92.6736Z" fill="#D5D3D3"/>
<path d="M18.5357 87.7714L20.2473 107.537L2.61736 105.29L0.710763 94.7884L18.5357 87.7714Z" fill="#D5D3D3"/>
<path d="M45.6206 53.0417L38.5538 73.3113L5.60297 79.4484L8.48133 65.0132L45.6206 53.0417Z" fill="#D5D3D3"/>
<path d="M372.331 47.0553L373.055 51.3585L373.35 55.8899L373.204 61.0616L372.019 66.1519L353.105 64.5107L342.44 39.3794L356.103 40.5361L363.088 40.3638L366.591 40.5521L369.957 41.2074L370.783 41.9253L371.578 43.7515L372.331 47.0553Z" fill="#FF0000"/>
<rect width="9.88969" height="7.79704" transform="matrix(0.984053 -0.177873 0.177711 0.984083 20.4287 92.9023)" fill="#F0CD96" fill-opacity="0.67"/>
<path d="M380.141 69.8021C380.141 69.8021 374.281 65.0318 373.367 60.7405C373.367 60.7405 373.815 48.4987 370.94 41.9276C370.94 41.9276 370.399 35.8354 369.429 33.8813C368.44 31.9273 365.771 31.2184 365.771 31.2184C365.771 31.2184 342.722 30.5096 335.051 28.7279C335.051 28.7279 307.952 12.4055 273.891 4.68493L262.376 2.46263C258.158 1.81127 253.884 1.31317 249.573 1.00665C205.079 -2.03944 177.029 2.17527 160.605 8.97627C144.181 15.7581 109.729 36.6017 101.069 38.9582C101.069 38.9582 36.9602 43.4028 12.7912 58.1542C12.7912 58.1542 4.13145 66.5836 0.697399 81.3351C0.697399 81.3351 -1.13161 92.8106 1.38794 102.064C1.38794 102.064 -0.347748 102.773 0.0628454 103.826C0.473439 104.88 1.052 105.934 1.052 105.934C1.052 105.934 2.65705 107.447 5.84848 108.501L6.42704 112.716C6.42704 112.716 15.5534 117.639 35.0566 116.93C35.0566 116.93 28.8977 84.841 54.6717 72.5609C80.4458 60.2616 109.542 82.5037 105.081 114.248L272.305 113.309C272.305 113.309 268.311 86.7376 286.452 74.3234C304.592 61.9091 322.49 68.94 330.142 75.6069C337.776 82.2738 343.375 94.3432 340.855 109.095L371.762 100.205C371.762 100.205 377.809 96.6996 378.835 95.0521C379.862 93.4045 381 86.7376 381 86.7376L380.16 69.8021H380.141ZM5.3259 103.309L2.65705 95.1095L13.1458 94.4773C13.1458 94.4773 14.9748 95.0329 16.4119 98.3089C17.849 101.585 20.0699 106.585 20.0699 106.585C20.0699 106.585 10.645 106.662 5.3259 103.309ZM28.4311 98.328H23.8586C22.3282 96.6805 21.675 94.4199 21.675 94.4199L29.6629 93.8643C29.3643 96.3548 28.4498 98.3089 28.4498 98.3089L28.4311 98.328ZM22.1229 75.3004L7.2109 77.561C6.91229 71.0091 9.48782 64.687 9.48782 64.687L18.3156 63.595C29.4949 58.6715 43.4178 58.365 43.4178 58.365C30.0362 62.2731 22.1229 75.3004 22.1229 75.3004ZM129.194 31.7357C132.815 29.5325 137.07 27.0229 142.053 24.2258C163.087 12.4055 181.284 5.66198 207.786 4.6083L196.718 43.0388L135.167 46.9661C136.772 45.7975 137.948 44.5905 137.948 44.5905C140.299 39.2838 136.585 32.8851 136.585 32.8851C135.297 32.0422 133.17 31.8698 133.17 31.8698C131.079 32.3296 129.474 33.3258 128.243 34.4944L129.194 31.7357ZM266.967 105.416L115.253 109.401L268.553 102.37L266.948 105.416H266.967ZM282.738 37.5405L217.64 41.6977L220.906 4.51251C227.27 4.66577 234.101 5.10641 241.529 5.79609C261.779 7.71186 278.706 13.4592 291.416 19.3789L282.756 37.5213L282.738 37.5405ZM372.396 62.4647C372.396 62.4647 350.262 47.8665 349.888 45.6059C349.515 43.3453 351.568 43.1154 351.568 43.1154C365.789 40.2226 369.821 42.0234 369.821 42.0234C373.161 48.4221 372.415 62.4647 372.415 62.4647H372.396Z" fill="white"/>
<defs>
<clipPath id="clip0_307_1747">
<rect width="282.201" height="80.6668" fill="white" transform="matrix(-0.999434 0.0336446 -0.033613 -0.999435 695.753 99.6211)"/>
</clipPath>
</defs>
</svg>
