<svg width="259" height="119" viewBox="0 0 259 119" fill="none" xmlns="http://www.w3.org/2000/svg">
<ellipse cx="129.5" cy="59.5" rx="129.5" ry="59.5" fill="white"/>
<g opacity="0.9">
<g opacity="0.9">
<path d="M71.2247 44.4035C72.0153 46.3331 82.0432 46.5632 83.3382 47.028C89.1586 48.5773 110.273 44.2909 110.314 45.1688C110.096 46.4036 114.953 52.2675 117.061 52.5444C122.232 53.2909 127.33 52.2815 131.601 50.3332C133.714 49.4834 134.023 48.8778 134.968 49.0749C135.354 49.1031 136.422 46.8449 139.189 45.6665C141.093 44.9247 143.592 45.2298 145.319 44.3519C148.685 43.089 159.445 41.8448 163.184 41.1265C170.304 39.7603 173.885 39.5162 179.446 40.2955C183.626 41.0983 187.075 40.4692 191.346 40.7744C195.831 40.9716 199.025 40.6993 203.51 40.9012C207.735 41.4552 211.615 41.7368 216.146 41.6852C216.75 41.6007 217.354 41.5209 217.786 41.3002C218.222 41.0843 219.385 41.1688 219.985 41.0843C223.652 41.4739 226.969 42.7134 230.549 42.4739C231.54 42.4176 233.007 41.8965 232.707 41.3753C231.208 38.7603 228.409 36.8072 225.178 35.0701C222.12 33.4692 218.195 33.441 214.142 33.0232C208.535 32.4973 204.577 29.3283 201.783 26.2438C199.847 23.8494 198.352 20.1076 193.604 20.2672C188.043 20.6146 182.99 22.5113 177.302 21.347C173.335 20.4362 170.145 19.577 166.092 19.1639C165.533 18.9996 163.248 18.5817 162.471 18.5254C157.9 18.8212 152.557 17.9385 149.399 20.2155C144.351 20.9808 141.765 20.0418 137.749 21.6334C132.655 23.7743 127.512 26.1593 121.519 26.7273C118.111 27.1076 114.958 27.1311 111.682 26.7696C110.518 26.6898 106.388 24.5067 105.139 23.793C102.812 22.4973 99.3137 23.3752 96.9828 24.3329C93.3115 26.1968 89.5539 27.4316 85.0693 28.3612C83.4745 28.4973 82.0114 27.887 80.2394 27.887C76.0546 28.2156 73.0331 29.7461 69.3663 30.4879C55.6853 31.7696 57.5391 32.8917 56.9757 32.7274C55.599 32.7556 55.0401 31.4598 53.318 31.2109C50.9871 31.0419 48.7016 31.7555 47.1886 32.5208C42.6994 34.5772 37.2152 36.6899 31.522 35.5255C31.8673 35.8025 31.9945 36.1875 32.3807 36.2157C40.3549 37.7932 46.7297 40.6336 55.2264 40.3659C56.0442 40.1735 57.0847 39.873 58.0753 39.8213C59.8428 39.8213 61.4421 39.6852 63.037 39.549C65.7995 39.4974 70.534 42.7181 71.2156 44.3988L71.2247 44.4035Z" fill="#E8F0D0"/>
<path opacity="0.9" d="M214.042 33.08C218.095 33.4978 222.02 33.5307 225.078 35.1269C228.309 36.864 231.103 38.8171 232.607 41.4321C232.912 41.9533 231.439 42.4744 230.449 42.5307C226.868 42.7749 223.552 41.5307 219.889 41.1457C219.285 41.2256 218.122 41.1457 217.69 41.3617C217.259 41.5824 216.654 41.6622 216.05 41.7467C211.52 41.7936 207.64 41.5166 203.414 40.9626C198.929 40.7655 195.735 41.0378 191.25 40.8359C186.979 40.526 183.531 41.1551 179.346 40.3523C173.785 39.5777 170.204 39.8171 163.084 41.1833C159.345 41.9016 148.59 43.1458 145.218 44.4087C143.492 45.2866 140.988 44.9815 139.089 45.7186C139.089 45.7186 137.703 44.7608 134.645 43.1598L168.259 33.6011L214.042 33.08Z" fill="#C2D87F"/>
<path d="M138.916 43.4701C138.916 43.4701 123.831 48.0664 125.317 43.0382C125.317 43.0382 137.344 30.625 145.841 30.362C145.841 30.362 151.966 30.1789 155.16 29.9066C155.16 29.9066 160.889 31.9489 167.405 30.6625C167.405 30.6625 193.508 27.531 195.358 29.2916C195.358 29.2916 206.008 30.1836 208.721 31.5076C208.721 31.5076 212.81 35.0616 217.595 34.6532C217.595 34.6532 232.075 38.3292 224.701 38.9208C224.701 38.9208 220.43 39.7424 218.226 39.9584C218.226 39.9584 187.047 38.4654 185.28 37.3339C185.28 37.3339 151.193 32.9536 138.912 43.4701H138.916Z" fill="#CFE09B"/>
<path d="M138.407 44.8544C138.407 44.8544 128.629 50.4977 123.249 46.4789C123.249 46.4789 107.464 41.7558 112.131 38.7089C112.131 38.7089 130.364 26.7463 146.799 26.0468C146.799 26.0468 148.566 26.0468 151.851 24.1594C151.851 24.1594 160.657 22.1641 164.528 24.6947C164.528 24.6947 175.519 28.1172 180.349 27.4646C180.349 27.4646 184.311 29.5022 187.033 28.5726C187.033 28.5726 160.148 32.7745 156.836 30.4083C156.836 30.4083 144.768 27.5351 132.364 36.5351C132.364 36.5351 128.665 43.2817 138.407 44.8591V44.8544Z" fill="#DCE8B7"/>
<path d="M130.179 51.7376C128.452 52.6155 126.676 53.7423 124.776 54.4794C123.745 54.7798 122.187 54.6672 120.978 54.8315C119.383 54.9676 117.702 54.47 116.58 54.1366C111.454 52.0146 103.289 51.9723 98.8547 49.2728C98.1232 48.9676 97.5643 48.8033 96.7874 48.7469C96.5693 48.8549 95.7514 49.0474 95.5379 49.1554C93.1661 49.2352 90.8351 49.0662 88.636 49.2821C85.0101 49.7751 81.4797 48.6436 78.1628 47.3995C76.309 46.7657 74.0235 46.3478 71.9561 45.822C68.3803 44.9394 68.1304 41.9112 64.6817 41.4135C59.1611 40.3901 54.2857 42.4182 48.7243 41.6436C45.4892 41.0333 42.6039 40.6999 39.6278 39.7328C37.4332 38.822 34.9751 38.2727 32.5624 37.4698C32.0035 37.3008 30.6222 36.2022 30.6722 35.9534C30.9312 35.5966 32.2671 35.8172 33.0849 35.6248C35.3295 35.16 36.4472 36.6201 37.9103 37.2257C39.7641 37.8595 42.1814 37.5356 44.5077 37.6999C45.4574 37.8924 46.1889 38.1975 47.0931 38.6389C48.3426 39.3525 50.1964 38.8595 52.0094 38.6154C54.2539 38.1506 56.6257 39.1976 58.993 39.1177C62.1418 39.0943 64.7771 37.5309 67.4079 38.221C65.1679 37.559 77.0723 38.0426 74.6551 38.3666C74.8686 38.2539 75.5593 38.8079 75.6865 39.1929C75.6411 39.437 75.7683 39.822 75.5547 39.9347C73.8236 40.8126 73.9508 42.3243 73.342 43.5309C73.5146 43.6718 79.7667 43.869 82.1385 44.9159C83.9469 45.7985 85.5372 46.7892 87.8681 46.9582C88.4679 46.8784 88.7723 46.2727 89.3812 46.1882C90.7624 46.1647 107.265 41.2915 109.16 41.6811C110.282 42.0098 111.704 42.8643 111.4 43.4699C111.091 45.2023 113.117 45.9723 113.849 47.4042C113.976 47.7892 113.499 48.254 113.626 48.6389C114.226 49.6812 115.389 50.8972 116.725 51.1178C118.965 51.7798 121.687 51.977 123.713 51.6249L130.183 51.7141L130.179 51.7376Z" fill="#F1F6E4"/>
<path d="M189.492 20.7887C189.492 20.7887 181.204 23.1971 172.976 20.2863C172.976 20.2863 166.056 18.8497 164.547 19.0515L162.289 18.5116C162.289 18.5116 151.475 18.1454 149.517 20.1595C149.517 20.1595 144.273 20.9107 143.455 20.5398C143.455 20.5398 139.27 20.3004 134.132 23.2488" stroke="#D9E6B1"/>
<path d="M85.2963 50.3857C83.5151 50.0899 75.0684 48.2307 72.7693 47.1415C69.1253 45.5406 65.7357 43.9631 62.1189 42.1978C61.7463 42.0851 61.2284 42.0476 60.9376 42.1978C58.6612 43.2025 55.9032 42.503 53.7177 43.0147C52.768 43.1978 51.9047 43.6344 50.8688 43.564C45.4345 43.1743 40.4365 41.8081 35.7883 39.9724C33.8345 39.1649 32.1988 38.0429 30.2722 37.071C29.9269 36.794 29.3272 36.5029 29.3862 36.1743C29.2999 35.9161 30.1905 36.0663 30.6675 35.9724C31.2264 36.1367 31.6853 36.5076 32.4305 36.7236C33.7845 37.24 35.4793 37.2776 36.6834 37.8644C38.0329 38.3809 39.0961 39.0382 40.5864 39.4795C41.5951 39.7189 42.4857 39.8692 43.5171 39.9443C47.2247 40.4607 50.846 40.7236 54.531 40.6532C55.9986 39.7565 58.2386 40.4185 59.938 40.456C60.4559 40.4936 60.9467 40.6955 61.5737 40.8269C63.1276 40.9396 64.7679 40.5546 65.8266 41.2166C67.9212 42.7049 70.0477 44.0241 72.6012 45.1321C74.6686 46.0335 83.4334 48.334 85.7279 48.6673C88.7767 49.2166 91.7665 48.6016 94.729 48.8974C94.9879 48.9162 92.6252 51.2026 85.2963 50.3904V50.3857Z" fill="#FBFCF6"/>
</g>
</g>
<g opacity="0.16">
<path d="M81.2804 77.1591C80.1183 76.4991 78.8697 76.1746 77.5346 76.1746C75.9996 76.1746 74.5942 76.5886 73.324 77.4164C72.0538 78.2443 71.0377 79.3518 70.2864 80.739C69.5296 82.1262 69.1513 83.67 69.1513 85.3648C69.1513 87.0597 69.5242 88.5699 70.2647 89.9683C71.0052 91.3667 72.0106 92.491 73.2754 93.33C74.5402 94.1691 75.9563 94.5942 77.5346 94.5942C78.7562 94.5942 79.9561 94.2921 81.1344 93.688C82.3182 93.0839 83.3127 92.2169 84.1289 91.087L85.118 91.6408C84.2694 92.9049 83.1776 93.9118 81.8479 94.6557C80.5183 95.4052 79.0805 95.78 77.5292 95.78C76.2212 95.78 74.9888 95.5115 73.8321 94.9745C72.6754 94.4376 71.6647 93.688 70.7944 92.7371C69.9242 91.7806 69.2432 90.6787 68.7459 89.4257C68.2486 88.1728 68 86.8192 68 85.3704C68 83.463 68.427 81.7234 69.2864 80.1572C70.1458 78.5855 71.2917 77.3325 72.7349 76.3984C74.1781 75.4643 75.7726 75 77.5292 75C79.0805 75 80.5183 75.3748 81.8479 76.1243C83.1776 76.8738 84.264 77.8807 85.118 79.1392L84.1289 79.693C83.3938 78.6694 82.4425 77.8247 81.2804 77.1703V77.1591Z" fill="#1D1D1B"/>
<path d="M132.465 99.5053C132.632 99.6675 132.713 99.8857 132.713 100.149C132.713 100.411 132.632 100.602 132.465 100.758C132.297 100.915 132.103 100.993 131.876 100.993C131.632 100.993 131.427 100.915 131.254 100.758C131.081 100.602 131 100.389 131 100.126C131 99.8633 131.086 99.6675 131.254 99.5053C131.427 99.3375 131.632 99.2592 131.876 99.2592C132.103 99.2592 132.303 99.3375 132.465 99.5053ZM131.286 75H132.432V94.7228H131.286V75Z" fill="#1D1D1B"/>
<path d="M143.805 75.0112C145.659 75.0112 147.394 75.3692 148.999 76.0851C150.605 76.8011 152.021 77.7968 153.248 79.0609C154.475 80.3251 155.431 81.7962 156.118 83.4574C156.804 85.1187 157.145 86.9031 157.145 88.8105C157.145 90.7179 156.804 92.5022 156.118 94.1635C155.431 95.8248 154.475 97.2903 153.248 98.56C152.021 99.8297 150.605 100.82 148.999 101.536C147.394 102.252 145.659 102.61 143.805 102.61H135V75H143.805V75.0112ZM136.14 101.435H143.8C145.491 101.435 147.07 101.111 148.545 100.462C150.021 99.813 151.313 98.9068 152.432 97.7489C153.55 96.5911 154.426 95.2486 155.053 93.7272C155.68 92.2001 155.999 90.5668 155.999 88.8161C155.999 87.0653 155.685 85.432 155.053 83.9049C154.426 82.3779 153.556 81.041 152.442 79.8832C151.329 78.7253 150.037 77.8247 148.561 77.1703C147.086 76.5214 145.497 76.1914 143.794 76.1914H136.135V101.435H136.14Z" fill="#1D1D1B"/>
<path d="M173.702 75.6669C175.237 76.78 176.388 78.2063 177.15 79.9571L176.005 80.2312C175.242 78.6538 174.215 77.4177 172.918 76.5227C171.621 75.6277 170.162 75.1802 168.535 75.1802C167.075 75.1802 165.735 75.555 164.513 76.3045C163.292 77.0541 162.292 78.0777 161.513 79.3698C160.735 80.6675 160.276 82.133 160.151 83.7775H178.026C177.999 85.422 177.75 86.9155 177.275 88.2635C176.799 89.6116 176.134 90.7694 175.28 91.7427C174.426 92.716 173.432 93.4655 172.286 93.9913C171.14 94.5171 169.891 94.78 168.529 94.78C167.167 94.78 165.989 94.5115 164.832 93.9745C163.675 93.4376 162.665 92.688 161.794 91.7371C160.924 90.7806 160.243 89.6787 159.746 88.4258C159.249 87.1728 159 85.8192 159 84.3704C159 82.463 159.427 80.7234 160.286 79.1572C161.146 77.5855 162.292 76.3325 163.735 75.3984C165.178 74.4643 166.773 74 168.529 74C170.437 74 172.156 74.5538 173.697 75.6669H173.702ZM161.449 89.3151C162.211 90.624 163.205 91.6644 164.432 92.4419C165.659 93.2194 167.027 93.6054 168.54 93.6054C170.053 93.6054 171.41 93.2082 172.659 92.4139C173.902 91.6197 174.907 90.5625 175.669 89.248C176.432 87.9335 176.837 86.5072 176.891 84.9689H160.157C160.259 86.5575 160.692 88.0118 161.454 89.3151H161.449Z" fill="#1D1D1B"/>
<path d="M92.5203 95.784C91.3491 95.784 90.2511 95.5125 89.2227 94.9738C88.1942 94.4351 87.2866 93.6886 86.507 92.7342C85.7238 91.7799 85.1126 90.677 84.6661 89.4215C84.2196 88.166 84 86.8256 84 85.392C84 83.9583 84.2233 82.618 84.6661 81.3624C85.109 80.1069 85.7238 79.0041 86.507 78.0497C87.2903 77.0954 88.1942 76.3488 89.2227 75.8101C90.2511 75.2715 91.3491 75 92.5203 75C93.6914 75 94.8004 75.2715 95.8288 75.8101C96.8572 76.3488 97.7649 77.0954 98.5445 78.0497C99.3277 79.0041 99.9389 80.1069 100.378 81.3624C100.817 82.618 101.037 83.9583 101.037 85.392C101.037 86.8256 100.817 88.166 100.378 89.4215C99.9389 90.677 99.3277 91.7799 98.5445 92.7342C97.7612 93.6886 96.8572 94.4351 95.8288 94.9738C94.8004 95.5125 93.6951 95.784 92.5203 95.784ZM92.5203 93.379C93.4169 93.379 94.255 93.1711 95.0346 92.7512C95.8142 92.3313 96.4949 91.7502 97.0841 91.0121C97.6734 90.2741 98.1345 89.4258 98.4676 88.4629C98.8006 87.5043 98.969 86.4821 98.969 85.392C98.969 84.3019 98.8006 83.2754 98.4639 82.3083C98.1272 81.3412 97.6624 80.4887 97.0768 79.7591C96.4876 79.0295 95.8032 78.4527 95.0273 78.0328C94.2477 77.6128 93.4169 77.405 92.5276 77.405C91.6382 77.405 90.7928 77.6128 90.0132 78.0328C89.2337 78.4527 88.5529 79.0338 87.9637 79.7718C87.3744 80.5099 86.9133 81.3582 86.5802 82.321C86.2472 83.2796 86.0788 84.3019 86.0788 85.392C86.0788 86.4821 86.2472 87.5213 86.5839 88.4841C86.9206 89.447 87.3854 90.2953 87.971 91.0333C88.5602 91.7671 89.2446 92.344 90.0205 92.7597C90.8001 93.1754 91.6309 93.3832 92.5203 93.3832V93.379Z" fill="#1D1D1B" fill-opacity="0.97"/>
</g>
<path d="M98.9941 67.3336L101 68.423C99.8085 70.1221 98.2752 71.4764 96.4152 72.4858C94.5551 73.4953 92.5341 74 90.3624 74C87.9041 74 85.6619 73.3703 83.641 72.116C81.62 70.8567 80.0063 69.1726 78.8048 67.0537C77.6033 64.9349 77 62.5961 77 60.0275C77 58.0785 77.3469 56.2595 78.0406 54.5654C78.7344 52.8763 79.6946 51.3871 80.9112 50.1028C82.1328 48.8185 83.5555 47.814 85.1743 47.0894C86.7981 46.3648 88.5224 46 90.3624 46C92.5392 46 94.5551 46.5047 96.4152 47.5142C98.2752 48.5236 99.8035 49.8779 101 51.582L98.9941 52.6714C97.9083 51.2522 96.5911 50.1678 95.0528 49.4182C93.5094 48.6636 91.946 48.2888 90.3624 48.2888C88.2761 48.2888 86.4009 48.8235 84.7369 49.8979C83.0679 50.9723 81.7457 52.3966 80.7654 54.1756C79.7851 55.9547 79.2924 57.9086 79.2924 60.0325C79.2924 62.1563 79.7901 64.1353 80.7905 65.9043C81.7859 67.6784 83.1232 69.0876 84.7972 70.1421C86.4713 71.1965 88.3264 71.7212 90.3574 71.7212C92.1018 71.7212 93.7357 71.3114 95.2488 70.4969C96.762 69.6823 98.0088 68.6279 98.9891 67.3336H98.9941Z" fill="#936037"/>
<path d="M217.535 73.995C215.229 73.995 213.126 73.3654 211.23 72.1113C209.334 70.8522 207.82 69.1684 206.693 67.05C205.566 64.9315 205 62.5931 205 60.025C205 58.0764 205.325 56.2577 205.976 54.5639C206.627 52.8751 207.528 51.3862 208.669 50.1021C209.815 48.818 211.15 47.8137 212.668 47.0892C214.191 46.3647 215.809 46 217.535 46C219.261 46 221.006 46.3697 222.539 47.1042C224.067 47.8387 225.392 48.8729 226.514 50.212C227.637 51.551 228.5 53.1349 229.108 54.9686C229.717 56.8023 230.014 58.8158 230 61.0143H207.231C207.396 63.0678 207.962 64.8965 208.924 66.5004C209.886 68.1042 211.107 69.3733 212.597 70.3126C214.083 71.252 215.734 71.7216 217.535 71.7216C219.525 71.7216 221.313 71.162 222.902 70.0478C224.491 68.9336 225.75 67.3997 226.689 65.4511L228.872 65.9807C227.868 68.334 226.359 70.2627 224.336 71.7566C222.312 73.2555 220.049 74 217.54 74L217.535 73.995ZM207.179 58.9607H227.84C227.755 57.0321 227.241 55.2484 226.297 53.6096C225.354 51.9707 224.114 50.6567 222.586 49.6624C221.058 48.6731 219.37 48.1734 217.535 48.1734C215.701 48.1734 213.998 48.6581 212.494 49.6224C210.989 50.5867 209.763 51.8908 208.82 53.5296C207.877 55.1685 207.33 56.9772 207.179 58.9607Z" fill="#936037"/>
<path d="M195.003 81H194.997C191.685 81 189 83.6848 189 86.9967V87.0033C189 90.3152 191.685 93 194.997 93H195.003C198.315 93 201 90.3152 201 87.0033V86.9967C201 83.6848 198.315 81 195.003 81Z" fill="#95C11F" stroke="white"/>
<path d="M208.003 81H207.997C204.685 81 202 83.6848 202 86.9967V87.0033C202 90.3152 204.685 93 207.997 93H208.003C211.315 93 214 90.3152 214 87.0033V86.9967C214 83.6848 211.315 81 208.003 81Z" fill="#CBBBA0" stroke="white"/>
<path d="M220.997 81.25H221.003C224.177 81.25 226.75 83.8232 226.75 86.9971V87.0029C226.75 90.1768 224.177 92.75 221.003 92.75H220.997C217.823 92.75 215.25 90.1768 215.25 87.0029V86.9971C215.25 83.9224 217.665 81.4116 220.701 81.2578L220.997 81.25Z" fill="#936037" stroke="white" stroke-width="0.5"/>
<path d="M59.2305 69.2725C65.0604 69.2725 69.8642 67.2668 73.642 63.2556L77 66.6222C74.808 69.0576 72.1728 70.8961 69.0946 72.1376C66.0165 73.3792 62.6351 74 58.9506 74C54.893 74 51.1385 73.2121 47.6872 71.6362C44.2359 70.0126 41.321 67.7683 38.9424 64.9031C36.6104 62.0379 35.0014 58.743 34.1152 55.0183H26V51.8666H33.5556C33.4156 50.7683 33.3457 49.6461 33.3457 48.5C33.3457 47.3062 33.4156 46.184 33.5556 45.1334H26V41.9817H34.1152C35.0014 38.257 36.6104 34.9621 38.9424 32.0969C41.321 29.2317 44.2359 27.0112 47.6872 25.4354C51.1385 23.8118 54.893 23 58.9506 23C62.6351 23 66.0165 23.6208 69.0946 24.8624C72.1728 26.1039 74.808 27.9185 77 30.3062L73.642 33.6727C69.8176 29.7093 65.0137 27.7275 59.2305 27.7275C54.4733 27.7275 50.299 29.0407 46.7078 31.6671C43.1632 34.2935 40.7613 37.7317 39.5021 41.9817H63.4979V45.1334H38.7325C38.5926 46.184 38.5226 47.3062 38.5226 48.5C38.5226 49.6461 38.5926 50.7683 38.7325 51.8666H63.4979V55.0183H39.5021C40.7613 59.2683 43.1632 62.7065 46.7078 65.3329C50.299 67.9593 54.4733 69.2725 59.2305 69.2725Z" fill="#936037"/>
<path d="M62.3347 94.9607C64.8496 94.9607 66.9218 94.0955 68.5514 92.3652L70 93.8174C69.0544 94.868 67.9177 95.661 66.5898 96.1966C65.262 96.7322 63.8034 97 62.214 97C60.4636 97 58.8441 96.6601 57.3553 95.9803C55.8665 95.28 54.6091 94.3118 53.583 93.0758C52.577 91.8399 51.8829 90.4185 51.5007 88.8118H48V87.4522H51.2593C51.1989 86.9785 51.1687 86.4944 51.1687 86C51.1687 85.485 51.1989 85.0009 51.2593 84.5478H48V83.1882H51.5007C51.8829 81.5815 52.577 80.1601 53.583 78.9242C54.6091 77.6882 55.8665 76.7303 57.3553 76.0506C58.8441 75.3502 60.4636 75 62.214 75C63.8034 75 65.262 75.2678 66.5898 75.8034C67.9177 76.339 69.0544 77.1217 70 78.1517L68.5514 79.6039C66.9017 77.8942 64.8294 77.0393 62.3347 77.0393C60.2826 77.0393 58.4819 77.6058 56.9328 78.7388C55.4037 79.8717 54.3676 81.3549 53.8244 83.1882H64.1756V84.5478H53.4925C53.4321 85.0009 53.4019 85.485 53.4019 86C53.4019 86.4944 53.4321 86.9785 53.4925 87.4522H64.1756V88.8118H53.8244C54.3676 90.6451 55.4037 92.1283 56.9328 93.2612C58.4819 94.3942 60.2826 94.9607 62.3347 94.9607Z" fill="#1D1D1B" fill-opacity="0.14"/>
<path d="M148.812 74L142.515 65C141.807 65.08 141.072 65.12 140.311 65.12H132.912V74H130V46H140.311C143.827 46 146.582 46.8533 148.576 48.56C150.57 50.2667 151.567 52.6133 151.567 55.6C151.567 57.7867 151.016 59.64 149.914 61.16C148.838 62.6533 147.29 63.7333 145.27 64.4L152 74H148.812ZM140.233 62.6C142.961 62.6 145.047 61.9867 146.49 60.76C147.933 59.5333 148.655 57.8133 148.655 55.6C148.655 53.3333 147.933 51.6 146.49 50.4C145.047 49.1733 142.961 48.56 140.233 48.56H132.912V62.6H140.233Z" fill="#936037"/>
<path d="M114.503 74C112.647 74 110.907 73.6343 109.277 72.9086C107.647 72.1829 106.209 71.1771 104.973 69.8914C103.732 68.6057 102.763 67.12 102.056 65.4286C101.348 63.7371 101 61.9314 101 60C101 58.0686 101.354 56.2629 102.056 54.5714C102.757 52.88 103.732 51.3943 104.973 50.1086C106.214 48.8229 107.647 47.8171 109.277 47.0914C110.907 46.3657 112.647 46 114.503 46C116.359 46 118.116 46.3657 119.746 47.0914C121.376 47.8171 122.815 48.8229 124.05 50.1086C125.291 51.3943 126.26 52.88 126.956 54.5714C127.652 56.2629 128 58.0686 128 60C128 61.9314 127.652 63.7371 126.956 65.4286C126.26 67.12 125.291 68.6057 124.05 69.8914C122.809 71.1771 121.376 72.1829 119.746 72.9086C118.116 73.6343 116.365 74 114.503 74ZM114.503 70.76C115.924 70.76 117.252 70.48 118.488 69.9143C119.723 69.3486 120.802 68.5657 121.736 67.5714C122.67 66.5771 123.4 65.4343 123.928 64.1371C124.456 62.8457 124.723 61.4686 124.723 60C124.723 58.5314 124.456 57.1486 123.922 55.8457C123.389 54.5429 122.652 53.3943 121.724 52.4114C120.79 51.4286 119.706 50.6514 118.476 50.0857C117.241 49.52 115.924 49.24 114.515 49.24C113.105 49.24 111.765 49.52 110.53 50.0857C109.294 50.6514 108.215 51.4343 107.282 52.4286C106.348 53.4229 105.617 54.5657 105.089 55.8629C104.561 57.1543 104.295 58.5314 104.295 60C104.295 61.4686 104.561 62.8686 105.095 64.1657C105.629 65.4629 106.365 66.6057 107.293 67.6C108.227 68.5886 109.312 69.3657 110.541 69.9257C111.777 70.4857 113.093 70.7657 114.503 70.7657V70.76Z" fill="#936037"/>
<rect x="160.394" y="69.6682" width="3.69714" height="3.69714" fill="#936037"/>
<path d="M159.331 43.7881H165.943L171.486 69.6681H153L159.331 43.7881Z" fill="#346928"/>
<path d="M162.35 28.9999L165.755 42.016H159.285L162.35 28.9999Z" fill="#346928"/>
<path d="M203 32V73.7189H198.917V67.8715C197.637 69.8581 195.936 71.3762 193.814 72.4257C191.733 73.4752 189.371 74 186.73 74C183.768 74 181.086 73.3628 178.685 72.0884C176.283 70.8139 174.402 69.0335 173.041 66.747C171.68 64.4605 171 61.8554 171 58.9317C171 56.008 171.68 53.4029 173.041 51.1165C174.402 48.83 176.283 47.0683 178.685 45.8313C181.086 44.5569 183.768 43.9197 186.73 43.9197C189.291 43.9197 191.593 44.4257 193.634 45.4378C195.715 46.4123 197.417 47.8554 198.737 49.7671V32H203ZM187.09 70.4578C189.291 70.4578 191.273 69.9893 193.034 69.0522C194.835 68.0776 196.236 66.7095 197.236 64.9478C198.277 63.1861 198.797 61.1807 198.797 58.9317C198.797 56.6827 198.277 54.6774 197.236 52.9157C196.236 51.1539 194.835 49.8046 193.034 48.8675C191.273 47.8929 189.291 47.4056 187.09 47.4056C184.849 47.4056 182.827 47.8929 181.026 48.8675C179.265 49.8046 177.864 51.1539 176.824 52.9157C175.823 54.6774 175.323 56.6827 175.323 58.9317C175.323 61.1807 175.823 63.1861 176.824 64.9478C177.864 66.7095 179.265 68.0776 181.026 69.0522C182.827 69.9893 184.849 70.4578 187.09 70.4578Z" fill="#936037"/>
<path d="M125.088 70L117.36 79.6429C116.49 79.5571 115.589 79.5143 114.655 79.5143H105.574V70H102V100H114.655C118.97 100 122.351 99.0857 124.798 97.2571C127.245 95.4286 128.469 92.9143 128.469 89.7143C128.469 87.3714 127.792 85.3857 126.44 83.7571C125.12 82.1571 123.22 81 120.741 80.2857L129 70H125.088ZM114.558 82.2143C117.907 82.2143 120.467 82.8714 122.238 84.1857C124.009 85.5 124.894 87.3429 124.894 89.7143C124.894 92.1429 124.009 94 122.238 95.2857C120.467 96.6 117.907 97.2571 114.558 97.2571H105.574V82.2143H114.558Z" fill="#1D1D1B" fill-opacity="0.14"/>
</svg>
