<svg width="26" height="26" viewBox="0 0 26 26" fill="none" xmlns="http://www.w3.org/2000/svg">
<path d="M3.93652 16.7441C3.97768 16.7481 4.01906 16.7499 4.06055 16.75H4.37402V17.0625C4.37402 17.4106 4.51265 17.7451 4.75879 17.9912C5.00482 18.2372 5.33861 18.3749 5.68652 18.375H5.99902V18.6875C5.99902 19.0356 6.13766 19.3701 6.38379 19.6162C6.62983 19.8622 6.96361 19.9999 7.31152 20H7.62402V20.3125C7.62402 20.6606 7.76266 20.9951 8.00879 21.2412C8.25484 21.4872 8.5886 21.6249 8.93652 21.625H9.24902V21.9385C9.24911 21.9792 9.25104 22.0202 9.25488 22.0605L9.15723 22.1602C9.12769 22.1889 9.09302 22.2123 9.05469 22.2275H9.05371L0.928711 25.4775C0.871995 25.5002 0.809843 25.5054 0.75 25.4932C0.690086 25.4809 0.635046 25.4515 0.591797 25.4082C0.548546 25.365 0.519128 25.3099 0.506836 25.25C0.500693 25.22 0.498228 25.1894 0.500977 25.1592L0.522461 25.0713L3.77246 16.9463V16.9453C3.78804 16.906 3.81202 16.8698 3.8418 16.8398L3.84082 16.8389L3.93652 16.7441ZM21.2285 10.0869L11.6826 19.6328C11.6286 19.5437 11.5651 19.4597 11.4902 19.3848C11.2441 19.1386 10.9096 19 10.5615 19H10.249V18.6875C10.2489 18.3396 10.1112 18.0058 9.86523 17.7598C9.6191 17.5136 9.28462 17.375 8.93652 17.375H8.62402V17.0625C8.62391 16.7146 8.4862 16.3808 8.24023 16.1348C7.9941 15.8886 7.65961 15.75 7.31152 15.75H6.99902V15.4375C6.99891 15.0896 6.86122 14.7558 6.61523 14.5098C6.53982 14.4343 6.455 14.3707 6.36523 14.3164L15.9121 4.77051L21.2285 10.0869ZM20.3125 0.5C20.3952 0.500103 20.4747 0.533309 20.5332 0.591797L25.4082 5.4668C25.4373 5.49582 25.4608 5.53039 25.4766 5.56836C25.4923 5.60626 25.5 5.64744 25.5 5.68848C25.4999 5.72932 25.4922 5.76988 25.4766 5.80762C25.4687 5.82668 25.4587 5.84525 25.4473 5.8623L25.4082 5.90918L23.084 8.23047L17.7676 2.91406L20.0908 0.591797C20.1494 0.533216 20.2297 0.5 20.3125 0.5Z" fill="white" stroke="black"/>
</svg>
