<svg width="304" height="112" viewBox="0 0 304 112" fill="none" xmlns="http://www.w3.org/2000/svg">
<mask id="path-1-outside-1_294_2746" maskUnits="userSpaceOnUse" x="1" y="62" width="303" height="48" fill="black">
<rect fill="white" x="1" y="62" width="303" height="48"/>
<path d="M22.0889 65.824C26.0889 65.824 29.2089 67.088 31.4489 69.616C33.6889 72.112 34.8089 75.68 34.8089 80.32V100H27.0329V80.56C27.0329 77.872 26.3929 75.856 25.1129 74.512C23.8649 73.136 22.1209 72.448 19.8809 72.448C17.5129 72.448 15.6089 73.184 14.1689 74.656C12.7609 76.096 12.0569 78.24 12.0569 81.088V100H4.28088V66.4H11.8169V70.48C12.9689 68.944 14.4089 67.792 16.1369 67.024C17.8649 66.224 19.8489 65.824 22.0889 65.824ZM58.756 100.576C55.268 100.576 52.116 99.824 49.3 98.32C46.516 96.816 44.324 94.752 42.724 92.128C41.156 89.472 40.372 86.496 40.372 83.2C40.372 79.904 41.156 76.944 42.724 74.32C44.324 71.664 46.516 69.584 49.3 68.08C52.116 66.576 55.268 65.824 58.756 65.824C62.244 65.824 65.38 66.576 68.164 68.08C70.948 69.584 73.14 71.664 74.74 74.32C76.34 76.944 77.14 79.904 77.14 83.2C77.14 86.496 76.34 89.472 74.74 92.128C73.14 94.752 70.948 96.816 68.164 98.32C65.38 99.824 62.244 100.576 58.756 100.576ZM58.756 93.952C60.74 93.952 62.532 93.504 64.132 92.608C65.732 91.68 66.98 90.4 67.876 88.768C68.804 87.136 69.268 85.28 69.268 83.2C69.268 81.12 68.804 79.264 67.876 77.632C66.98 76 65.732 74.736 64.132 73.84C62.532 72.912 60.74 72.448 58.756 72.448C56.772 72.448 54.98 72.912 53.38 73.84C51.78 74.736 50.516 76 49.588 77.632C48.692 79.264 48.244 81.12 48.244 83.2C48.244 85.28 48.692 87.136 49.588 88.768C50.516 90.4 51.78 91.68 53.38 92.608C54.98 93.504 56.772 93.952 58.756 93.952ZM121.336 65.824C125.304 65.824 128.392 66.992 130.6 69.328C132.808 71.632 133.912 74.976 133.912 79.36V100H126.136V79.6C126.136 77.232 125.512 75.456 124.264 74.272C123.048 73.056 121.432 72.448 119.416 72.448C117.208 72.448 115.448 73.088 114.136 74.368C112.824 75.616 112.168 77.52 112.168 80.08V100H104.392V79.6C104.392 77.232 103.816 75.456 102.664 74.272C101.512 73.056 99.944 72.448 97.96 72.448C95.784 72.448 94.04 73.088 92.728 74.368C91.416 75.616 90.76 77.52 90.76 80.08V100H82.984V66.4H90.52V70.528C91.544 69.024 92.904 67.872 94.6 67.072C96.296 66.24 98.248 65.824 100.456 65.824C102.76 65.824 104.776 66.256 106.504 67.12C108.232 67.952 109.56 69.168 110.488 70.768C111.64 69.168 113.144 67.952 115 67.12C116.888 66.256 119 65.824 121.336 65.824ZM153.098 72.64V93.76H158.906V100H139.466V93.76H145.322V72.64H139.466V66.4H158.906V72.64H153.098ZM199.203 83.2C199.203 86.08 198.595 88.72 197.379 91.12C196.163 93.488 194.451 95.472 192.243 97.072C190.067 98.672 187.555 99.728 184.707 100.24V106.48H176.883V100.24C174.067 99.728 171.555 98.672 169.347 97.072C167.171 95.472 165.475 93.472 164.259 91.072C163.043 88.672 162.435 86.048 162.435 83.2C162.435 79.904 163.219 76.944 164.787 74.32C166.387 71.664 168.579 69.584 171.363 68.08C174.179 66.576 177.331 65.824 180.819 65.824C184.307 65.824 187.443 66.576 190.227 68.08C193.011 69.584 195.203 71.664 196.803 74.32C198.403 76.944 199.203 79.904 199.203 83.2ZM184.371 93.424C186.515 92.752 188.211 91.52 189.459 89.728C190.707 87.904 191.331 85.728 191.331 83.2C191.331 81.12 190.867 79.264 189.939 77.632C189.043 76 187.795 74.736 186.195 73.84C184.595 72.912 182.803 72.448 180.819 72.448C178.835 72.448 177.043 72.912 175.443 73.84C173.843 74.736 172.579 76 171.651 77.632C170.755 79.264 170.307 81.12 170.307 83.2C170.307 85.728 170.915 87.888 172.131 89.68C173.379 91.472 175.059 92.72 177.171 93.424V86.512H184.371V93.424ZM235.095 66.4V100H227.559V95.92C225.255 99.024 221.863 100.576 217.383 100.576C213.415 100.576 210.311 99.328 208.071 96.832C205.863 94.304 204.759 90.72 204.759 86.08V66.4H212.535V85.84C212.535 88.528 213.159 90.56 214.407 91.936C215.687 93.28 217.415 93.952 219.591 93.952C221.927 93.952 223.799 93.232 225.207 91.792C226.615 90.32 227.319 88.16 227.319 85.312V66.4H235.095ZM270.518 97.12C268.918 98.208 266.902 99.056 264.47 99.664C262.07 100.272 259.51 100.576 256.79 100.576C253.398 100.576 250.518 100.16 248.15 99.328C245.782 98.464 243.99 97.28 242.774 95.776C241.558 94.24 240.95 92.496 240.95 90.544C240.95 88.752 241.446 87.168 242.438 85.792C243.43 84.416 244.79 83.392 246.518 82.72C245.206 82.016 244.182 81.056 243.446 79.84C242.742 78.624 242.39 77.264 242.39 75.76C242.39 73.936 242.95 72.272 244.07 70.768C245.19 69.264 246.886 68.064 249.158 67.168C251.43 66.272 254.214 65.824 257.51 65.824C259.686 65.824 261.814 66.048 263.894 66.496C265.974 66.912 267.782 67.488 269.318 68.224L267.158 74.176C264.214 72.8 261.094 72.112 257.798 72.112C255.302 72.112 253.414 72.496 252.134 73.264C250.886 74 250.262 75.008 250.262 76.288C250.262 77.472 250.678 78.384 251.51 79.024C252.374 79.632 253.67 79.936 255.398 79.936H264.566V86.08H254.918C252.966 86.08 251.462 86.416 250.406 87.088C249.35 87.76 248.822 88.736 248.822 90.016C248.822 91.36 249.494 92.416 250.838 93.184C252.214 93.92 254.31 94.288 257.126 94.288C259.11 94.288 261.094 94.032 263.078 93.52C265.062 92.976 266.742 92.224 268.118 91.264L270.518 97.12ZM286.118 100.576C283.462 100.576 280.886 100.224 278.39 99.52C275.926 98.784 273.942 97.84 272.438 96.688L275.078 90.832C276.518 91.888 278.23 92.736 280.214 93.376C282.198 94.016 284.182 94.336 286.166 94.336C288.374 94.336 290.006 94.016 291.062 93.376C292.118 92.704 292.646 91.824 292.646 90.736C292.646 89.936 292.326 89.28 291.686 88.768C291.078 88.224 290.278 87.792 289.286 87.472C288.326 87.152 287.014 86.8 285.35 86.416C282.79 85.808 280.694 85.2 279.062 84.592C277.43 83.984 276.022 83.008 274.838 81.664C273.686 80.32 273.11 78.528 273.11 76.288C273.11 74.336 273.638 72.576 274.694 71.008C275.75 69.408 277.334 68.144 279.446 67.216C281.59 66.288 284.198 65.824 287.27 65.824C289.414 65.824 291.51 66.08 293.558 66.592C295.606 67.104 297.398 67.84 298.934 68.8L296.534 74.704C293.43 72.944 290.326 72.064 287.222 72.064C285.046 72.064 283.43 72.416 282.374 73.12C281.35 73.824 280.838 74.752 280.838 75.904C280.838 77.056 281.43 77.92 282.614 78.496C283.83 79.04 285.67 79.584 288.134 80.128C290.694 80.736 292.79 81.344 294.422 81.952C296.054 82.56 297.446 83.52 298.598 84.832C299.782 86.144 300.374 87.92 300.374 90.16C300.374 92.08 299.83 93.84 298.742 95.44C297.686 97.008 296.086 98.256 293.942 99.184C291.798 100.112 289.19 100.576 286.118 100.576Z"/>
</mask>
<path d="M22.0889 65.824C26.0889 65.824 29.2089 67.088 31.4489 69.616C33.6889 72.112 34.8089 75.68 34.8089 80.32V100H27.0329V80.56C27.0329 77.872 26.3929 75.856 25.1129 74.512C23.8649 73.136 22.1209 72.448 19.8809 72.448C17.5129 72.448 15.6089 73.184 14.1689 74.656C12.7609 76.096 12.0569 78.24 12.0569 81.088V100H4.28088V66.4H11.8169V70.48C12.9689 68.944 14.4089 67.792 16.1369 67.024C17.8649 66.224 19.8489 65.824 22.0889 65.824ZM58.756 100.576C55.268 100.576 52.116 99.824 49.3 98.32C46.516 96.816 44.324 94.752 42.724 92.128C41.156 89.472 40.372 86.496 40.372 83.2C40.372 79.904 41.156 76.944 42.724 74.32C44.324 71.664 46.516 69.584 49.3 68.08C52.116 66.576 55.268 65.824 58.756 65.824C62.244 65.824 65.38 66.576 68.164 68.08C70.948 69.584 73.14 71.664 74.74 74.32C76.34 76.944 77.14 79.904 77.14 83.2C77.14 86.496 76.34 89.472 74.74 92.128C73.14 94.752 70.948 96.816 68.164 98.32C65.38 99.824 62.244 100.576 58.756 100.576ZM58.756 93.952C60.74 93.952 62.532 93.504 64.132 92.608C65.732 91.68 66.98 90.4 67.876 88.768C68.804 87.136 69.268 85.28 69.268 83.2C69.268 81.12 68.804 79.264 67.876 77.632C66.98 76 65.732 74.736 64.132 73.84C62.532 72.912 60.74 72.448 58.756 72.448C56.772 72.448 54.98 72.912 53.38 73.84C51.78 74.736 50.516 76 49.588 77.632C48.692 79.264 48.244 81.12 48.244 83.2C48.244 85.28 48.692 87.136 49.588 88.768C50.516 90.4 51.78 91.68 53.38 92.608C54.98 93.504 56.772 93.952 58.756 93.952ZM121.336 65.824C125.304 65.824 128.392 66.992 130.6 69.328C132.808 71.632 133.912 74.976 133.912 79.36V100H126.136V79.6C126.136 77.232 125.512 75.456 124.264 74.272C123.048 73.056 121.432 72.448 119.416 72.448C117.208 72.448 115.448 73.088 114.136 74.368C112.824 75.616 112.168 77.52 112.168 80.08V100H104.392V79.6C104.392 77.232 103.816 75.456 102.664 74.272C101.512 73.056 99.944 72.448 97.96 72.448C95.784 72.448 94.04 73.088 92.728 74.368C91.416 75.616 90.76 77.52 90.76 80.08V100H82.984V66.4H90.52V70.528C91.544 69.024 92.904 67.872 94.6 67.072C96.296 66.24 98.248 65.824 100.456 65.824C102.76 65.824 104.776 66.256 106.504 67.12C108.232 67.952 109.56 69.168 110.488 70.768C111.64 69.168 113.144 67.952 115 67.12C116.888 66.256 119 65.824 121.336 65.824ZM153.098 72.64V93.76H158.906V100H139.466V93.76H145.322V72.64H139.466V66.4H158.906V72.64H153.098ZM199.203 83.2C199.203 86.08 198.595 88.72 197.379 91.12C196.163 93.488 194.451 95.472 192.243 97.072C190.067 98.672 187.555 99.728 184.707 100.24V106.48H176.883V100.24C174.067 99.728 171.555 98.672 169.347 97.072C167.171 95.472 165.475 93.472 164.259 91.072C163.043 88.672 162.435 86.048 162.435 83.2C162.435 79.904 163.219 76.944 164.787 74.32C166.387 71.664 168.579 69.584 171.363 68.08C174.179 66.576 177.331 65.824 180.819 65.824C184.307 65.824 187.443 66.576 190.227 68.08C193.011 69.584 195.203 71.664 196.803 74.32C198.403 76.944 199.203 79.904 199.203 83.2ZM184.371 93.424C186.515 92.752 188.211 91.52 189.459 89.728C190.707 87.904 191.331 85.728 191.331 83.2C191.331 81.12 190.867 79.264 189.939 77.632C189.043 76 187.795 74.736 186.195 73.84C184.595 72.912 182.803 72.448 180.819 72.448C178.835 72.448 177.043 72.912 175.443 73.84C173.843 74.736 172.579 76 171.651 77.632C170.755 79.264 170.307 81.12 170.307 83.2C170.307 85.728 170.915 87.888 172.131 89.68C173.379 91.472 175.059 92.72 177.171 93.424V86.512H184.371V93.424ZM235.095 66.4V100H227.559V95.92C225.255 99.024 221.863 100.576 217.383 100.576C213.415 100.576 210.311 99.328 208.071 96.832C205.863 94.304 204.759 90.72 204.759 86.08V66.4H212.535V85.84C212.535 88.528 213.159 90.56 214.407 91.936C215.687 93.28 217.415 93.952 219.591 93.952C221.927 93.952 223.799 93.232 225.207 91.792C226.615 90.32 227.319 88.16 227.319 85.312V66.4H235.095ZM270.518 97.12C268.918 98.208 266.902 99.056 264.47 99.664C262.07 100.272 259.51 100.576 256.79 100.576C253.398 100.576 250.518 100.16 248.15 99.328C245.782 98.464 243.99 97.28 242.774 95.776C241.558 94.24 240.95 92.496 240.95 90.544C240.95 88.752 241.446 87.168 242.438 85.792C243.43 84.416 244.79 83.392 246.518 82.72C245.206 82.016 244.182 81.056 243.446 79.84C242.742 78.624 242.39 77.264 242.39 75.76C242.39 73.936 242.95 72.272 244.07 70.768C245.19 69.264 246.886 68.064 249.158 67.168C251.43 66.272 254.214 65.824 257.51 65.824C259.686 65.824 261.814 66.048 263.894 66.496C265.974 66.912 267.782 67.488 269.318 68.224L267.158 74.176C264.214 72.8 261.094 72.112 257.798 72.112C255.302 72.112 253.414 72.496 252.134 73.264C250.886 74 250.262 75.008 250.262 76.288C250.262 77.472 250.678 78.384 251.51 79.024C252.374 79.632 253.67 79.936 255.398 79.936H264.566V86.08H254.918C252.966 86.08 251.462 86.416 250.406 87.088C249.35 87.76 248.822 88.736 248.822 90.016C248.822 91.36 249.494 92.416 250.838 93.184C252.214 93.92 254.31 94.288 257.126 94.288C259.11 94.288 261.094 94.032 263.078 93.52C265.062 92.976 266.742 92.224 268.118 91.264L270.518 97.12ZM286.118 100.576C283.462 100.576 280.886 100.224 278.39 99.52C275.926 98.784 273.942 97.84 272.438 96.688L275.078 90.832C276.518 91.888 278.23 92.736 280.214 93.376C282.198 94.016 284.182 94.336 286.166 94.336C288.374 94.336 290.006 94.016 291.062 93.376C292.118 92.704 292.646 91.824 292.646 90.736C292.646 89.936 292.326 89.28 291.686 88.768C291.078 88.224 290.278 87.792 289.286 87.472C288.326 87.152 287.014 86.8 285.35 86.416C282.79 85.808 280.694 85.2 279.062 84.592C277.43 83.984 276.022 83.008 274.838 81.664C273.686 80.32 273.11 78.528 273.11 76.288C273.11 74.336 273.638 72.576 274.694 71.008C275.75 69.408 277.334 68.144 279.446 67.216C281.59 66.288 284.198 65.824 287.27 65.824C289.414 65.824 291.51 66.08 293.558 66.592C295.606 67.104 297.398 67.84 298.934 68.8L296.534 74.704C293.43 72.944 290.326 72.064 287.222 72.064C285.046 72.064 283.43 72.416 282.374 73.12C281.35 73.824 280.838 74.752 280.838 75.904C280.838 77.056 281.43 77.92 282.614 78.496C283.83 79.04 285.67 79.584 288.134 80.128C290.694 80.736 292.79 81.344 294.422 81.952C296.054 82.56 297.446 83.52 298.598 84.832C299.782 86.144 300.374 87.92 300.374 90.16C300.374 92.08 299.83 93.84 298.742 95.44C297.686 97.008 296.086 98.256 293.942 99.184C291.798 100.112 289.19 100.576 286.118 100.576Z" fill="white"/>
<path d="M31.4489 69.616L29.2035 71.6056L29.2098 71.6127L29.2162 71.6197L31.4489 69.616ZM34.8089 100V103H37.8089V100H34.8089ZM27.0329 100H24.0329V103H27.0329V100ZM25.1129 74.512L22.8907 76.5274L22.9153 76.5545L22.9405 76.581L25.1129 74.512ZM14.1689 74.656L12.0244 72.5581L12.0239 72.5586L14.1689 74.656ZM12.0569 100V103H15.0569V100H12.0569ZM4.28088 100H1.28088V103H4.28088V100ZM4.28088 66.4V63.4H1.28088V66.4H4.28088ZM11.8169 66.4H14.8169V63.4H11.8169V66.4ZM11.8169 70.48H8.81688V79.48L14.2169 72.28L11.8169 70.48ZM16.1369 67.024L17.3553 69.7654L17.3763 69.7561L17.3972 69.7464L16.1369 67.024ZM22.0889 65.824V68.824C25.4037 68.824 27.6386 69.8394 29.2035 71.6056L31.4489 69.616L33.6942 67.6264C30.7792 64.3366 26.774 62.824 22.0889 62.824V65.824ZM31.4489 69.616L29.2162 71.6197C30.8003 73.385 31.8089 76.1351 31.8089 80.32H34.8089H37.8089C37.8089 75.2249 36.5774 70.839 33.6816 67.6123L31.4489 69.616ZM34.8089 80.32H31.8089V100H34.8089H37.8089V80.32H34.8089ZM34.8089 100V97H27.0329V100V103H34.8089V100ZM27.0329 100H30.0329V80.56H27.0329H24.0329V100H27.0329ZM27.0329 80.56H30.0329C30.0329 77.4451 29.2937 74.5519 27.2853 72.443L25.1129 74.512L22.9405 76.581C23.492 77.1601 24.0329 78.2989 24.0329 80.56H27.0329ZM25.1129 74.512L27.335 72.4966C25.4026 70.366 22.7782 69.448 19.8809 69.448V72.448V75.448C21.4636 75.448 22.3271 75.906 22.8907 76.5274L25.1129 74.512ZM19.8809 72.448V69.448C16.8375 69.448 14.1147 70.4214 12.0244 72.5581L14.1689 74.656L16.3134 76.7539C17.1031 75.9466 18.1883 75.448 19.8809 75.448V72.448ZM14.1689 74.656L12.0239 72.5586C9.87515 74.7562 9.05688 77.7832 9.05688 81.088H12.0569H15.0569C15.0569 78.6968 15.6466 77.4358 16.3139 76.7534L14.1689 74.656ZM12.0569 81.088H9.05688V100H12.0569H15.0569V81.088H12.0569ZM12.0569 100V97H4.28088V100V103H12.0569V100ZM4.28088 100H7.28088V66.4H4.28088H1.28088V100H4.28088ZM4.28088 66.4V69.4H11.8169V66.4V63.4H4.28088V66.4ZM11.8169 66.4H8.81688V70.48H11.8169H14.8169V66.4H11.8169ZM11.8169 70.48L14.2169 72.28C15.0667 71.1469 16.1025 70.3222 17.3553 69.7654L16.1369 67.024L14.9185 64.2826C12.7153 65.2618 10.871 66.7411 9.41688 68.68L11.8169 70.48ZM16.1369 67.024L17.3972 69.7464C18.6666 69.1587 20.2081 68.824 22.0889 68.824V65.824V62.824C19.4896 62.824 17.0632 63.2893 14.8765 64.3016L16.1369 67.024ZM49.3 98.32L47.8741 100.959L47.8804 100.963L47.8867 100.966L49.3 98.32ZM42.724 92.128L40.1406 93.6531L40.1515 93.6716L40.1626 93.6898L42.724 92.128ZM42.724 74.32L40.1542 72.772L40.1488 72.7811L42.724 74.32ZM49.3 68.08L47.8867 65.4338L47.8804 65.4371L47.8741 65.4405L49.3 68.08ZM74.74 74.32L72.1703 75.868L72.1744 75.8749L72.1786 75.8818L74.74 74.32ZM74.74 92.128L77.3014 93.6898L77.3056 93.6829L77.3097 93.676L74.74 92.128ZM68.164 98.32L69.5899 100.959L68.164 98.32ZM64.132 92.608L65.5978 95.2255L65.6176 95.2145L65.6372 95.2031L64.132 92.608ZM67.876 88.768L65.2681 87.2851L65.2571 87.3046L65.2463 87.3242L67.876 88.768ZM67.876 77.632L65.2463 79.0758L65.2571 79.0954L65.2681 79.1149L67.876 77.632ZM64.132 73.84L62.6268 76.4351L62.6464 76.4465L62.6662 76.4575L64.132 73.84ZM53.38 73.84L54.8458 76.4575L54.8656 76.4465L54.8852 76.4351L53.38 73.84ZM49.588 77.632L46.9801 76.1491L46.9691 76.1686L46.9583 76.1882L49.588 77.632ZM49.588 88.768L46.9583 90.2118L46.9691 90.2314L46.9801 90.2509L49.588 88.768ZM53.38 92.608L51.8748 95.2031L51.8944 95.2145L51.9142 95.2255L53.38 92.608ZM58.756 100.576V97.576C55.7144 97.576 53.0551 96.9245 50.7133 95.6738L49.3 98.32L47.8867 100.966C51.1769 102.724 54.8216 103.576 58.756 103.576V100.576ZM49.3 98.32L50.7259 95.6805C48.3946 94.4211 46.6005 92.723 45.2854 90.5662L42.724 92.128L40.1626 93.6898C42.0475 96.781 44.6374 99.2109 47.8741 100.959L49.3 98.32ZM42.724 92.128L45.3074 90.6029C44.0309 88.4407 43.372 85.9977 43.372 83.2H40.372H37.372C37.372 86.9943 38.2811 90.5033 40.1406 93.6531L42.724 92.128ZM40.372 83.2H43.372C43.372 80.402 44.0309 77.9814 45.2992 75.8589L42.724 74.32L40.1488 72.7811C38.2811 75.9066 37.372 79.406 37.372 83.2H40.372ZM42.724 74.32L45.2937 75.868C46.611 73.6814 48.4038 71.974 50.7259 70.7195L49.3 68.08L47.8741 65.4405C44.6282 67.194 42.037 69.6466 40.1543 72.772L42.724 74.32ZM49.3 68.08L50.7133 70.7262C53.0551 69.4755 55.7144 68.824 58.756 68.824V65.824V62.824C54.8216 62.824 51.1769 63.6765 47.8867 65.4338L49.3 68.08ZM58.756 65.824V68.824C61.7981 68.824 64.4357 69.4756 66.7381 70.7195L68.164 68.08L69.5899 65.4405C66.3243 63.6764 62.6899 62.824 58.756 62.824V65.824ZM68.164 68.08L66.7381 70.7195C69.0602 71.974 70.853 73.6814 72.1703 75.868L74.74 74.32L77.3097 72.772C75.427 69.6466 72.8358 67.194 69.5899 65.4405L68.164 68.08ZM74.74 74.32L72.1786 75.8818C73.4709 78.0012 74.14 80.4135 74.14 83.2H77.14H80.14C80.14 79.3945 79.2091 75.8868 77.3014 72.7582L74.74 74.32ZM77.14 83.2H74.14C74.14 85.9862 73.4709 88.421 72.1703 90.58L74.74 92.128L77.3097 93.676C79.2091 90.523 80.14 87.0058 80.14 83.2H77.14ZM74.74 92.128L72.1786 90.5662C70.8635 92.723 69.0694 94.4211 66.7381 95.6805L68.164 98.32L69.5899 100.959C72.8266 99.2109 75.4165 96.781 77.3014 93.6898L74.74 92.128ZM68.164 98.32L66.7381 95.6805C64.4357 96.9244 61.7981 97.576 58.756 97.576V100.576V103.576C62.6899 103.576 66.3243 102.724 69.5899 100.959L68.164 98.32ZM58.756 93.952V96.952C61.21 96.952 63.5137 96.3926 65.5978 95.2255L64.132 92.608L62.6662 89.9905C61.5503 90.6154 60.27 90.952 58.756 90.952V93.952ZM64.132 92.608L65.6372 95.2031C67.7131 93.999 69.3486 92.3195 70.5057 90.2118L67.876 88.768L65.2463 87.3242C64.6114 88.4805 63.7509 89.361 62.6268 90.0129L64.132 92.608ZM67.876 88.768L70.4839 90.2509C71.6959 88.1195 72.268 85.7425 72.268 83.2H69.268H66.268C66.268 84.8175 65.9122 86.1525 65.2681 87.2851L67.876 88.768ZM69.268 83.2H72.268C72.268 80.6575 71.6959 78.2805 70.4839 76.1491L67.876 77.632L65.2681 79.1149C65.9122 80.2475 66.268 81.5825 66.268 83.2H69.268ZM67.876 77.632L70.5057 76.1882C69.3437 74.0716 67.6959 72.3974 65.5978 71.2225L64.132 73.84L62.6662 76.4575C63.7681 77.0746 64.6163 77.9284 65.2463 79.0758L67.876 77.632ZM64.132 73.84L65.6372 71.2449C63.5467 70.0324 61.2289 69.448 58.756 69.448V72.448V75.448C60.2511 75.448 61.5173 75.7916 62.6268 76.4351L64.132 73.84ZM58.756 72.448V69.448C56.2831 69.448 53.9653 70.0324 51.8748 71.2449L53.38 73.84L54.8852 76.4351C55.9947 75.7916 57.2609 75.448 58.756 75.448V72.448ZM53.38 73.84L51.9142 71.2225C49.8255 72.3922 48.1716 74.0538 46.9801 76.1491L49.588 77.632L52.1959 79.1149C52.8604 77.9462 53.7345 77.0798 54.8458 76.4575L53.38 73.84ZM49.588 77.632L46.9583 76.1882C45.7919 78.3126 45.244 80.6755 45.244 83.2H48.244H51.244C51.244 81.5645 51.5921 80.2154 52.2177 79.0758L49.588 77.632ZM48.244 83.2H45.244C45.244 85.7245 45.7919 88.0874 46.9583 90.2118L49.588 88.768L52.2177 87.3242C51.5921 86.1846 51.244 84.8355 51.244 83.2H48.244ZM49.588 88.768L46.9801 90.2509C48.1666 92.3375 49.8081 94.0044 51.8748 95.2031L53.38 92.608L54.8852 90.0129C53.7519 89.3556 52.8654 88.4625 52.1959 87.2851L49.588 88.768ZM53.38 92.608L51.9142 95.2255C53.9983 96.3926 56.302 96.952 58.756 96.952V93.952V90.952C57.242 90.952 55.9617 90.6154 54.8458 89.9905L53.38 92.608ZM130.6 69.328L128.42 71.3887L128.427 71.3963L128.434 71.4037L130.6 69.328ZM133.912 100V103H136.912V100H133.912ZM126.136 100H123.136V103H126.136V100ZM124.264 74.272L122.143 76.3933L122.171 76.4212L122.199 76.4484L124.264 74.272ZM114.136 74.368L116.204 76.5417L116.217 76.5286L116.231 76.5153L114.136 74.368ZM112.168 100V103H115.168V100H112.168ZM104.392 100H101.392V103H104.392V100ZM102.664 74.272L100.486 76.3352L100.5 76.3497L100.514 76.3641L102.664 74.272ZM92.728 74.368L94.7956 76.5417L94.8094 76.5286L94.823 76.5153L92.728 74.368ZM90.76 100V103H93.76V100H90.76ZM82.984 100H79.984V103H82.984V100ZM82.984 66.4V63.4H79.984V66.4H82.984ZM90.52 66.4H93.52V63.4H90.52V66.4ZM90.52 70.528H87.52V80.2648L92.9998 72.2164L90.52 70.528ZM94.6 67.072L95.8799 69.7853L95.9006 69.7755L95.9213 69.7654L94.6 67.072ZM106.504 67.12L105.162 69.8033L105.182 69.8133L105.203 69.823L106.504 67.12ZM110.488 70.768L107.893 72.2732L110.217 76.2794L112.923 72.5209L110.488 70.768ZM115 67.12L116.227 69.8575L116.238 69.8528L116.248 69.8479L115 67.12ZM121.336 65.824V68.824C124.686 68.824 126.906 69.7877 128.42 71.3887L130.6 69.328L132.78 67.2672C129.878 64.1963 125.922 62.824 121.336 62.824V65.824ZM130.6 69.328L128.434 71.4037C129.933 72.9681 130.912 75.4559 130.912 79.36H133.912H136.912C136.912 74.4961 135.683 70.2958 132.766 67.2523L130.6 69.328ZM133.912 79.36H130.912V100H133.912H136.912V79.36H133.912ZM133.912 100V97H126.136V100V103H133.912V100ZM126.136 100H129.136V79.6H126.136H123.136V100H126.136ZM126.136 79.6H129.136C129.136 76.7281 128.371 74.0335 126.329 72.0956L124.264 74.272L122.199 76.4484C122.653 76.8785 123.136 77.7359 123.136 79.6H126.136ZM124.264 74.272L126.385 72.1507C124.51 70.2755 122.08 69.448 119.416 69.448V72.448V75.448C120.784 75.448 121.586 75.8365 122.143 76.3933L124.264 74.272ZM119.416 72.448V69.448C116.596 69.448 114.025 70.2854 112.041 72.2207L114.136 74.368L116.231 76.5153C116.871 75.8906 117.82 75.448 119.416 75.448V72.448ZM114.136 74.368L112.068 72.1943C109.95 74.2098 109.168 77.0448 109.168 80.08H112.168H115.168C115.168 77.9952 115.698 77.0222 116.204 76.5417L114.136 74.368ZM112.168 80.08H109.168V100H112.168H115.168V80.08H112.168ZM112.168 100V97H104.392V100V103H112.168V100ZM104.392 100H107.392V79.6H104.392H101.392V100H104.392ZM104.392 79.6H107.392C107.392 76.7899 106.709 74.1274 104.814 72.1799L102.664 74.272L100.514 76.3641C100.923 76.7846 101.392 77.6741 101.392 79.6H104.392ZM102.664 74.272L104.842 72.2088C103.019 70.2849 100.603 69.448 97.96 69.448V72.448V75.448C99.2849 75.448 100.005 75.8271 100.486 76.3352L102.664 74.272ZM97.96 72.448V69.448C95.1579 69.448 92.6083 70.2935 90.633 72.2207L92.728 74.368L94.823 76.5153C95.4717 75.8825 96.4101 75.448 97.96 75.448V72.448ZM92.728 74.368L90.6604 72.1943C88.5416 74.2098 87.76 77.0448 87.76 80.08H90.76H93.76C93.76 77.9952 94.2904 77.0222 94.7956 76.5417L92.728 74.368ZM90.76 80.08H87.76V100H90.76H93.76V80.08H90.76ZM90.76 100V97H82.984V100V103H90.76V100ZM82.984 100H85.984V66.4H82.984H79.984V100H82.984ZM82.984 66.4V69.4H90.52V66.4V63.4H82.984V66.4ZM90.52 66.4H87.52V70.528H90.52H93.52V66.4H90.52ZM90.52 70.528L92.9998 72.2164C93.7129 71.169 94.6526 70.3642 95.8799 69.7853L94.6 67.072L93.3201 64.3587C91.1554 65.3798 89.3751 66.879 88.0402 68.8396L90.52 70.528ZM94.6 67.072L95.9213 69.7654C97.142 69.1665 98.629 68.824 100.456 68.824V65.824V62.824C97.867 62.824 95.45 63.3135 93.2787 64.3786L94.6 67.072ZM100.456 65.824V68.824C102.383 68.824 103.924 69.184 105.162 69.8033L106.504 67.12L107.846 64.4367C105.628 63.328 103.137 62.824 100.456 62.824V65.824ZM106.504 67.12L105.203 69.823C106.41 70.4045 107.278 71.213 107.893 72.2732L110.488 70.768L113.083 69.2628C111.842 67.123 110.054 65.4995 107.805 64.417L106.504 67.12ZM110.488 70.768L112.923 72.5209C113.756 71.3637 114.837 70.4805 116.227 69.8575L115 67.12L113.773 64.3825C111.451 65.4235 109.524 66.9723 108.053 69.0151L110.488 70.768ZM115 67.12L116.248 69.8479C117.698 69.1844 119.377 68.824 121.336 68.824V65.824V62.824C118.623 62.824 116.078 63.3276 113.752 64.3921L115 67.12ZM153.098 72.64V69.64H150.098V72.64H153.098ZM153.098 93.76H150.098V96.76H153.098V93.76ZM158.906 93.76H161.906V90.76H158.906V93.76ZM158.906 100V103H161.906V100H158.906ZM139.466 100H136.466V103H139.466V100ZM139.466 93.76V90.76H136.466V93.76H139.466ZM145.322 93.76V96.76H148.322V93.76H145.322ZM145.322 72.64H148.322V69.64H145.322V72.64ZM139.466 72.64H136.466V75.64H139.466V72.64ZM139.466 66.4V63.4H136.466V66.4H139.466ZM158.906 66.4H161.906V63.4H158.906V66.4ZM158.906 72.64V75.64H161.906V72.64H158.906ZM153.098 72.64H150.098V93.76H153.098H156.098V72.64H153.098ZM153.098 93.76V96.76H158.906V93.76V90.76H153.098V93.76ZM158.906 93.76H155.906V100H158.906H161.906V93.76H158.906ZM158.906 100V97H139.466V100V103H158.906V100ZM139.466 100H142.466V93.76H139.466H136.466V100H139.466ZM139.466 93.76V96.76H145.322V93.76V90.76H139.466V93.76ZM145.322 93.76H148.322V72.64H145.322H142.322V93.76H145.322ZM145.322 72.64V69.64H139.466V72.64V75.64H145.322V72.64ZM139.466 72.64H142.466V66.4H139.466H136.466V72.64H139.466ZM139.466 66.4V69.4H158.906V66.4V63.4H139.466V66.4ZM158.906 66.4H155.906V72.64H158.906H161.906V66.4H158.906ZM158.906 72.64V69.64H153.098V72.64V75.64H158.906V72.64ZM197.379 91.12L200.047 92.4904L200.051 92.4832L200.055 92.4759L197.379 91.12ZM192.243 97.072L190.482 94.6428L190.474 94.6489L190.465 94.655L192.243 97.072ZM184.707 100.24L184.176 97.2873L181.707 97.7312V100.24H184.707ZM184.707 106.48V109.48H187.707V106.48H184.707ZM176.883 106.48H173.883V109.48H176.883V106.48ZM176.883 100.24H179.883V97.7363L177.419 97.2884L176.883 100.24ZM169.347 97.072L167.569 99.489L167.578 99.4951L167.586 99.5012L169.347 97.072ZM164.259 91.072L166.935 89.7161L166.935 89.7161L164.259 91.072ZM164.787 74.32L162.217 72.772L162.211 72.7811L164.787 74.32ZM171.363 68.08L169.949 65.4338L169.943 65.4371L169.937 65.4405L171.363 68.08ZM196.803 74.32L194.233 75.868L194.237 75.8749L194.241 75.8818L196.803 74.32ZM184.371 93.424H181.371V97.5082L185.268 96.2867L184.371 93.424ZM189.459 89.728L191.92 91.4425L191.927 91.4323L191.934 91.422L189.459 89.728ZM189.939 77.632L187.309 79.0758L187.32 79.0954L187.331 79.1149L189.939 77.632ZM186.195 73.84L184.689 76.4351L184.709 76.4465L184.729 76.4575L186.195 73.84ZM175.443 73.84L176.908 76.4575L176.928 76.4465L176.948 76.4351L175.443 73.84ZM171.651 77.632L169.043 76.1491L169.032 76.1686L169.021 76.1882L171.651 77.632ZM172.131 89.68L169.648 91.3645L169.658 91.3796L169.669 91.3945L172.131 89.68ZM177.171 93.424L176.222 96.27L180.171 97.5863V93.424H177.171ZM177.171 86.512V83.512H174.171V86.512H177.171ZM184.371 86.512H187.371V83.512H184.371V86.512ZM199.203 83.2H196.203C196.203 85.6429 195.691 87.8137 194.702 89.7641L197.379 91.12L200.055 92.4759C201.498 89.6263 202.203 86.5171 202.203 83.2H199.203ZM197.379 91.12L194.71 89.7496C193.715 91.6877 192.318 93.3124 190.482 94.6428L192.243 97.072L194.003 99.5012C196.583 97.6316 198.61 95.2883 200.047 92.4904L197.379 91.12ZM192.243 97.072L190.465 94.655C188.684 95.9645 186.606 96.8505 184.176 97.2873L184.707 100.24L185.237 103.193C188.503 102.606 191.449 101.379 194.02 99.489L192.243 97.072ZM184.707 100.24H181.707V106.48H184.707H187.707V100.24H184.707ZM184.707 106.48V103.48H176.883V106.48V109.48H184.707V106.48ZM176.883 106.48H179.883V100.24H176.883H173.883V106.48H176.883ZM176.883 100.24L177.419 97.2884C175.022 96.8526 172.933 95.9661 171.107 94.6428L169.347 97.072L167.586 99.5012C170.176 101.378 173.111 102.603 176.346 103.192L176.883 100.24ZM169.347 97.072L171.124 94.655C169.325 93.3323 167.937 91.6952 166.935 89.7161L164.259 91.072L161.582 92.4279C163.012 95.2488 165.016 97.6117 167.569 99.489L169.347 97.072ZM164.259 91.072L166.935 89.7161C165.944 87.7609 165.435 85.6052 165.435 83.2H162.435H159.435C159.435 86.4908 160.141 89.5831 161.582 92.4279L164.259 91.072ZM162.435 83.2H165.435C165.435 80.402 166.093 77.9814 167.362 75.8589L164.787 74.32L162.211 72.7811C160.344 75.9066 159.435 79.406 159.435 83.2H162.435ZM164.787 74.32L167.356 75.868C168.674 73.6814 170.466 71.974 172.788 70.7195L171.363 68.08L169.937 65.4405C166.691 67.194 164.099 69.6466 162.217 72.772L164.787 74.32ZM171.363 68.08L172.776 70.7262C175.118 69.4755 177.777 68.824 180.819 68.824V65.824V62.824C176.884 62.824 173.239 63.6765 169.949 65.4338L171.363 68.08ZM180.819 65.824V68.824C183.861 68.824 186.498 69.4756 188.801 70.7195L190.227 68.08L191.652 65.4405C188.387 63.6764 184.752 62.824 180.819 62.824V65.824ZM190.227 68.08L188.801 70.7195C191.123 71.974 192.915 73.6814 194.233 75.868L196.803 74.32L199.372 72.772C197.49 69.6466 194.898 67.194 191.652 65.4405L190.227 68.08ZM196.803 74.32L194.241 75.8818C195.533 78.0012 196.203 80.4135 196.203 83.2H199.203H202.203C202.203 79.3945 201.272 75.8868 199.364 72.7582L196.803 74.32ZM184.371 93.424L185.268 96.2867C188.026 95.4221 190.281 93.7968 191.92 91.4425L189.459 89.728L186.997 88.0135C186.14 89.2432 185.003 90.0819 183.473 90.5613L184.371 93.424ZM189.459 89.728L191.934 91.422C193.571 89.0298 194.331 86.2428 194.331 83.2H191.331H188.331C188.331 85.2132 187.842 86.7782 186.983 88.0339L189.459 89.728ZM191.331 83.2H194.331C194.331 80.6575 193.758 78.2805 192.546 76.1491L189.939 77.632L187.331 79.1149C187.975 80.2475 188.331 81.5825 188.331 83.2H191.331ZM189.939 77.632L192.568 76.1882C191.406 74.0716 189.758 72.3974 187.66 71.2225L186.195 73.84L184.729 76.4575C185.831 77.0746 186.679 77.9284 187.309 79.0758L189.939 77.632ZM186.195 73.84L187.7 71.2449C185.609 70.0324 183.291 69.448 180.819 69.448V72.448V75.448C182.314 75.448 183.58 75.7916 184.689 76.4351L186.195 73.84ZM180.819 72.448V69.448C178.346 69.448 176.028 70.0324 173.937 71.2449L175.443 73.84L176.948 76.4351C178.057 75.7916 179.323 75.448 180.819 75.448V72.448ZM175.443 73.84L173.977 71.2225C171.888 72.3922 170.234 74.0538 169.043 76.1491L171.651 77.632L174.258 79.1149C174.923 77.9462 175.797 77.0798 176.908 76.4575L175.443 73.84ZM171.651 77.632L169.021 76.1882C167.854 78.3126 167.307 80.6755 167.307 83.2H170.307H173.307C173.307 81.5645 173.655 80.2154 174.28 79.0758L171.651 77.632ZM170.307 83.2H167.307C167.307 86.2256 168.041 88.9965 169.648 91.3645L172.131 89.68L174.613 87.9955C173.788 86.7795 173.307 85.2304 173.307 83.2H170.307ZM172.131 89.68L169.669 91.3945C171.294 93.7278 173.51 95.366 176.222 96.27L177.171 93.424L178.119 90.5779C176.607 90.074 175.463 89.2162 174.592 87.9655L172.131 89.68ZM177.171 93.424H180.171V86.512H177.171H174.171V93.424H177.171ZM177.171 86.512V89.512H184.371V86.512V83.512H177.171V86.512ZM184.371 86.512H181.371V93.424H184.371H187.371V86.512H184.371ZM235.095 66.4H238.095V63.4H235.095V66.4ZM235.095 100V103H238.095V100H235.095ZM227.559 100H224.559V103H227.559V100ZM227.559 95.92H230.559V86.8449L225.15 94.1319L227.559 95.92ZM208.071 96.832L205.811 98.8055L205.824 98.8207L205.838 98.8357L208.071 96.832ZM204.759 66.4V63.4H201.759V66.4H204.759ZM212.535 66.4H215.535V63.4H212.535V66.4ZM214.407 91.936L212.184 93.9514L212.209 93.9785L212.234 94.005L214.407 91.936ZM225.207 91.792L227.352 93.8894L227.363 93.8776L227.374 93.8657L225.207 91.792ZM227.319 66.4V63.4H224.319V66.4H227.319ZM235.095 66.4H232.095V100H235.095H238.095V66.4H235.095ZM235.095 100V97H227.559V100V103H235.095V100ZM227.559 100H230.559V95.92H227.559H224.559V100H227.559ZM227.559 95.92L225.15 94.1319C223.507 96.3453 221.085 97.576 217.383 97.576V100.576V103.576C222.64 103.576 227.002 101.703 229.967 97.7081L227.559 95.92ZM217.383 100.576V97.576C214.096 97.576 211.869 96.5734 210.303 94.8283L208.071 96.832L205.838 98.8357C208.752 102.083 212.733 103.576 217.383 103.576V100.576ZM208.071 96.832L210.33 94.8585C208.755 93.0551 207.759 90.2717 207.759 86.08H204.759H201.759C201.759 91.1683 202.97 95.5529 205.811 98.8055L208.071 96.832ZM204.759 86.08H207.759V66.4H204.759H201.759V86.08H204.759ZM204.759 66.4V69.4H212.535V66.4V63.4H204.759V66.4ZM212.535 66.4H209.535V85.84H212.535H215.535V66.4H212.535ZM212.535 85.84H209.535C209.535 88.9441 210.252 91.8206 212.184 93.9514L214.407 91.936L216.629 89.9206C216.065 89.2994 215.535 88.1119 215.535 85.84H212.535ZM214.407 91.936L212.234 94.005C214.178 96.0464 216.747 96.952 219.591 96.952V93.952V90.952C218.082 90.952 217.195 90.5136 216.579 89.867L214.407 91.936ZM219.591 93.952V96.952C222.594 96.952 225.288 95.9996 227.352 93.8894L225.207 91.792L223.061 89.6946C222.309 90.4644 221.259 90.952 219.591 90.952V93.952ZM225.207 91.792L227.374 93.8657C229.498 91.6455 230.319 88.6223 230.319 85.312H227.319H224.319C224.319 87.6977 223.731 88.9945 223.039 89.7183L225.207 91.792ZM227.319 85.312H230.319V66.4H227.319H224.319V85.312H227.319ZM227.319 66.4V69.4H235.095V66.4V63.4H227.319V66.4ZM270.518 97.12L272.205 99.6008L274.216 98.233L273.294 95.9823L270.518 97.12ZM264.47 99.664L263.743 96.7536L263.733 96.7559L264.47 99.664ZM248.15 99.328L247.122 102.146L247.139 102.152L247.156 102.158L248.15 99.328ZM242.774 95.776L240.422 97.6381L240.432 97.6502L240.441 97.6622L242.774 95.776ZM242.438 85.792L244.872 87.5464L244.872 87.5464L242.438 85.792ZM246.518 82.72L247.605 85.516L253.675 83.1557L247.937 80.0765L246.518 82.72ZM243.446 79.84L240.85 81.3431L240.864 81.3684L240.88 81.3934L243.446 79.84ZM244.07 70.768L241.664 68.9762L241.664 68.9762L244.07 70.768ZM249.158 67.168L248.058 64.3772L248.058 64.3772L249.158 67.168ZM263.894 66.496L263.262 69.4287L263.284 69.4334L263.306 69.4377L263.894 66.496ZM269.318 68.224L272.138 69.2474L273.065 66.6929L270.614 65.5185L269.318 68.224ZM267.158 74.176L265.888 76.8938L268.859 78.2826L269.978 75.1994L267.158 74.176ZM252.134 73.264L253.658 75.8481L253.668 75.8423L253.678 75.8365L252.134 73.264ZM251.51 79.024L249.681 81.4019L249.732 81.4407L249.784 81.4774L251.51 79.024ZM264.566 79.936H267.566V76.936H264.566V79.936ZM264.566 86.08V89.08H267.566V86.08H264.566ZM250.406 87.088L248.795 84.557L248.795 84.557L250.406 87.088ZM250.838 93.184L249.35 95.7887L249.386 95.8096L249.423 95.8294L250.838 93.184ZM263.078 93.52L263.828 96.4248L263.85 96.4192L263.871 96.4132L263.078 93.52ZM268.118 91.264L270.894 90.1263L269.474 86.6604L266.402 88.8036L268.118 91.264ZM270.518 97.12L268.831 94.6392C267.595 95.4797 265.928 96.2072 263.743 96.7536L264.47 99.664L265.198 102.574C267.876 101.905 270.241 100.936 272.205 99.6008L270.518 97.12ZM264.47 99.664L263.733 96.7559C261.597 97.2972 259.286 97.576 256.79 97.576V100.576V103.576C259.734 103.576 262.544 103.247 265.207 102.572L264.47 99.664ZM256.79 100.576V97.576C253.626 97.576 251.103 97.1856 249.145 96.4976L248.15 99.328L247.156 102.158C249.933 103.134 253.171 103.576 256.79 103.576V100.576ZM248.15 99.328L249.178 96.5097C247.17 95.777 245.892 94.8605 245.107 93.8898L242.774 95.776L240.441 97.6622C242.088 99.6995 244.394 101.151 247.122 102.146L248.15 99.328ZM242.774 95.776L245.126 93.9139C244.328 92.9058 243.95 91.8174 243.95 90.544H240.95H237.95C237.95 93.1746 238.788 95.5742 240.422 97.6381L242.774 95.776ZM240.95 90.544H243.95C243.95 89.344 244.269 88.3818 244.872 87.5464L242.438 85.792L240.005 84.0376C238.623 85.9542 237.95 88.16 237.95 90.544H240.95ZM242.438 85.792L244.872 87.5464C245.494 86.6838 246.365 85.9984 247.605 85.516L246.518 82.72L245.431 79.924C243.215 80.7856 241.367 82.1482 240.005 84.0376L242.438 85.792ZM246.518 82.72L247.937 80.0765C247.074 79.6139 246.457 79.0207 246.013 78.2866L243.446 79.84L240.88 81.3934C241.907 83.0913 243.338 84.4181 245.1 85.3635L246.518 82.72ZM243.446 79.84L246.042 78.3369C245.621 77.6099 245.39 76.7746 245.39 75.76H242.39H239.39C239.39 77.7534 239.863 79.6381 240.85 81.3431L243.446 79.84ZM242.39 75.76H245.39C245.39 74.6008 245.73 73.5616 246.476 72.5598L244.07 70.768L241.664 68.9762C240.17 70.9824 239.39 73.2712 239.39 75.76H242.39ZM244.07 70.768L246.476 72.5598C247.176 71.6204 248.352 70.7107 250.259 69.9588L249.158 67.168L248.058 64.3772C245.42 65.4173 243.204 66.9076 241.664 68.9762L244.07 70.768ZM249.158 67.168L250.259 69.9588C252.081 69.2401 254.467 68.824 257.51 68.824V65.824V62.824C253.961 62.824 250.779 63.3039 248.058 64.3772L249.158 67.168ZM257.51 65.824V68.824C259.479 68.824 261.395 69.0265 263.262 69.4287L263.894 66.496L264.526 63.5633C262.234 63.0695 259.894 62.824 257.51 62.824V65.824ZM263.894 66.496L263.306 69.4377C265.198 69.8162 266.758 70.3239 268.022 70.9294L269.318 68.224L270.614 65.5185C268.806 64.6521 266.75 64.0078 264.482 63.5543L263.894 66.496ZM269.318 68.224L266.498 67.2006L264.338 73.1526L267.158 74.176L269.978 75.1994L272.138 69.2474L269.318 68.224ZM267.158 74.176L268.428 71.4582C265.081 69.8936 261.527 69.112 257.798 69.112V72.112V75.112C260.662 75.112 263.347 75.7064 265.888 76.8938L267.158 74.176ZM257.798 72.112V69.112C255.083 69.112 252.553 69.514 250.591 70.6915L252.134 73.264L253.678 75.8365C254.275 75.478 255.521 75.112 257.798 75.112V72.112ZM252.134 73.264L250.61 70.6799C248.592 71.8701 247.262 73.7884 247.262 76.288H250.262H253.262C253.262 76.2136 253.271 76.1776 253.273 76.1684C253.276 76.1607 253.277 76.1577 253.281 76.1511C253.286 76.1423 253.361 76.0234 253.658 75.8481L252.134 73.264ZM250.262 76.288H247.262C247.262 78.2675 248.009 80.1159 249.681 81.4019L251.51 79.024L253.339 76.6461C253.324 76.6344 253.314 76.6257 253.309 76.6206C253.307 76.618 253.305 76.6161 253.304 76.6149C253.303 76.6137 253.302 76.6131 253.302 76.613C253.302 76.613 253.302 76.6132 253.303 76.6138C253.303 76.6143 253.303 76.615 253.304 76.6156C253.305 76.6171 253.305 76.6172 253.304 76.615C253.303 76.6142 253.262 76.5273 253.262 76.288H250.262ZM251.51 79.024L249.784 81.4774C251.383 82.6028 253.41 82.936 255.398 82.936V79.936V76.936C253.93 76.936 253.365 76.6612 253.237 76.5706L251.51 79.024ZM255.398 79.936V82.936H264.566V79.936V76.936H255.398V79.936ZM264.566 79.936H261.566V86.08H264.566H267.566V79.936H264.566ZM264.566 86.08V83.08H254.918V86.08V89.08H264.566V86.08ZM254.918 86.08V83.08C252.689 83.08 250.532 83.4521 248.795 84.557L250.406 87.088L252.017 89.619C252.392 89.3799 253.243 89.08 254.918 89.08V86.08ZM250.406 87.088L248.795 84.557C246.851 85.7946 245.822 87.7385 245.822 90.016H248.822H251.822C251.822 89.9024 251.834 89.8326 251.842 89.7967C251.846 89.7785 251.85 89.7672 251.853 89.7611C251.855 89.7552 251.856 89.7524 251.857 89.7515C251.857 89.7506 251.858 89.7491 251.86 89.7463C251.862 89.7436 251.867 89.7374 251.876 89.7279C251.894 89.7095 251.935 89.6708 252.017 89.619L250.406 87.088ZM248.822 90.016H245.822C245.822 92.619 247.241 94.5837 249.35 95.7887L250.838 93.184L252.327 90.5793C251.979 90.3807 251.877 90.2361 251.857 90.2054C251.846 90.1885 251.841 90.1765 251.837 90.1611C251.832 90.1442 251.822 90.0999 251.822 90.016H248.822ZM250.838 93.184L249.423 95.8294C251.458 96.9177 254.155 97.288 257.126 97.288V94.288V91.288C254.466 91.288 252.97 90.9223 252.253 90.5386L250.838 93.184ZM257.126 94.288V97.288C259.371 97.288 261.607 96.9979 263.828 96.4248L263.078 93.52L262.328 90.6152C260.581 91.0661 258.849 91.288 257.126 91.288V94.288ZM263.078 93.52L263.871 96.4132C266.114 95.7984 268.123 94.9189 269.835 93.7244L268.118 91.264L266.402 88.8036C265.362 89.5291 264.011 90.1536 262.285 90.6268L263.078 93.52ZM268.118 91.264L265.342 92.4017L267.742 98.2577L270.518 97.12L273.294 95.9823L270.894 90.1263L268.118 91.264ZM278.39 99.52L277.531 102.395L277.553 102.401L277.575 102.407L278.39 99.52ZM272.438 96.688L269.703 95.455L268.725 97.6233L270.614 99.0696L272.438 96.688ZM275.078 90.832L276.852 88.4128L273.865 86.2225L272.343 89.599L275.078 90.832ZM280.214 93.376L281.135 90.5209L281.135 90.5209L280.214 93.376ZM291.062 93.376L292.617 95.9416L292.645 95.9246L292.672 95.907L291.062 93.376ZM291.686 88.768L289.685 91.0037L289.747 91.0589L289.812 91.1106L291.686 88.768ZM289.286 87.472L288.337 90.318L288.351 90.3227L288.365 90.3271L289.286 87.472ZM285.35 86.416L284.657 89.3348L284.666 89.337L284.675 89.3392L285.35 86.416ZM279.062 84.592L280.109 81.7808L280.109 81.7808L279.062 84.592ZM274.838 81.664L272.56 83.6164L272.573 83.6318L272.587 83.6471L274.838 81.664ZM274.694 71.008L277.182 72.6838L277.19 72.6722L277.198 72.6605L274.694 71.008ZM279.446 67.216L278.254 64.4628L278.246 64.4661L278.239 64.4694L279.446 67.216ZM293.558 66.592L294.285 63.6816L294.285 63.6816L293.558 66.592ZM298.934 68.8L301.713 69.9297L302.663 67.5929L300.524 66.256L298.934 68.8ZM296.534 74.704L295.054 77.3137L298.026 78.9989L299.313 75.8337L296.534 74.704ZM282.374 73.12L280.71 70.6238L280.692 70.6357L280.674 70.6479L282.374 73.12ZM282.614 78.496L281.301 81.1937L281.345 81.2148L281.389 81.2345L282.614 78.496ZM288.134 80.128L288.827 77.2092L288.804 77.2037L288.781 77.1985L288.134 80.128ZM294.422 81.952L295.469 79.1408L295.469 79.1408L294.422 81.952ZM298.598 84.832L296.343 86.8114L296.357 86.8267L296.371 86.8419L298.598 84.832ZM298.742 95.44L296.261 93.7531L296.253 93.7642L298.742 95.44ZM293.942 99.184L292.75 96.4308L292.75 96.4308L293.942 99.184ZM286.118 100.576V97.576C283.73 97.576 281.429 97.2601 279.204 96.6327L278.39 99.52L277.575 102.407C280.343 103.188 283.193 103.576 286.118 103.576V100.576ZM278.39 99.52L279.248 96.6455C277.017 95.9789 275.394 95.1732 274.262 94.3064L272.438 96.688L270.614 99.0696C272.49 100.507 274.835 101.589 277.531 102.395L278.39 99.52ZM272.438 96.688L275.173 97.921L277.813 92.065L275.078 90.832L272.343 89.599L269.703 95.455L272.438 96.688ZM275.078 90.832L273.304 93.2512C275.042 94.5261 277.053 95.5086 279.293 96.2311L280.214 93.376L281.135 90.5209C279.407 89.9634 277.993 89.2499 276.852 88.4128L275.078 90.832ZM280.214 93.376L279.293 96.2311C281.559 96.9622 283.854 97.336 286.166 97.336V94.336V91.336C284.51 91.336 282.836 91.0698 281.135 90.5209L280.214 93.376ZM286.166 94.336V97.336C288.549 97.336 290.852 97.0113 292.617 95.9416L291.062 93.376L289.507 90.8104C289.16 91.0207 288.199 91.336 286.166 91.336V94.336ZM291.062 93.376L292.672 95.907C294.441 94.7816 295.646 93.0187 295.646 90.736H292.646H289.646C289.646 90.7633 289.643 90.7597 289.649 90.7356C289.656 90.7104 289.667 90.6858 289.677 90.6685C289.7 90.6309 289.671 90.705 289.451 90.845L291.062 93.376ZM292.646 90.736H295.646C295.646 88.999 294.891 87.4905 293.56 86.4254L291.686 88.768L289.812 91.1106C289.828 91.1235 289.767 91.0769 289.709 90.9593C289.651 90.8395 289.646 90.7474 289.646 90.736H292.646ZM291.686 88.768L293.686 86.5323C292.692 85.6425 291.491 85.0312 290.207 84.6169L289.286 87.472L288.365 90.3271C289.064 90.5528 289.464 90.8055 289.685 91.0037L291.686 88.768ZM289.286 87.472L290.234 84.626C289.144 84.2625 287.727 83.8858 286.024 83.4928L285.35 86.416L284.675 89.3392C286.3 89.7142 287.507 90.0415 288.337 90.318L289.286 87.472ZM285.35 86.416L286.043 83.4972C283.549 82.9049 281.583 82.3298 280.109 81.7808L279.062 84.592L278.014 87.4032C279.805 88.0702 282.03 88.7111 284.657 89.3348L285.35 86.416ZM279.062 84.592L280.109 81.7808C278.954 81.3504 277.956 80.6648 277.089 79.6809L274.838 81.664L272.587 83.6471C274.088 85.3512 275.906 86.6176 278.014 87.4032L279.062 84.592ZM274.838 81.664L277.116 79.7116C276.543 79.0434 276.11 78.0074 276.11 76.288H273.11H270.11C270.11 79.0486 270.829 81.5966 272.56 83.6164L274.838 81.664ZM273.11 76.288H276.11C276.11 74.9124 276.471 73.7397 277.182 72.6838L274.694 71.008L272.205 69.3322C270.805 71.4123 270.11 73.7595 270.11 76.288H273.11ZM274.694 71.008L277.198 72.6605C277.876 71.6327 278.961 70.706 280.653 69.9626L279.446 67.216L278.239 64.4694C275.707 65.582 273.624 67.1833 272.19 69.3555L274.694 71.008ZM279.446 67.216L280.637 69.9692C282.307 69.2466 284.485 68.824 287.27 68.824V65.824V62.824C283.911 62.824 280.873 63.3294 278.254 64.4628L279.446 67.216ZM287.27 65.824V68.824C289.172 68.824 291.024 69.0508 292.83 69.5024L293.558 66.592L294.285 63.6816C291.996 63.1092 289.655 62.824 287.27 62.824V65.824ZM293.558 66.592L292.83 69.5024C294.623 69.9505 296.114 70.5755 297.344 71.344L298.934 68.8L300.524 66.256C298.681 65.1045 296.589 64.2575 294.285 63.6816L293.558 66.592ZM298.934 68.8L296.155 67.6703L293.755 73.5743L296.534 74.704L299.313 75.8337L301.713 69.9297L298.934 68.8ZM296.534 74.704L298.013 72.0943C294.527 70.1172 290.918 69.064 287.222 69.064V72.064V75.064C289.734 75.064 292.333 75.7708 295.054 77.3137L296.534 74.704ZM287.222 72.064V69.064C284.829 69.064 282.498 69.4313 280.71 70.6238L282.374 73.12L284.038 75.6162C284.361 75.4007 285.262 75.064 287.222 75.064V72.064ZM282.374 73.12L280.674 70.6479C278.912 71.8596 277.838 73.6758 277.838 75.904H280.838H283.838C283.838 75.8395 283.845 75.8074 283.847 75.7991C283.848 75.7942 283.849 75.7926 283.848 75.7931C283.848 75.7937 283.848 75.7939 283.848 75.7932C283.849 75.7925 283.851 75.7887 283.856 75.7816C283.862 75.7744 283.871 75.7624 283.886 75.7461C283.917 75.7134 283.975 75.66 284.073 75.5921L282.374 73.12ZM280.838 75.904H277.838C277.838 77.0221 278.135 78.1307 278.807 79.1117C279.463 80.0698 280.36 80.7358 281.301 81.1937L282.614 78.496L283.926 75.7983C283.806 75.7396 283.746 75.6959 283.726 75.6797C283.708 75.6654 283.727 75.6769 283.757 75.7203C283.771 75.7411 283.785 75.7655 283.798 75.7927C283.811 75.8199 283.82 75.8459 283.827 75.8687C283.841 75.9163 283.838 75.9333 283.838 75.904H280.838ZM282.614 78.496L281.389 81.2345C282.888 81.9053 284.967 82.5011 287.487 83.0575L288.134 80.128L288.781 77.1985C286.372 76.6669 284.771 76.1747 283.839 75.7575L282.614 78.496ZM288.134 80.128L287.441 83.0468C289.934 83.6391 291.901 84.2142 293.374 84.7632L294.422 81.952L295.469 79.1408C293.679 78.4738 291.453 77.8329 288.827 77.2092L288.134 80.128ZM294.422 81.952L293.374 84.7632C294.54 85.1976 295.518 85.8712 296.343 86.8114L298.598 84.832L300.852 82.8526C299.374 81.1688 297.567 79.9224 295.469 79.1408L294.422 81.952ZM298.598 84.832L296.371 86.8419C296.935 87.467 297.374 88.4569 297.374 90.16H300.374H303.374C303.374 87.3831 302.629 84.821 300.825 82.8221L298.598 84.832ZM300.374 90.16H297.374C297.374 91.4734 297.013 92.6465 296.261 93.7531L298.742 95.44L301.223 97.1269C302.646 95.0335 303.374 92.6866 303.374 90.16H300.374ZM298.742 95.44L296.253 93.7642C295.586 94.7555 294.492 95.6768 292.75 96.4308L293.942 99.184L295.133 101.937C297.679 100.835 299.786 99.2605 301.23 97.1158L298.742 95.44ZM293.942 99.184L292.75 96.4308C291.081 97.1534 288.903 97.576 286.118 97.576V100.576V103.576C289.477 103.576 292.515 103.071 295.133 101.937L293.942 99.184Z" fill="black" mask="url(#path-1-outside-1_294_2746)"/>
<mask id="path-3-outside-2_294_2746" maskUnits="userSpaceOnUse" x="16" y="9" width="272" height="48" fill="black">
<rect fill="white" x="16" y="9" width="272" height="48"/>
<path d="M19.4606 13.4H27.2366V40.664H44.0846V47H19.4606V13.4ZM64.1388 47.576C60.6508 47.576 57.4988 46.824 54.6828 45.32C51.8988 43.816 49.7068 41.752 48.1068 39.128C46.5388 36.472 45.7548 33.496 45.7548 30.2C45.7548 26.904 46.5388 23.944 48.1068 21.32C49.7068 18.664 51.8988 16.584 54.6828 15.08C57.4988 13.576 60.6508 12.824 64.1388 12.824C67.6268 12.824 70.7628 13.576 73.5468 15.08C76.3308 16.584 78.5228 18.664 80.1228 21.32C81.7228 23.944 82.5228 26.904 82.5228 30.2C82.5228 33.496 81.7228 36.472 80.1228 39.128C78.5228 41.752 76.3308 43.816 73.5468 45.32C70.7628 46.824 67.6268 47.576 64.1388 47.576ZM64.1388 40.952C66.1228 40.952 67.9148 40.504 69.5148 39.608C71.1148 38.68 72.3628 37.4 73.2588 35.768C74.1868 34.136 74.6508 32.28 74.6508 30.2C74.6508 28.12 74.1868 26.264 73.2588 24.632C72.3628 23 71.1148 21.736 69.5148 20.84C67.9148 19.912 66.1228 19.448 64.1388 19.448C62.1548 19.448 60.3628 19.912 58.7628 20.84C57.1628 21.736 55.8988 23 54.9708 24.632C54.0748 26.264 53.6268 28.12 53.6268 30.2C53.6268 32.28 54.0748 34.136 54.9708 35.768C55.8988 37.4 57.1628 38.68 58.7628 39.608C60.3628 40.504 62.1548 40.952 64.1388 40.952ZM111.071 29.672H118.175V47H112.319V44.984C109.983 46.712 106.975 47.576 103.295 47.576C100.191 47.576 97.3428 46.904 94.7508 45.56C92.1588 44.216 90.0948 42.264 88.5588 39.704C87.0228 37.112 86.2548 34.04 86.2548 30.488C86.2548 27.064 87.0388 24.024 88.6068 21.368C90.2068 18.68 92.4148 16.584 95.2308 15.08C98.0468 13.576 101.215 12.824 104.735 12.824C107.679 12.824 110.351 13.32 112.751 14.312C115.151 15.304 117.167 16.744 118.799 18.632L113.807 23.24C111.407 20.712 108.511 19.448 105.119 19.448C102.975 19.448 101.071 19.912 99.4068 20.84C97.7428 21.736 96.4468 23.016 95.5188 24.68C94.5908 26.344 94.1268 28.264 94.1268 30.44C94.1268 32.712 94.5748 34.648 95.4708 36.248C96.3988 37.848 97.6308 39.064 99.1668 39.896C100.703 40.696 102.383 41.096 104.207 41.096C106.927 41.096 109.215 40.328 111.071 38.792V29.672ZM136.918 19.64V40.76H142.726V47H123.286V40.76H129.142V19.64H123.286V13.4H142.726V19.64H136.918ZM183.023 30.2C183.023 33.08 182.415 35.72 181.199 38.12C179.983 40.488 178.271 42.472 176.063 44.072C173.887 45.672 171.375 46.728 168.527 47.24V53.48H160.703V47.24C157.887 46.728 155.375 45.672 153.167 44.072C150.991 42.472 149.295 40.472 148.079 38.072C146.863 35.672 146.255 33.048 146.255 30.2C146.255 26.904 147.039 23.944 148.607 21.32C150.207 18.664 152.399 16.584 155.183 15.08C157.999 13.576 161.151 12.824 164.639 12.824C168.127 12.824 171.263 13.576 174.047 15.08C176.831 16.584 179.023 18.664 180.623 21.32C182.223 23.944 183.023 26.904 183.023 30.2ZM168.191 40.424C170.335 39.752 172.031 38.52 173.279 36.728C174.527 34.904 175.151 32.728 175.151 30.2C175.151 28.12 174.687 26.264 173.759 24.632C172.863 23 171.615 21.736 170.015 20.84C168.415 19.912 166.623 19.448 164.639 19.448C162.655 19.448 160.863 19.912 159.263 20.84C157.663 21.736 156.399 23 155.471 24.632C154.575 26.264 154.127 28.12 154.127 30.2C154.127 32.728 154.735 34.888 155.951 36.68C157.199 38.472 158.879 39.72 160.991 40.424V33.512H168.191V40.424ZM218.915 13.4V47H211.379V42.92C209.075 46.024 205.683 47.576 201.203 47.576C197.235 47.576 194.131 46.328 191.891 43.832C189.683 41.304 188.579 37.72 188.579 33.08V13.4H196.355V32.84C196.355 35.528 196.979 37.56 198.227 38.936C199.507 40.28 201.235 40.952 203.411 40.952C205.747 40.952 207.619 40.232 209.027 38.792C210.435 37.32 211.139 35.16 211.139 32.312V13.4H218.915ZM254.338 44.12C252.738 45.208 250.722 46.056 248.29 46.664C245.89 47.272 243.33 47.576 240.61 47.576C237.218 47.576 234.338 47.16 231.97 46.328C229.602 45.464 227.81 44.28 226.594 42.776C225.378 41.24 224.77 39.496 224.77 37.544C224.77 35.752 225.266 34.168 226.258 32.792C227.25 31.416 228.61 30.392 230.338 29.72C229.026 29.016 228.002 28.056 227.266 26.84C226.562 25.624 226.21 24.264 226.21 22.76C226.21 20.936 226.77 19.272 227.89 17.768C229.01 16.264 230.706 15.064 232.978 14.168C235.25 13.272 238.034 12.824 241.33 12.824C243.506 12.824 245.634 13.048 247.714 13.496C249.794 13.912 251.602 14.488 253.138 15.224L250.978 21.176C248.034 19.8 244.914 19.112 241.618 19.112C239.122 19.112 237.234 19.496 235.954 20.264C234.706 21 234.082 22.008 234.082 23.288C234.082 24.472 234.498 25.384 235.33 26.024C236.194 26.632 237.49 26.936 239.218 26.936H248.386V33.08H238.738C236.786 33.08 235.282 33.416 234.226 34.088C233.17 34.76 232.642 35.736 232.642 37.016C232.642 38.36 233.314 39.416 234.658 40.184C236.034 40.92 238.13 41.288 240.946 41.288C242.93 41.288 244.914 41.032 246.898 40.52C248.882 39.976 250.562 39.224 251.938 38.264L254.338 44.12ZM269.938 47.576C267.282 47.576 264.706 47.224 262.21 46.52C259.746 45.784 257.762 44.84 256.258 43.688L258.898 37.832C260.338 38.888 262.05 39.736 264.034 40.376C266.018 41.016 268.002 41.336 269.986 41.336C272.194 41.336 273.826 41.016 274.882 40.376C275.938 39.704 276.466 38.824 276.466 37.736C276.466 36.936 276.146 36.28 275.506 35.768C274.898 35.224 274.098 34.792 273.106 34.472C272.146 34.152 270.834 33.8 269.17 33.416C266.61 32.808 264.514 32.2 262.882 31.592C261.25 30.984 259.842 30.008 258.658 28.664C257.506 27.32 256.93 25.528 256.93 23.288C256.93 21.336 257.458 19.576 258.514 18.008C259.57 16.408 261.154 15.144 263.266 14.216C265.41 13.288 268.018 12.824 271.09 12.824C273.234 12.824 275.33 13.08 277.378 13.592C279.426 14.104 281.218 14.84 282.754 15.8L280.354 21.704C277.25 19.944 274.146 19.064 271.042 19.064C268.866 19.064 267.25 19.416 266.194 20.12C265.17 20.824 264.658 21.752 264.658 22.904C264.658 24.056 265.25 24.92 266.434 25.496C267.65 26.04 269.49 26.584 271.954 27.128C274.514 27.736 276.61 28.344 278.242 28.952C279.874 29.56 281.266 30.52 282.418 31.832C283.602 33.144 284.194 34.92 284.194 37.16C284.194 39.08 283.65 40.84 282.562 42.44C281.506 44.008 279.906 45.256 277.762 46.184C275.618 47.112 273.01 47.576 269.938 47.576Z"/>
</mask>
<path d="M19.4606 13.4H27.2366V40.664H44.0846V47H19.4606V13.4ZM64.1388 47.576C60.6508 47.576 57.4988 46.824 54.6828 45.32C51.8988 43.816 49.7068 41.752 48.1068 39.128C46.5388 36.472 45.7548 33.496 45.7548 30.2C45.7548 26.904 46.5388 23.944 48.1068 21.32C49.7068 18.664 51.8988 16.584 54.6828 15.08C57.4988 13.576 60.6508 12.824 64.1388 12.824C67.6268 12.824 70.7628 13.576 73.5468 15.08C76.3308 16.584 78.5228 18.664 80.1228 21.32C81.7228 23.944 82.5228 26.904 82.5228 30.2C82.5228 33.496 81.7228 36.472 80.1228 39.128C78.5228 41.752 76.3308 43.816 73.5468 45.32C70.7628 46.824 67.6268 47.576 64.1388 47.576ZM64.1388 40.952C66.1228 40.952 67.9148 40.504 69.5148 39.608C71.1148 38.68 72.3628 37.4 73.2588 35.768C74.1868 34.136 74.6508 32.28 74.6508 30.2C74.6508 28.12 74.1868 26.264 73.2588 24.632C72.3628 23 71.1148 21.736 69.5148 20.84C67.9148 19.912 66.1228 19.448 64.1388 19.448C62.1548 19.448 60.3628 19.912 58.7628 20.84C57.1628 21.736 55.8988 23 54.9708 24.632C54.0748 26.264 53.6268 28.12 53.6268 30.2C53.6268 32.28 54.0748 34.136 54.9708 35.768C55.8988 37.4 57.1628 38.68 58.7628 39.608C60.3628 40.504 62.1548 40.952 64.1388 40.952ZM111.071 29.672H118.175V47H112.319V44.984C109.983 46.712 106.975 47.576 103.295 47.576C100.191 47.576 97.3428 46.904 94.7508 45.56C92.1588 44.216 90.0948 42.264 88.5588 39.704C87.0228 37.112 86.2548 34.04 86.2548 30.488C86.2548 27.064 87.0388 24.024 88.6068 21.368C90.2068 18.68 92.4148 16.584 95.2308 15.08C98.0468 13.576 101.215 12.824 104.735 12.824C107.679 12.824 110.351 13.32 112.751 14.312C115.151 15.304 117.167 16.744 118.799 18.632L113.807 23.24C111.407 20.712 108.511 19.448 105.119 19.448C102.975 19.448 101.071 19.912 99.4068 20.84C97.7428 21.736 96.4468 23.016 95.5188 24.68C94.5908 26.344 94.1268 28.264 94.1268 30.44C94.1268 32.712 94.5748 34.648 95.4708 36.248C96.3988 37.848 97.6308 39.064 99.1668 39.896C100.703 40.696 102.383 41.096 104.207 41.096C106.927 41.096 109.215 40.328 111.071 38.792V29.672ZM136.918 19.64V40.76H142.726V47H123.286V40.76H129.142V19.64H123.286V13.4H142.726V19.64H136.918ZM183.023 30.2C183.023 33.08 182.415 35.72 181.199 38.12C179.983 40.488 178.271 42.472 176.063 44.072C173.887 45.672 171.375 46.728 168.527 47.24V53.48H160.703V47.24C157.887 46.728 155.375 45.672 153.167 44.072C150.991 42.472 149.295 40.472 148.079 38.072C146.863 35.672 146.255 33.048 146.255 30.2C146.255 26.904 147.039 23.944 148.607 21.32C150.207 18.664 152.399 16.584 155.183 15.08C157.999 13.576 161.151 12.824 164.639 12.824C168.127 12.824 171.263 13.576 174.047 15.08C176.831 16.584 179.023 18.664 180.623 21.32C182.223 23.944 183.023 26.904 183.023 30.2ZM168.191 40.424C170.335 39.752 172.031 38.52 173.279 36.728C174.527 34.904 175.151 32.728 175.151 30.2C175.151 28.12 174.687 26.264 173.759 24.632C172.863 23 171.615 21.736 170.015 20.84C168.415 19.912 166.623 19.448 164.639 19.448C162.655 19.448 160.863 19.912 159.263 20.84C157.663 21.736 156.399 23 155.471 24.632C154.575 26.264 154.127 28.12 154.127 30.2C154.127 32.728 154.735 34.888 155.951 36.68C157.199 38.472 158.879 39.72 160.991 40.424V33.512H168.191V40.424ZM218.915 13.4V47H211.379V42.92C209.075 46.024 205.683 47.576 201.203 47.576C197.235 47.576 194.131 46.328 191.891 43.832C189.683 41.304 188.579 37.72 188.579 33.08V13.4H196.355V32.84C196.355 35.528 196.979 37.56 198.227 38.936C199.507 40.28 201.235 40.952 203.411 40.952C205.747 40.952 207.619 40.232 209.027 38.792C210.435 37.32 211.139 35.16 211.139 32.312V13.4H218.915ZM254.338 44.12C252.738 45.208 250.722 46.056 248.29 46.664C245.89 47.272 243.33 47.576 240.61 47.576C237.218 47.576 234.338 47.16 231.97 46.328C229.602 45.464 227.81 44.28 226.594 42.776C225.378 41.24 224.77 39.496 224.77 37.544C224.77 35.752 225.266 34.168 226.258 32.792C227.25 31.416 228.61 30.392 230.338 29.72C229.026 29.016 228.002 28.056 227.266 26.84C226.562 25.624 226.21 24.264 226.21 22.76C226.21 20.936 226.77 19.272 227.89 17.768C229.01 16.264 230.706 15.064 232.978 14.168C235.25 13.272 238.034 12.824 241.33 12.824C243.506 12.824 245.634 13.048 247.714 13.496C249.794 13.912 251.602 14.488 253.138 15.224L250.978 21.176C248.034 19.8 244.914 19.112 241.618 19.112C239.122 19.112 237.234 19.496 235.954 20.264C234.706 21 234.082 22.008 234.082 23.288C234.082 24.472 234.498 25.384 235.33 26.024C236.194 26.632 237.49 26.936 239.218 26.936H248.386V33.08H238.738C236.786 33.08 235.282 33.416 234.226 34.088C233.17 34.76 232.642 35.736 232.642 37.016C232.642 38.36 233.314 39.416 234.658 40.184C236.034 40.92 238.13 41.288 240.946 41.288C242.93 41.288 244.914 41.032 246.898 40.52C248.882 39.976 250.562 39.224 251.938 38.264L254.338 44.12ZM269.938 47.576C267.282 47.576 264.706 47.224 262.21 46.52C259.746 45.784 257.762 44.84 256.258 43.688L258.898 37.832C260.338 38.888 262.05 39.736 264.034 40.376C266.018 41.016 268.002 41.336 269.986 41.336C272.194 41.336 273.826 41.016 274.882 40.376C275.938 39.704 276.466 38.824 276.466 37.736C276.466 36.936 276.146 36.28 275.506 35.768C274.898 35.224 274.098 34.792 273.106 34.472C272.146 34.152 270.834 33.8 269.17 33.416C266.61 32.808 264.514 32.2 262.882 31.592C261.25 30.984 259.842 30.008 258.658 28.664C257.506 27.32 256.93 25.528 256.93 23.288C256.93 21.336 257.458 19.576 258.514 18.008C259.57 16.408 261.154 15.144 263.266 14.216C265.41 13.288 268.018 12.824 271.09 12.824C273.234 12.824 275.33 13.08 277.378 13.592C279.426 14.104 281.218 14.84 282.754 15.8L280.354 21.704C277.25 19.944 274.146 19.064 271.042 19.064C268.866 19.064 267.25 19.416 266.194 20.12C265.17 20.824 264.658 21.752 264.658 22.904C264.658 24.056 265.25 24.92 266.434 25.496C267.65 26.04 269.49 26.584 271.954 27.128C274.514 27.736 276.61 28.344 278.242 28.952C279.874 29.56 281.266 30.52 282.418 31.832C283.602 33.144 284.194 34.92 284.194 37.16C284.194 39.08 283.65 40.84 282.562 42.44C281.506 44.008 279.906 45.256 277.762 46.184C275.618 47.112 273.01 47.576 269.938 47.576Z" fill="white"/>
<path d="M19.4606 13.4V10.4H16.4606V13.4H19.4606ZM27.2366 13.4H30.2366V10.4H27.2366V13.4ZM27.2366 40.664H24.2366V43.664H27.2366V40.664ZM44.0846 40.664H47.0846V37.664H44.0846V40.664ZM44.0846 47V50H47.0846V47H44.0846ZM19.4606 47H16.4606V50H19.4606V47ZM19.4606 13.4V16.4H27.2366V13.4V10.4H19.4606V13.4ZM27.2366 13.4H24.2366V40.664H27.2366H30.2366V13.4H27.2366ZM27.2366 40.664V43.664H44.0846V40.664V37.664H27.2366V40.664ZM44.0846 40.664H41.0846V47H44.0846H47.0846V40.664H44.0846ZM44.0846 47V44H19.4606V47V50H44.0846V47ZM19.4606 47H22.4606V13.4H19.4606H16.4606V47H19.4606ZM54.6828 45.32L53.2569 47.9595L53.2632 47.9629L53.2695 47.9662L54.6828 45.32ZM48.1068 39.128L45.5234 40.6531L45.5343 40.6716L45.5454 40.6898L48.1068 39.128ZM48.1068 21.32L45.5371 19.772L45.5316 19.7811L48.1068 21.32ZM54.6828 15.08L53.2695 12.4338L53.2632 12.4371L53.2569 12.4405L54.6828 15.08ZM80.1228 21.32L77.5531 22.868L77.5572 22.8749L77.5614 22.8818L80.1228 21.32ZM80.1228 39.128L82.6842 40.6898L82.6884 40.6829L82.6926 40.676L80.1228 39.128ZM73.5468 45.32L74.9727 47.9595L73.5468 45.32ZM69.5148 39.608L70.9806 42.2255L71.0004 42.2145L71.02 42.2031L69.5148 39.608ZM73.2588 35.768L70.6509 34.2851L70.6399 34.3046L70.6291 34.3242L73.2588 35.768ZM73.2588 24.632L70.6291 26.0758L70.6399 26.0954L70.6509 26.1149L73.2588 24.632ZM69.5148 20.84L68.0097 23.4351L68.0292 23.4465L68.049 23.4575L69.5148 20.84ZM58.7628 20.84L60.2286 23.4575L60.2484 23.4465L60.268 23.4351L58.7628 20.84ZM54.9708 24.632L52.3629 23.1491L52.3519 23.1686L52.3411 23.1882L54.9708 24.632ZM54.9708 35.768L52.3411 37.2118L52.3519 37.2314L52.3629 37.2509L54.9708 35.768ZM58.7628 39.608L57.2577 42.2031L57.2772 42.2145L57.297 42.2255L58.7628 39.608ZM64.1388 47.576V44.576C61.0972 44.576 58.4379 43.9245 56.0961 42.6738L54.6828 45.32L53.2695 47.9662C56.5598 49.7235 60.2045 50.576 64.1388 50.576V47.576ZM54.6828 45.32L56.1087 42.6805C53.7775 41.4211 51.9833 39.723 50.6682 37.5662L48.1068 39.128L45.5454 40.6898C47.4303 43.781 50.0202 46.2109 53.2569 47.9595L54.6828 45.32ZM48.1068 39.128L50.6902 37.6029C49.4137 35.4407 48.7548 32.9977 48.7548 30.2H45.7548H42.7548C42.7548 33.9943 43.6639 37.5033 45.5234 40.6531L48.1068 39.128ZM45.7548 30.2H48.7548C48.7548 27.402 49.4137 24.9814 50.6821 22.8589L48.1068 21.32L45.5316 19.7811C43.6639 22.9066 42.7548 26.406 42.7548 30.2H45.7548ZM48.1068 21.32L50.6766 22.868C51.9938 20.6814 53.7866 18.974 56.1087 17.7195L54.6828 15.08L53.2569 12.4405C50.0111 14.194 47.4198 16.6466 45.5371 19.772L48.1068 21.32ZM54.6828 15.08L56.0961 17.7262C58.4379 16.4755 61.0972 15.824 64.1388 15.824V12.824V9.824C60.2045 9.824 56.5598 10.6765 53.2695 12.4338L54.6828 15.08ZM64.1388 12.824V15.824C67.181 15.824 69.8185 16.4756 72.1209 17.7195L73.5468 15.08L74.9727 12.4405C71.7071 10.6764 68.0727 9.824 64.1388 9.824V12.824ZM73.5468 15.08L72.1209 17.7195C74.4431 18.974 76.2358 20.6814 77.5531 22.868L80.1228 21.32L82.6926 19.772C80.8098 16.6466 78.2186 14.194 74.9727 12.4405L73.5468 15.08ZM80.1228 21.32L77.5614 22.8818C78.8537 25.0012 79.5228 27.4135 79.5228 30.2H82.5228H85.5228C85.5228 26.3945 84.5919 22.8868 82.6842 19.7582L80.1228 21.32ZM82.5228 30.2H79.5228C79.5228 32.9862 78.8537 35.421 77.5531 37.58L80.1228 39.128L82.6926 40.676C84.592 37.523 85.5228 34.0058 85.5228 30.2H82.5228ZM80.1228 39.128L77.5614 37.5662C76.2463 39.723 74.4522 41.4211 72.1209 42.6805L73.5468 45.32L74.9727 47.9595C78.2095 46.2109 80.7993 43.781 82.6842 40.6898L80.1228 39.128ZM73.5468 45.32L72.1209 42.6805C69.8185 43.9244 67.181 44.576 64.1388 44.576V47.576V50.576C68.0727 50.576 71.7071 49.7236 74.9727 47.9595L73.5468 45.32ZM64.1388 40.952V43.952C66.5928 43.952 68.8965 43.3926 70.9806 42.2255L69.5148 39.608L68.049 36.9905C66.9331 37.6154 65.6528 37.952 64.1388 37.952V40.952ZM69.5148 39.608L71.02 42.2031C73.096 40.999 74.7314 39.3195 75.8886 37.2118L73.2588 35.768L70.6291 34.3242C69.9943 35.4805 69.1337 36.361 68.0097 37.0129L69.5148 39.608ZM73.2588 35.768L75.8667 37.2509C77.0787 35.1195 77.6508 32.7425 77.6508 30.2H74.6508H71.6508C71.6508 31.8175 71.295 33.1525 70.6509 34.2851L73.2588 35.768ZM74.6508 30.2H77.6508C77.6508 27.6575 77.0787 25.2805 75.8667 23.1491L73.2588 24.632L70.6509 26.1149C71.295 27.2475 71.6508 28.5825 71.6508 30.2H74.6508ZM73.2588 24.632L75.8886 23.1882C74.7265 21.0716 73.0787 19.3974 70.9806 18.2225L69.5148 20.84L68.049 23.4575C69.1509 24.0746 69.9991 24.9284 70.6291 26.0758L73.2588 24.632ZM69.5148 20.84L71.02 18.2449C68.9295 17.0324 66.6117 16.448 64.1388 16.448V19.448V22.448C65.6339 22.448 66.9001 22.7916 68.0097 23.4351L69.5148 20.84ZM64.1388 19.448V16.448C61.6659 16.448 59.3481 17.0324 57.2577 18.2449L58.7628 20.84L60.268 23.4351C61.3775 22.7916 62.6437 22.448 64.1388 22.448V19.448ZM58.7628 20.84L57.297 18.2225C55.2083 19.3922 53.5544 21.0538 52.3629 23.1491L54.9708 24.632L57.5787 26.1149C58.2432 24.9462 59.1174 24.0798 60.2286 23.4575L58.7628 20.84ZM54.9708 24.632L52.3411 23.1882C51.1747 25.3126 50.6268 27.6755 50.6268 30.2H53.6268H56.6268C56.6268 28.5645 56.9749 27.2154 57.6005 26.0758L54.9708 24.632ZM53.6268 30.2H50.6268C50.6268 32.7245 51.1747 35.0874 52.3411 37.2118L54.9708 35.768L57.6005 34.3242C56.9749 33.1846 56.6268 31.8355 56.6268 30.2H53.6268ZM54.9708 35.768L52.3629 37.2509C53.5494 39.3375 55.1909 41.0044 57.2577 42.2031L58.7628 39.608L60.268 37.0129C59.1347 36.3556 58.2482 35.4625 57.5787 34.2851L54.9708 35.768ZM58.7628 39.608L57.297 42.2255C59.3811 43.3926 61.6848 43.952 64.1388 43.952V40.952V37.952C62.6248 37.952 61.3445 37.6154 60.2286 36.9905L58.7628 39.608ZM111.071 29.672V26.672H108.071V29.672H111.071ZM118.175 29.672H121.175V26.672H118.175V29.672ZM118.175 47V50H121.175V47H118.175ZM112.319 47H109.319V50H112.319V47ZM112.319 44.984H115.319V39.0332L110.535 42.5722L112.319 44.984ZM94.7508 45.56L93.3699 48.2233L93.3699 48.2233L94.7508 45.56ZM88.5588 39.704L85.9779 41.2334L85.9821 41.2405L85.9863 41.2475L88.5588 39.704ZM88.6068 21.368L86.0289 19.8335L86.0234 19.8429L88.6068 21.368ZM112.751 14.312L113.897 11.5395L113.897 11.5395L112.751 14.312ZM118.799 18.632L120.834 20.8364L122.967 18.8669L121.068 16.6701L118.799 18.632ZM113.807 23.24L111.631 25.3055L113.668 27.4509L115.842 25.4444L113.807 23.24ZM99.4068 20.84L100.829 23.4814L100.849 23.4709L100.868 23.4601L99.4068 20.84ZM95.5188 24.68L92.8987 23.2188L92.8987 23.2188L95.5188 24.68ZM95.4708 36.248L92.8533 37.7138L92.8644 37.7336L92.8757 37.7532L95.4708 36.248ZM99.1668 39.896L97.738 42.5339L97.7594 42.5455L97.781 42.5567L99.1668 39.896ZM111.071 38.792L112.984 41.1032L114.071 40.2034V38.792H111.071ZM111.071 29.672V32.672H118.175V29.672V26.672H111.071V29.672ZM118.175 29.672H115.175V47H118.175H121.175V29.672H118.175ZM118.175 47V44H112.319V47V50H118.175V47ZM112.319 47H115.319V44.984H112.319H109.319V47H112.319ZM112.319 44.984L110.535 42.5722C108.839 43.8269 106.505 44.576 103.295 44.576V47.576V50.576C107.444 50.576 111.127 49.5971 114.103 47.3958L112.319 44.984ZM103.295 47.576V44.576C100.64 44.576 98.2702 44.0056 96.1318 42.8967L94.7508 45.56L93.3699 48.2233C96.4154 49.8024 99.7413 50.576 103.295 50.576V47.576ZM94.7508 45.56L96.1318 42.8967C94.0445 41.8145 92.3882 40.2554 91.1313 38.1605L88.5588 39.704L85.9863 41.2475C87.8014 44.2726 90.2731 46.6175 93.3699 48.2233L94.7508 45.56ZM88.5588 39.704L91.1397 38.1746C89.9237 36.1225 89.2548 33.599 89.2548 30.488H86.2548H83.2548C83.2548 34.481 84.122 38.1015 85.9779 41.2334L88.5588 39.704ZM86.2548 30.488H89.2548C89.2548 27.5398 89.9242 25.0376 91.1902 22.8931L88.6068 21.368L86.0234 19.8429C84.1534 23.0104 83.2548 26.5882 83.2548 30.488H86.2548ZM88.6068 21.368L91.1847 22.9024C92.4991 20.6943 94.2999 18.9782 96.6441 17.7262L95.2308 15.08L93.8175 12.4338C90.5297 14.1898 87.9146 16.6657 86.0289 19.8335L88.6068 21.368ZM95.2308 15.08L96.6441 17.7262C98.9819 16.4776 101.656 15.824 104.735 15.824V12.824V9.824C100.773 9.824 97.1117 10.6744 93.8175 12.4338L95.2308 15.08ZM104.735 12.824V15.824C107.338 15.824 109.614 16.2615 111.605 17.0845L112.751 14.312L113.897 11.5395C111.088 10.3785 108.02 9.824 104.735 9.824V12.824ZM112.751 14.312L111.605 17.0845C113.59 17.9052 115.216 19.0746 116.529 20.5939L118.799 18.632L121.068 16.6701C119.118 14.4134 116.711 12.7028 113.897 11.5395L112.751 14.312ZM118.799 18.632L116.764 16.4276L111.772 21.0356L113.807 23.24L115.842 25.4444L120.834 20.8364L118.799 18.632ZM113.807 23.24L115.982 21.1745C113.034 18.0685 109.359 16.448 105.119 16.448V19.448V22.448C107.663 22.448 109.78 23.3555 111.631 25.3055L113.807 23.24ZM105.119 19.448V16.448C102.529 16.448 100.11 17.0128 97.9456 18.2199L99.4068 20.84L100.868 23.4601C102.032 22.8112 103.421 22.448 105.119 22.448V19.448ZM99.4068 20.84L97.9845 18.1986C95.8126 19.3681 94.1029 21.0596 92.8987 23.2188L95.5188 24.68L98.1389 26.1412C98.7907 24.9724 99.6731 24.1039 100.829 23.4814L99.4068 20.84ZM95.5188 24.68L92.8987 23.2188C91.688 25.3897 91.1268 27.8261 91.1268 30.44H94.1268H97.1268C97.1268 28.7019 97.4936 27.2983 98.1389 26.1412L95.5188 24.68ZM94.1268 30.44H91.1268C91.1268 33.1041 91.6533 35.5709 92.8533 37.7138L95.4708 36.248L98.0883 34.7822C97.4963 33.7251 97.1268 32.3199 97.1268 30.44H94.1268ZM95.4708 36.248L92.8757 37.7532C94.0638 39.8015 95.6874 41.4231 97.738 42.5339L99.1668 39.896L100.596 37.2581C99.5742 36.7048 98.7338 35.8945 98.0659 34.7428L95.4708 36.248ZM99.1668 39.896L97.781 42.5567C99.7678 43.5915 101.927 44.096 104.207 44.096V41.096V38.096C102.839 38.096 101.638 37.8005 100.553 37.2353L99.1668 39.896ZM104.207 41.096V44.096C107.53 44.096 110.52 43.1418 112.984 41.1032L111.071 38.792L109.158 36.4808C107.909 37.5142 106.324 38.096 104.207 38.096V41.096ZM111.071 38.792H114.071V29.672H111.071H108.071V38.792H111.071ZM136.918 19.64V16.64H133.918V19.64H136.918ZM136.918 40.76H133.918V43.76H136.918V40.76ZM142.726 40.76H145.726V37.76H142.726V40.76ZM142.726 47V50H145.726V47H142.726ZM123.286 47H120.286V50H123.286V47ZM123.286 40.76V37.76H120.286V40.76H123.286ZM129.142 40.76V43.76H132.142V40.76H129.142ZM129.142 19.64H132.142V16.64H129.142V19.64ZM123.286 19.64H120.286V22.64H123.286V19.64ZM123.286 13.4V10.4H120.286V13.4H123.286ZM142.726 13.4H145.726V10.4H142.726V13.4ZM142.726 19.64V22.64H145.726V19.64H142.726ZM136.918 19.64H133.918V40.76H136.918H139.918V19.64H136.918ZM136.918 40.76V43.76H142.726V40.76V37.76H136.918V40.76ZM142.726 40.76H139.726V47H142.726H145.726V40.76H142.726ZM142.726 47V44H123.286V47V50H142.726V47ZM123.286 47H126.286V40.76H123.286H120.286V47H123.286ZM123.286 40.76V43.76H129.142V40.76V37.76H123.286V40.76ZM129.142 40.76H132.142V19.64H129.142H126.142V40.76H129.142ZM129.142 19.64V16.64H123.286V19.64V22.64H129.142V19.64ZM123.286 19.64H126.286V13.4H123.286H120.286V19.64H123.286ZM123.286 13.4V16.4H142.726V13.4V10.4H123.286V13.4ZM142.726 13.4H139.726V19.64H142.726H145.726V13.4H142.726ZM142.726 19.64V16.64H136.918V19.64V22.64H142.726V19.64ZM181.199 38.12L183.868 39.4904L183.871 39.4832L183.875 39.4759L181.199 38.12ZM176.063 44.072L174.302 41.6428L174.294 41.6489L174.286 41.655L176.063 44.072ZM168.527 47.24L167.996 44.2873L165.527 44.7312V47.24H168.527ZM168.527 53.48V56.48H171.527V53.48H168.527ZM160.703 53.48H157.703V56.48H160.703V53.48ZM160.703 47.24H163.703V44.7363L161.239 44.2884L160.703 47.24ZM153.167 44.072L151.39 46.489L151.398 46.4951L151.406 46.5012L153.167 44.072ZM148.079 38.072L150.755 36.7161L150.755 36.7161L148.079 38.072ZM148.607 21.32L146.037 19.772L146.032 19.7811L148.607 21.32ZM155.183 15.08L153.769 12.4338L153.763 12.4371L153.757 12.4405L155.183 15.08ZM180.623 21.32L178.053 22.868L178.057 22.8749L178.061 22.8818L180.623 21.32ZM168.191 40.424H165.191V44.5082L169.088 43.2867L168.191 40.424ZM173.279 36.728L175.741 38.4425L175.748 38.4323L175.755 38.422L173.279 36.728ZM173.759 24.632L171.129 26.0758L171.14 26.0954L171.151 26.1149L173.759 24.632ZM170.015 20.84L168.51 23.4351L168.529 23.4465L168.549 23.4575L170.015 20.84ZM159.263 20.84L160.729 23.4575L160.748 23.4465L160.768 23.4351L159.263 20.84ZM155.471 24.632L152.863 23.1491L152.852 23.1686L152.841 23.1882L155.471 24.632ZM155.951 36.68L153.468 38.3645L153.479 38.3796L153.489 38.3945L155.951 36.68ZM160.991 40.424L160.042 43.27L163.991 44.5863V40.424H160.991ZM160.991 33.512V30.512H157.991V33.512H160.991ZM168.191 33.512H171.191V30.512H168.191V33.512ZM183.023 30.2H180.023C180.023 32.6429 179.511 34.8137 178.523 36.7641L181.199 38.12L183.875 39.4759C185.319 36.6263 186.023 33.5171 186.023 30.2H183.023ZM181.199 38.12L178.53 36.7496C177.535 38.6877 176.138 40.3124 174.302 41.6428L176.063 44.072L177.823 46.5012C180.403 44.6316 182.431 42.2883 183.868 39.4904L181.199 38.12ZM176.063 44.072L174.286 41.655C172.505 42.9645 170.426 43.8505 167.996 44.2873L168.527 47.24L169.058 50.1927C172.324 49.6055 175.269 48.3795 177.84 46.489L176.063 44.072ZM168.527 47.24H165.527V53.48H168.527H171.527V47.24H168.527ZM168.527 53.48V50.48H160.703V53.48V56.48H168.527V53.48ZM160.703 53.48H163.703V47.24H160.703H157.703V53.48H160.703ZM160.703 47.24L161.239 44.2884C158.843 43.8526 156.753 42.9661 154.927 41.6428L153.167 44.072L151.406 46.5012C153.996 48.3779 156.931 49.6034 160.166 50.1916L160.703 47.24ZM153.167 44.072L154.944 41.655C153.145 40.3323 151.758 38.6952 150.755 36.7161L148.079 38.072L145.403 39.4279C146.832 42.2488 148.837 44.6117 151.39 46.489L153.167 44.072ZM148.079 38.072L150.755 36.7161C149.764 34.7609 149.255 32.6052 149.255 30.2H146.255H143.255C143.255 33.4908 143.961 36.5831 145.403 39.4279L148.079 38.072ZM146.255 30.2H149.255C149.255 27.402 149.914 24.9814 151.182 22.8589L148.607 21.32L146.032 19.7811C144.164 22.9066 143.255 26.406 143.255 30.2H146.255ZM148.607 21.32L151.177 22.868C152.494 20.6814 154.287 18.974 156.609 17.7195L155.183 15.08L153.757 12.4405C150.511 14.194 147.92 16.6466 146.037 19.772L148.607 21.32ZM155.183 15.08L156.596 17.7262C158.938 16.4755 161.597 15.824 164.639 15.824V12.824V9.824C160.704 9.824 157.06 10.6765 153.769 12.4338L155.183 15.08ZM164.639 12.824V15.824C167.681 15.824 170.318 16.4756 172.621 17.7195L174.047 15.08L175.473 12.4405C172.207 10.6764 168.573 9.824 164.639 9.824V12.824ZM174.047 15.08L172.621 17.7195C174.943 18.974 176.736 20.6814 178.053 22.868L180.623 21.32L183.193 19.772C181.31 16.6466 178.719 14.194 175.473 12.4405L174.047 15.08ZM180.623 21.32L178.061 22.8818C179.354 25.0012 180.023 27.4135 180.023 30.2H183.023H186.023C186.023 26.3945 185.092 22.8868 183.184 19.7582L180.623 21.32ZM168.191 40.424L169.088 43.2867C171.847 42.4221 174.101 40.7968 175.741 38.4425L173.279 36.728L170.817 35.0135C169.961 36.2432 168.823 37.0819 167.294 37.5613L168.191 40.424ZM173.279 36.728L175.755 38.422C177.392 36.0298 178.151 33.2428 178.151 30.2H175.151H172.151C172.151 32.2132 171.662 33.7782 170.803 35.0339L173.279 36.728ZM175.151 30.2H178.151C178.151 27.6575 177.579 25.2805 176.367 23.1491L173.759 24.632L171.151 26.1149C171.795 27.2475 172.151 28.5825 172.151 30.2H175.151ZM173.759 24.632L176.389 23.1882C175.227 21.0716 173.579 19.3974 171.481 18.2225L170.015 20.84L168.549 23.4575C169.651 24.0746 170.499 24.9284 171.129 26.0758L173.759 24.632ZM170.015 20.84L171.52 18.2449C169.429 17.0324 167.112 16.448 164.639 16.448V19.448V22.448C166.134 22.448 167.4 22.7916 168.51 23.4351L170.015 20.84ZM164.639 19.448V16.448C162.166 16.448 159.848 17.0324 157.758 18.2449L159.263 20.84L160.768 23.4351C161.877 22.7916 163.144 22.448 164.639 22.448V19.448ZM159.263 20.84L157.797 18.2225C155.708 19.3922 154.054 21.0538 152.863 23.1491L155.471 24.632L158.079 26.1149C158.743 24.9462 159.617 24.0798 160.729 23.4575L159.263 20.84ZM155.471 24.632L152.841 23.1882C151.675 25.3126 151.127 27.6755 151.127 30.2H154.127H157.127C157.127 28.5645 157.475 27.2154 158.101 26.0758L155.471 24.632ZM154.127 30.2H151.127C151.127 33.2256 151.862 35.9965 153.468 38.3645L155.951 36.68L158.433 34.9955C157.608 33.7795 157.127 32.2304 157.127 30.2H154.127ZM155.951 36.68L153.489 38.3945C155.114 40.7278 157.33 42.366 160.042 43.27L160.991 40.424L161.939 37.5779C160.428 37.074 159.284 36.2162 158.413 34.9655L155.951 36.68ZM160.991 40.424H163.991V33.512H160.991H157.991V40.424H160.991ZM160.991 33.512V36.512H168.191V33.512V30.512H160.991V33.512ZM168.191 33.512H165.191V40.424H168.191H171.191V33.512H168.191ZM218.915 13.4H221.915V10.4H218.915V13.4ZM218.915 47V50H221.915V47H218.915ZM211.379 47H208.379V50H211.379V47ZM211.379 42.92H214.379V33.8449L208.97 41.1319L211.379 42.92ZM191.891 43.832L189.631 45.8055L189.645 45.8207L189.658 45.8357L191.891 43.832ZM188.579 13.4V10.4H185.579V13.4H188.579ZM196.355 13.4H199.355V10.4H196.355V13.4ZM198.227 38.936L196.005 40.9514L196.029 40.9785L196.054 41.005L198.227 38.936ZM209.027 38.792L211.172 40.8894L211.183 40.8776L211.195 40.8657L209.027 38.792ZM211.139 13.4V10.4H208.139V13.4H211.139ZM218.915 13.4H215.915V47H218.915H221.915V13.4H218.915ZM218.915 47V44H211.379V47V50H218.915V47ZM211.379 47H214.379V42.92H211.379H208.379V47H211.379ZM211.379 42.92L208.97 41.1319C207.327 43.3453 204.905 44.576 201.203 44.576V47.576V50.576C206.461 50.576 210.823 48.7027 213.788 44.7081L211.379 42.92ZM201.203 47.576V44.576C197.916 44.576 195.69 43.5734 194.124 41.8283L191.891 43.832L189.658 45.8357C192.572 49.0826 196.554 50.576 201.203 50.576V47.576ZM191.891 43.832L194.15 41.8585C192.575 40.0551 191.579 37.2717 191.579 33.08H188.579H185.579C185.579 38.1683 186.79 42.5529 189.631 45.8055L191.891 43.832ZM188.579 33.08H191.579V13.4H188.579H185.579V33.08H188.579ZM188.579 13.4V16.4H196.355V13.4V10.4H188.579V13.4ZM196.355 13.4H193.355V32.84H196.355H199.355V13.4H196.355ZM196.355 32.84H193.355C193.355 35.9441 194.072 38.8206 196.005 40.9514L198.227 38.936L200.449 36.9206C199.886 36.2994 199.355 35.1119 199.355 32.84H196.355ZM198.227 38.936L196.054 41.005C197.999 43.0464 200.568 43.952 203.411 43.952V40.952V37.952C201.902 37.952 201.015 37.5136 200.399 36.867L198.227 38.936ZM203.411 40.952V43.952C206.414 43.952 209.108 42.9996 211.172 40.8894L209.027 38.792L206.882 36.6946C206.129 37.4644 205.08 37.952 203.411 37.952V40.952ZM209.027 38.792L211.195 40.8657C213.318 38.6455 214.139 35.6223 214.139 32.312H211.139H208.139C208.139 34.6977 207.551 35.9945 206.859 36.7183L209.027 38.792ZM211.139 32.312H214.139V13.4H211.139H208.139V32.312H211.139ZM211.139 13.4V16.4H218.915V13.4V10.4H211.139V13.4ZM254.338 44.12L256.025 46.6008L258.037 45.233L257.114 42.9823L254.338 44.12ZM248.29 46.664L247.563 43.7536L247.554 43.7559L248.29 46.664ZM231.97 46.328L230.942 49.1463L230.959 49.1524L230.976 49.1584L231.97 46.328ZM226.594 42.776L224.242 44.6381L224.252 44.6502L224.262 44.6622L226.594 42.776ZM226.258 32.792L228.692 34.5464L228.692 34.5464L226.258 32.792ZM230.338 29.72L231.426 32.516L237.495 30.1557L231.757 27.0765L230.338 29.72ZM227.266 26.84L224.67 28.3431L224.685 28.3684L224.7 28.3934L227.266 26.84ZM227.89 17.768L225.484 15.9762L225.484 15.9762L227.89 17.768ZM232.978 14.168L231.878 11.3772L231.878 11.3772L232.978 14.168ZM247.714 13.496L247.083 16.4287L247.104 16.4334L247.126 16.4377L247.714 13.496ZM253.138 15.224L255.958 16.2474L256.886 13.6929L254.435 12.5185L253.138 15.224ZM250.978 21.176L249.708 23.8938L252.68 25.2826L253.798 22.1994L250.978 21.176ZM235.954 20.264L237.478 22.8481L237.488 22.8423L237.498 22.8365L235.954 20.264ZM235.33 26.024L233.501 28.4019L233.552 28.4407L233.604 28.4774L235.33 26.024ZM248.386 26.936H251.386V23.936H248.386V26.936ZM248.386 33.08V36.08H251.386V33.08H248.386ZM234.226 34.088L232.616 31.557L232.616 31.557L234.226 34.088ZM234.658 40.184L233.17 42.7887L233.206 42.8096L233.243 42.8294L234.658 40.184ZM246.898 40.52L247.648 43.4248L247.67 43.4192L247.692 43.4132L246.898 40.52ZM251.938 38.264L254.714 37.1263L253.294 33.6604L250.222 35.8036L251.938 38.264ZM254.338 44.12L252.652 41.6392C251.416 42.4797 249.748 43.2072 247.563 43.7536L248.29 46.664L249.018 49.5744C251.697 48.9048 254.061 47.9363 256.025 46.6008L254.338 44.12ZM248.29 46.664L247.554 43.7559C245.417 44.2972 243.106 44.576 240.61 44.576V47.576V50.576C243.555 50.576 246.364 50.2468 249.027 49.5721L248.29 46.664ZM240.61 47.576V44.576C237.446 44.576 234.923 44.1856 232.965 43.4976L231.97 46.328L230.976 49.1584C233.754 50.1344 236.991 50.576 240.61 50.576V47.576ZM231.97 46.328L232.999 43.5097C230.99 42.777 229.712 41.8605 228.927 40.8898L226.594 42.776L224.262 44.6622C225.909 46.6995 228.214 48.151 230.942 49.1463L231.97 46.328ZM226.594 42.776L228.947 40.9139C228.148 39.9058 227.77 38.8174 227.77 37.544H224.77H221.77C221.77 40.1746 222.608 42.5742 224.242 44.6381L226.594 42.776ZM224.77 37.544H227.77C227.77 36.344 228.09 35.3818 228.692 34.5464L226.258 32.792L223.825 31.0376C222.443 32.9542 221.77 35.16 221.77 37.544H224.77ZM226.258 32.792L228.692 34.5464C229.314 33.6838 230.185 32.9984 231.426 32.516L230.338 29.72L229.251 26.924C227.035 27.7856 225.187 29.1482 223.825 31.0376L226.258 32.792ZM230.338 29.72L231.757 27.0765C230.895 26.6139 230.277 26.0207 229.833 25.2866L227.266 26.84L224.7 28.3934C225.728 30.0913 227.158 31.4181 228.92 32.3635L230.338 29.72ZM227.266 26.84L229.863 25.3369C229.442 24.6099 229.21 23.7746 229.21 22.76H226.21H223.21C223.21 24.7534 223.683 26.6381 224.67 28.3431L227.266 26.84ZM226.21 22.76H229.21C229.21 21.6008 229.551 20.5616 230.297 19.5598L227.89 17.768L225.484 15.9762C223.99 17.9824 223.21 20.2712 223.21 22.76H226.21ZM227.89 17.768L230.297 19.5598C230.996 18.6204 232.173 17.7107 234.079 16.9588L232.978 14.168L231.878 11.3772C229.24 12.4173 227.025 13.9076 225.484 15.9762L227.89 17.768ZM232.978 14.168L234.079 16.9588C235.901 16.2401 238.288 15.824 241.33 15.824V12.824V9.824C237.781 9.824 234.599 10.3039 231.878 11.3772L232.978 14.168ZM241.33 12.824V15.824C243.299 15.824 245.215 16.0265 247.083 16.4287L247.714 13.496L248.346 10.5633C246.054 10.0695 243.714 9.824 241.33 9.824V12.824ZM247.714 13.496L247.126 16.4377C249.018 16.8162 250.578 17.3239 251.842 17.9294L253.138 15.224L254.435 12.5185C252.626 11.6521 250.571 11.0078 248.303 10.5543L247.714 13.496ZM253.138 15.224L250.318 14.2006L248.158 20.1526L250.978 21.176L253.798 22.1994L255.958 16.2474L253.138 15.224ZM250.978 21.176L252.249 18.4582C248.901 16.8936 245.347 16.112 241.618 16.112V19.112V22.112C244.482 22.112 247.168 22.7064 249.708 23.8938L250.978 21.176ZM241.618 19.112V16.112C238.903 16.112 236.373 16.514 234.411 17.6915L235.954 20.264L237.498 22.8365C238.095 22.478 239.341 22.112 241.618 22.112V19.112ZM235.954 20.264L234.43 17.6799C232.412 18.8701 231.082 20.7884 231.082 23.288H234.082H237.082C237.082 23.2136 237.091 23.1776 237.094 23.1684C237.096 23.1607 237.097 23.1577 237.101 23.1511C237.107 23.1423 237.181 23.0234 237.478 22.8481L235.954 20.264ZM234.082 23.288H231.082C231.082 25.2675 231.83 27.1159 233.501 28.4019L235.33 26.024L237.16 23.6461C237.144 23.6344 237.135 23.6257 237.13 23.6206C237.127 23.618 237.125 23.6161 237.124 23.6149C237.123 23.6137 237.122 23.6131 237.122 23.613C237.122 23.613 237.122 23.6132 237.123 23.6138C237.123 23.6143 237.124 23.615 237.124 23.6156C237.125 23.6171 237.125 23.6172 237.124 23.615C237.124 23.6142 237.082 23.5273 237.082 23.288H234.082ZM235.33 26.024L233.604 28.4774C235.203 29.6028 237.23 29.936 239.218 29.936V26.936V23.936C237.751 23.936 237.186 23.6612 237.057 23.5706L235.33 26.024ZM239.218 26.936V29.936H248.386V26.936V23.936H239.218V26.936ZM248.386 26.936H245.386V33.08H248.386H251.386V26.936H248.386ZM248.386 33.08V30.08H238.738V33.08V36.08H248.386V33.08ZM238.738 33.08V30.08C236.509 30.08 234.352 30.4521 232.616 31.557L234.226 34.088L235.837 36.619C236.213 36.3799 237.063 36.08 238.738 36.08V33.08ZM234.226 34.088L232.616 31.557C230.671 32.7946 229.642 34.7385 229.642 37.016H232.642H235.642C235.642 36.9024 235.654 36.8326 235.663 36.7967C235.667 36.7785 235.671 36.7672 235.673 36.7611C235.675 36.7552 235.677 36.7524 235.677 36.7515C235.678 36.7506 235.678 36.7491 235.68 36.7463C235.682 36.7436 235.687 36.7374 235.696 36.7279C235.714 36.7095 235.756 36.6708 235.837 36.619L234.226 34.088ZM232.642 37.016H229.642C229.642 39.619 231.061 41.5837 233.17 42.7887L234.658 40.184L236.147 37.5793C235.799 37.3807 235.697 37.2361 235.677 37.2054C235.667 37.1885 235.662 37.1765 235.657 37.1611C235.653 37.1442 235.642 37.0999 235.642 37.016H232.642ZM234.658 40.184L233.243 42.8294C235.278 43.9177 237.975 44.288 240.946 44.288V41.288V38.288C238.286 38.288 236.791 37.9223 236.073 37.5386L234.658 40.184ZM240.946 41.288V44.288C243.192 44.288 245.427 43.9979 247.648 43.4248L246.898 40.52L246.149 37.6152C244.402 38.0661 242.669 38.288 240.946 38.288V41.288ZM246.898 40.52L247.692 43.4132C249.934 42.7984 251.943 41.9189 253.655 40.7244L251.938 38.264L250.222 35.8036C249.182 36.5291 247.831 37.1536 246.105 37.6268L246.898 40.52ZM251.938 38.264L249.163 39.4017L251.563 45.2577L254.338 44.12L257.114 42.9823L254.714 37.1263L251.938 38.264ZM262.21 46.52L261.351 49.3945L261.374 49.4011L261.396 49.4073L262.21 46.52ZM256.258 43.688L253.523 42.455L252.546 44.6233L254.434 46.0696L256.258 43.688ZM258.898 37.832L260.672 35.4128L257.685 33.2225L256.163 36.599L258.898 37.832ZM264.034 40.376L264.955 37.5209L264.955 37.5209L264.034 40.376ZM274.882 40.376L276.437 42.9416L276.465 42.9246L276.493 42.907L274.882 40.376ZM275.506 35.768L273.506 38.0037L273.567 38.0589L273.632 38.1106L275.506 35.768ZM273.106 34.472L272.157 37.318L272.171 37.3227L272.185 37.3271L273.106 34.472ZM269.17 33.416L268.477 36.3348L268.486 36.337L268.495 36.3392L269.17 33.416ZM262.882 31.592L263.929 28.7808L263.929 28.7808L262.882 31.592ZM258.658 28.664L256.38 30.6164L256.394 30.6318L256.407 30.6471L258.658 28.664ZM258.514 18.008L261.002 19.6838L261.01 19.6722L261.018 19.6605L258.514 18.008ZM263.266 14.216L262.074 11.4628L262.067 11.4661L262.059 11.4694L263.266 14.216ZM277.378 13.592L278.106 10.6816L278.106 10.6816L277.378 13.592ZM282.754 15.8L285.533 16.9297L286.483 14.5929L284.344 13.256L282.754 15.8ZM280.354 21.704L278.874 24.3137L281.847 25.9989L283.133 22.8337L280.354 21.704ZM266.194 20.12L264.53 17.6238L264.512 17.6357L264.494 17.6479L266.194 20.12ZM266.434 25.496L265.122 28.1937L265.165 28.2148L265.209 28.2345L266.434 25.496ZM271.954 27.128L272.647 24.2092L272.624 24.2037L272.601 24.1985L271.954 27.128ZM278.242 28.952L279.289 26.1408L279.289 26.1408L278.242 28.952ZM282.418 31.832L280.164 33.8114L280.177 33.8267L280.191 33.8419L282.418 31.832ZM282.562 42.44L280.081 40.7531L280.074 40.7642L282.562 42.44ZM277.762 46.184L276.57 43.4308L276.57 43.4308L277.762 46.184ZM269.938 47.576V44.576C267.551 44.576 265.249 44.2601 263.024 43.6327L262.21 46.52L261.396 49.4073C264.163 50.1879 267.013 50.576 269.938 50.576V47.576ZM262.21 46.52L263.069 43.6455C260.837 42.9789 259.214 42.1732 258.082 41.3064L256.258 43.688L254.434 46.0696C256.31 47.5068 258.655 48.5891 261.351 49.3945L262.21 46.52ZM256.258 43.688L258.993 44.921L261.633 39.065L258.898 37.832L256.163 36.599L253.523 42.455L256.258 43.688ZM258.898 37.832L257.124 40.2512C258.862 41.5261 260.873 42.5086 263.113 43.2311L264.034 40.376L264.955 37.5209C263.227 36.9634 261.814 36.2499 260.672 35.4128L258.898 37.832ZM264.034 40.376L263.113 43.2311C265.379 43.9622 267.674 44.336 269.986 44.336V41.336V38.336C268.33 38.336 266.657 38.0698 264.955 37.5209L264.034 40.376ZM269.986 41.336V44.336C272.369 44.336 274.672 44.0113 276.437 42.9416L274.882 40.376L273.327 37.8104C272.98 38.0207 272.019 38.336 269.986 38.336V41.336ZM274.882 40.376L276.493 42.907C278.261 41.7816 279.466 40.0187 279.466 37.736H276.466H273.466C273.466 37.7633 273.463 37.7597 273.47 37.7356C273.476 37.7104 273.487 37.6858 273.498 37.6685C273.52 37.6309 273.492 37.705 273.271 37.845L274.882 40.376ZM276.466 37.736H279.466C279.466 35.999 278.712 34.4905 277.38 33.4254L275.506 35.768L273.632 38.1106C273.648 38.1235 273.587 38.0769 273.53 37.9593C273.471 37.8395 273.466 37.7474 273.466 37.736H276.466ZM275.506 35.768L277.506 33.5323C276.512 32.6425 275.312 32.0312 274.027 31.6169L273.106 34.472L272.185 37.3271C272.885 37.5528 273.284 37.8055 273.506 38.0037L275.506 35.768ZM273.106 34.472L274.055 31.626C272.964 31.2625 271.548 30.8858 269.845 30.4928L269.17 33.416L268.495 36.3392C270.12 36.7142 271.328 37.0415 272.157 37.318L273.106 34.472ZM269.17 33.416L269.863 30.4972C267.369 29.9049 265.403 29.3298 263.929 28.7808L262.882 31.592L261.835 34.4032C263.625 35.0702 265.851 35.7111 268.477 36.3348L269.17 33.416ZM262.882 31.592L263.929 28.7808C262.774 28.3504 261.776 27.6648 260.909 26.6809L258.658 28.664L256.407 30.6471C257.908 32.3512 259.726 33.6176 261.835 34.4032L262.882 31.592ZM258.658 28.664L260.936 26.7116C260.363 26.0434 259.93 25.0074 259.93 23.288H256.93H253.93C253.93 26.0486 254.649 28.5966 256.38 30.6164L258.658 28.664ZM256.93 23.288H259.93C259.93 21.9124 260.291 20.7397 261.002 19.6838L258.514 18.008L256.026 16.3322C254.625 18.4123 253.93 20.7595 253.93 23.288H256.93ZM258.514 18.008L261.018 19.6605C261.696 18.6327 262.781 17.706 264.473 16.9626L263.266 14.216L262.059 11.4694C259.527 12.582 257.444 14.1833 256.01 16.3555L258.514 18.008ZM263.266 14.216L264.458 16.9692C266.127 16.2466 268.305 15.824 271.09 15.824V12.824V9.824C267.731 9.824 264.693 10.3294 262.074 11.4628L263.266 14.216ZM271.09 12.824V15.824C272.993 15.824 274.844 16.0508 276.65 16.5024L277.378 13.592L278.106 10.6816C275.816 10.1092 273.475 9.824 271.09 9.824V12.824ZM277.378 13.592L276.65 16.5024C278.443 16.9505 279.934 17.5755 281.164 18.344L282.754 15.8L284.344 13.256C282.502 12.1045 280.409 11.2575 278.106 10.6816L277.378 13.592ZM282.754 15.8L279.975 14.6703L277.575 20.5743L280.354 21.704L283.133 22.8337L285.533 16.9297L282.754 15.8ZM280.354 21.704L281.834 19.0943C278.347 17.1172 274.738 16.064 271.042 16.064V19.064V22.064C273.554 22.064 276.153 22.7708 278.874 24.3137L280.354 21.704ZM271.042 19.064V16.064C268.649 16.064 266.319 16.4313 264.53 17.6238L266.194 20.12L267.858 22.6162C268.181 22.4007 269.083 22.064 271.042 22.064V19.064ZM266.194 20.12L264.494 17.6479C262.732 18.8596 261.658 20.6758 261.658 22.904H264.658H267.658C267.658 22.8395 267.665 22.8074 267.667 22.7991C267.668 22.7942 267.669 22.7926 267.669 22.7931C267.669 22.7937 267.668 22.7939 267.669 22.7932C267.669 22.7925 267.671 22.7887 267.677 22.7816C267.682 22.7744 267.691 22.7624 267.707 22.7461C267.737 22.7134 267.795 22.66 267.894 22.5921L266.194 20.12ZM264.658 22.904H261.658C261.658 24.0221 261.955 25.1307 262.627 26.1117C263.284 27.0698 264.18 27.7358 265.122 28.1937L266.434 25.496L267.746 22.7983C267.626 22.7396 267.566 22.6959 267.546 22.6797C267.529 22.6654 267.547 22.6769 267.577 22.7203C267.591 22.7411 267.605 22.7655 267.618 22.7927C267.631 22.8199 267.641 22.8459 267.648 22.8687C267.662 22.9163 267.658 22.9333 267.658 22.904H264.658ZM266.434 25.496L265.209 28.2345C266.709 28.9053 268.787 29.5011 271.307 30.0575L271.954 27.128L272.601 24.1985C270.193 23.6669 268.592 23.1747 267.659 22.7575L266.434 25.496ZM271.954 27.128L271.261 30.0468C273.755 30.6391 275.721 31.2142 277.195 31.7632L278.242 28.952L279.289 26.1408C277.499 25.4738 275.273 24.8329 272.647 24.2092L271.954 27.128ZM278.242 28.952L277.195 31.7632C278.361 32.1976 279.338 32.8712 280.164 33.8114L282.418 31.832L284.672 29.8526C283.194 28.1688 281.388 26.9224 279.289 26.1408L278.242 28.952ZM282.418 31.832L280.191 33.8419C280.755 34.467 281.194 35.4569 281.194 37.16H284.194H287.194C287.194 34.3831 286.449 31.821 284.645 29.8221L282.418 31.832ZM284.194 37.16H281.194C281.194 38.4734 280.834 39.6465 280.081 40.7531L282.562 42.44L285.043 44.1269C286.466 42.0335 287.194 39.6866 287.194 37.16H284.194ZM282.562 42.44L280.074 40.7642C279.406 41.7555 278.312 42.6768 276.57 43.4308L277.762 46.184L278.954 48.9372C281.5 47.8352 283.606 46.2605 285.05 44.1158L282.562 42.44ZM277.762 46.184L276.57 43.4308C274.901 44.1534 272.723 44.576 269.938 44.576V47.576V50.576C273.297 50.576 276.335 50.0706 278.954 48.9372L277.762 46.184Z" fill="black" mask="url(#path-3-outside-2_294_2746)"/>
</svg>
