<svg width="37" height="37" viewBox="0 0 37 37" fill="none" xmlns="http://www.w3.org/2000/svg">
<path d="M27.1544 23.9187C29.3935 20.8628 30.3964 17.0741 29.9624 13.3105C29.5284 9.54688 27.6896 6.08594 24.8137 3.62008C21.9379 1.15421 18.2372 -0.134715 14.452 0.0111568C10.6667 0.157029 7.07617 1.72694 4.39859 4.40682C1.72101 7.08669 0.153887 10.6789 0.0107447 14.4647C-0.132398 18.2506 1.159 21.9509 3.62657 24.8254C6.09414 27.6998 9.55592 29.5365 13.3193 29.9678C17.0827 30.3992 20.8702 29.3935 23.924 27.1519H23.9217C23.9895 27.2444 24.065 27.3331 24.1483 27.4179L33.0511 36.3219C33.4847 36.7559 34.0729 36.9998 34.6863 37C35.2997 37.0002 35.8881 36.7567 36.322 36.3231C36.7559 35.8894 36.9998 35.3011 37 34.6876C37.0002 34.0741 36.7567 33.4857 36.3231 33.0517L27.4204 24.1476C27.3377 24.0639 27.2488 23.9889 27.1544 23.9187ZM27.751 15.0285C27.751 16.6989 27.4221 18.353 26.7829 19.8963C26.1438 21.4395 25.2069 22.8418 24.0259 24.023C22.8449 25.2041 21.4429 26.1411 19.8998 26.7803C18.3568 27.4196 16.7029 27.7486 15.0328 27.7486C13.3626 27.7486 11.7087 27.4196 10.1657 26.7803C8.62264 26.1411 7.22059 25.2041 6.03958 24.023C4.85858 22.8418 3.92176 21.4395 3.28261 19.8963C2.64346 18.353 2.31449 16.6989 2.31449 15.0285C2.31449 11.6549 3.65445 8.41955 6.03959 6.03407C8.42472 3.6486 11.6597 2.30845 15.0328 2.30845C18.4059 2.30845 21.6408 3.6486 24.0259 6.03407C26.4111 8.41955 27.751 11.6549 27.751 15.0285Z" fill="white"/>
</svg>
