<svg width="31" height="32" viewBox="0 0 31 32" fill="none" xmlns="http://www.w3.org/2000/svg">
<g clip-path="url(#clip0_219_5904)">
<path d="M0.00390625 6C0.00390625 4.93913 0.412164 3.92172 1.13887 3.17157C1.86557 2.42143 2.85119 2 3.87891 2H27.1289C28.1566 2 29.1422 2.42143 29.8689 3.17157C30.5956 3.92172 31.0039 4.93913 31.0039 6V26C31.0039 27.0609 30.5956 28.0783 29.8689 28.8284C29.1422 29.5786 28.1566 30 27.1289 30H3.87891C2.85119 30 1.86557 29.5786 1.13887 28.8284C0.412164 28.0783 0.00390625 27.0609 0.00390625 26V6ZM1.94141 24V26C1.94141 26.5304 2.14554 27.0391 2.50889 27.4142C2.87224 27.7893 3.36505 28 3.87891 28H27.1289C27.6428 28 28.1356 27.7893 28.4989 27.4142C28.8623 27.0391 29.0664 26.5304 29.0664 26V19L21.7485 15.106C21.5668 15.012 21.3611 14.9795 21.1604 15.0128C20.9598 15.0462 20.7744 15.1439 20.6305 15.292L13.4424 22.712L8.28866 19.168C8.10258 19.0401 7.87938 18.9826 7.65691 19.0052C7.43444 19.0278 7.22639 19.1291 7.06803 19.292L1.94141 24ZM11.6289 11C11.6289 10.2044 11.3227 9.44129 10.7777 8.87868C10.2327 8.31607 9.49344 8 8.72266 8C7.95187 8 7.21265 8.31607 6.66763 8.87868C6.1226 9.44129 5.81641 10.2044 5.81641 11C5.81641 11.7956 6.1226 12.5587 6.66763 13.1213C7.21265 13.6839 7.95187 14 8.72266 14C9.49344 14 10.2327 13.6839 10.7777 13.1213C11.3227 12.5587 11.6289 11.7956 11.6289 11Z" fill="#95C11F"/>
</g>
<defs>
<clipPath id="clip0_219_5904">
<rect width="31" height="32" fill="white"/>
</clipPath>
</defs>
</svg>
