<svg width="454" height="134" viewBox="0 0 454 134" fill="none" xmlns="http://www.w3.org/2000/svg">
<path d="M368.912 30.9515C312.298 9.31407 303.575 90.7763 365.883 78.7687" stroke="white" stroke-width="6"/>
<path d="M447 55.3374H410" stroke="white" stroke-width="6"/>
<path d="M376 86.8374L450 118.337V6.3374H376" stroke="white" stroke-width="6"/>
<circle cx="166.5" cy="33.8374" r="33.5" fill="white"/>
<circle cx="166.5" cy="33.8374" r="27.5" fill="#A4957C"/>
<path d="M367.063 3.3374V86.3374" stroke="white" stroke-width="6"/>
<path d="M247 3.3374H361V9.3374H253.135L247 3.3374Z" fill="white"/>
<path d="M256 14.3374H361V20.3374L257 19.8374L256 14.3374Z" fill="white"/>
<path d="M236 39.8374C253.355 43.5177 247.826 54.4571 266 62.3374M293.5 24.3374V45.8374V69.5874" stroke="white" stroke-width="6"/>
<path d="M215.647 41.5228C268.758 46.5944 258.972 -12.7536 208.11 7.0659" stroke="white" stroke-width="6"/>
<path d="M210.055 63.5069L210.067 34.6847L210.055 3.83742" stroke="white" stroke-width="6"/>
<path d="M127.342 4.28024C56.4572 -7.92172 67.092 102.964 136 68.7564" stroke="white" stroke-width="6"/>
<path d="M6 56.3374H43" stroke="white" stroke-width="6"/>
<path d="M80.5 85.8374L3 119.337V3.3374H80.5" stroke="white" stroke-width="6"/>
<path d="M2 130.337C175.682 46.0976 274.286 46.5775 452 130.337" stroke="white" stroke-width="6"/>
</svg>
