<svg width="454" height="133" viewBox="0 0 454 133" fill="none" xmlns="http://www.w3.org/2000/svg">
<path d="M368.912 31.6141C312.298 9.97667 303.575 91.4389 365.883 79.4313" stroke="white" stroke-width="6"/>
<path d="M447 56H410" stroke="white" stroke-width="6"/>
<path d="M376 87.5L450 119V7H376" stroke="white" stroke-width="6"/>
<circle cx="166.5" cy="34.5" r="33.5" fill="white"/>
<circle cx="166.5" cy="34.5" r="27.5" fill="#A4957C"/>
<path d="M367.063 4V87" stroke="white" stroke-width="6"/>
<path d="M247 4H361V10H253.135L247 4Z" fill="white"/>
<path d="M256 15H361V21L257 20.5L256 15Z" fill="white"/>
<path d="M236 40.5C253.355 44.1803 247.826 55.1197 266 63M293.5 25V46.5V70.25" stroke="white" stroke-width="6"/>
<path d="M215.647 42.1854C268.758 47.257 258.972 -12.091 208.11 7.7285" stroke="white" stroke-width="6"/>
<path d="M210.055 64.1695L210.067 35.3473L210.055 4.50002" stroke="white" stroke-width="6"/>
<path d="M127.342 4.94283C56.4572 -7.25913 67.092 103.627 136 69.419" stroke="white" stroke-width="6"/>
<path d="M6 57H43" stroke="white" stroke-width="6"/>
<path d="M76 87L3 116V4H77" stroke="white" stroke-width="6"/>
<path d="M2 131C175.682 46.7602 274.286 47.2401 452 131" stroke="white" stroke-width="6"/>
</svg>
