<svg width="425" height="142" viewBox="0 0 425 142" fill="none" xmlns="http://www.w3.org/2000/svg">
<mask id="path-1-outside-1_293_2742" maskUnits="userSpaceOnUse" x="0" y="0" width="425" height="142" fill="black">
<rect fill="white" width="425" height="142"/>
<path d="M92.8852 111.32C105.485 111.32 116.105 106.34 124.745 96.38L143.285 113.66C137.285 120.98 129.845 126.56 120.965 130.4C112.205 134.24 102.365 136.16 91.4452 136.16C81.0052 136.16 71.2852 134.3 62.2852 130.58C53.4052 126.86 45.8452 121.58 39.6052 114.74C33.3652 107.9 28.8652 99.98 26.1052 90.98H5.76523V75.86H23.4052C23.2852 74.78 23.2252 73.16 23.2252 71C23.2252 68.84 23.2852 67.22 23.4052 66.14H5.76523V51.02H26.1052C28.8652 42.02 33.3652 34.1 39.6052 27.26C45.8452 20.42 53.4052 15.14 62.2852 11.42C71.2852 7.7 81.0052 5.84 91.4452 5.84C102.365 5.84 112.205 7.76 120.965 11.6C129.845 15.44 137.285 20.96 143.285 28.16L124.745 45.44C115.985 35.6 105.365 30.68 92.8852 30.68C84.9652 30.68 77.8852 32.48 71.6452 36.08C65.4052 39.68 60.6052 44.66 57.2452 51.02H102.785V66.14H52.7452C52.6252 67.22 52.5652 68.84 52.5652 71C52.5652 73.16 52.6252 74.78 52.7452 75.86H102.785V90.98H57.2452C60.6052 97.34 65.4052 102.32 71.6452 105.92C77.8852 109.52 84.9652 111.32 92.8852 111.32ZM220.625 136.16C207.785 136.16 196.145 133.4 185.705 127.88C175.385 122.24 167.225 114.5 161.225 104.66C155.345 94.7 152.405 83.48 152.405 71C152.405 58.52 155.345 47.36 161.225 37.52C167.225 27.56 175.385 19.82 185.705 14.3C196.145 8.66 207.845 5.84 220.805 5.84C231.725 5.84 241.565 7.76 250.325 11.6C259.205 15.44 266.645 20.96 272.645 28.16L253.925 45.44C245.405 35.6 234.845 30.68 222.245 30.68C214.445 30.68 207.485 32.42 201.365 35.9C195.245 39.26 190.445 44 186.965 50.12C183.605 56.24 181.925 63.2 181.925 71C181.925 78.8 183.605 85.76 186.965 91.88C190.445 98 195.245 102.8 201.365 106.28C207.485 109.64 214.445 111.32 222.245 111.32C234.845 111.32 245.405 106.34 253.925 96.38L272.645 113.66C266.645 120.98 259.205 126.56 250.325 130.4C241.445 134.24 231.545 136.16 220.625 136.16ZM350.72 136.16C337.64 136.16 325.82 133.34 315.26 127.7C304.82 122.06 296.6 114.32 290.6 104.48C284.72 94.52 281.78 83.36 281.78 71C281.78 58.64 284.72 47.54 290.6 37.7C296.6 27.74 304.82 19.94 315.26 14.3C325.82 8.66 337.64 5.84 350.72 5.84C363.8 5.84 375.56 8.66 386 14.3C396.44 19.94 404.66 27.74 410.66 37.7C416.66 47.54 419.66 58.64 419.66 71C419.66 83.36 416.66 94.52 410.66 104.48C404.66 114.32 396.44 122.06 386 127.7C375.56 133.34 363.8 136.16 350.72 136.16ZM350.72 111.32C358.16 111.32 364.88 109.64 370.88 106.28C376.88 102.8 381.56 98 384.92 91.88C388.4 85.76 390.14 78.8 390.14 71C390.14 63.2 388.4 56.24 384.92 50.12C381.56 44 376.88 39.26 370.88 35.9C364.88 32.42 358.16 30.68 350.72 30.68C343.28 30.68 336.56 32.42 330.56 35.9C324.56 39.26 319.82 44 316.34 50.12C312.98 56.24 311.3 63.2 311.3 71C311.3 78.8 312.98 85.76 316.34 91.88C319.82 98 324.56 102.8 330.56 106.28C336.56 109.64 343.28 111.32 350.72 111.32Z"/>
</mask>
<path d="M92.8852 111.32C105.485 111.32 116.105 106.34 124.745 96.38L143.285 113.66C137.285 120.98 129.845 126.56 120.965 130.4C112.205 134.24 102.365 136.16 91.4452 136.16C81.0052 136.16 71.2852 134.3 62.2852 130.58C53.4052 126.86 45.8452 121.58 39.6052 114.74C33.3652 107.9 28.8652 99.98 26.1052 90.98H5.76523V75.86H23.4052C23.2852 74.78 23.2252 73.16 23.2252 71C23.2252 68.84 23.2852 67.22 23.4052 66.14H5.76523V51.02H26.1052C28.8652 42.02 33.3652 34.1 39.6052 27.26C45.8452 20.42 53.4052 15.14 62.2852 11.42C71.2852 7.7 81.0052 5.84 91.4452 5.84C102.365 5.84 112.205 7.76 120.965 11.6C129.845 15.44 137.285 20.96 143.285 28.16L124.745 45.44C115.985 35.6 105.365 30.68 92.8852 30.68C84.9652 30.68 77.8852 32.48 71.6452 36.08C65.4052 39.68 60.6052 44.66 57.2452 51.02H102.785V66.14H52.7452C52.6252 67.22 52.5652 68.84 52.5652 71C52.5652 73.16 52.6252 74.78 52.7452 75.86H102.785V90.98H57.2452C60.6052 97.34 65.4052 102.32 71.6452 105.92C77.8852 109.52 84.9652 111.32 92.8852 111.32ZM220.625 136.16C207.785 136.16 196.145 133.4 185.705 127.88C175.385 122.24 167.225 114.5 161.225 104.66C155.345 94.7 152.405 83.48 152.405 71C152.405 58.52 155.345 47.36 161.225 37.52C167.225 27.56 175.385 19.82 185.705 14.3C196.145 8.66 207.845 5.84 220.805 5.84C231.725 5.84 241.565 7.76 250.325 11.6C259.205 15.44 266.645 20.96 272.645 28.16L253.925 45.44C245.405 35.6 234.845 30.68 222.245 30.68C214.445 30.68 207.485 32.42 201.365 35.9C195.245 39.26 190.445 44 186.965 50.12C183.605 56.24 181.925 63.2 181.925 71C181.925 78.8 183.605 85.76 186.965 91.88C190.445 98 195.245 102.8 201.365 106.28C207.485 109.64 214.445 111.32 222.245 111.32C234.845 111.32 245.405 106.34 253.925 96.38L272.645 113.66C266.645 120.98 259.205 126.56 250.325 130.4C241.445 134.24 231.545 136.16 220.625 136.16ZM350.72 136.16C337.64 136.16 325.82 133.34 315.26 127.7C304.82 122.06 296.6 114.32 290.6 104.48C284.72 94.52 281.78 83.36 281.78 71C281.78 58.64 284.72 47.54 290.6 37.7C296.6 27.74 304.82 19.94 315.26 14.3C325.82 8.66 337.64 5.84 350.72 5.84C363.8 5.84 375.56 8.66 386 14.3C396.44 19.94 404.66 27.74 410.66 37.7C416.66 47.54 419.66 58.64 419.66 71C419.66 83.36 416.66 94.52 410.66 104.48C404.66 114.32 396.44 122.06 386 127.7C375.56 133.34 363.8 136.16 350.72 136.16ZM350.72 111.32C358.16 111.32 364.88 109.64 370.88 106.28C376.88 102.8 381.56 98 384.92 91.88C388.4 85.76 390.14 78.8 390.14 71C390.14 63.2 388.4 56.24 384.92 50.12C381.56 44 376.88 39.26 370.88 35.9C364.88 32.42 358.16 30.68 350.72 30.68C343.28 30.68 336.56 32.42 330.56 35.9C324.56 39.26 319.82 44 316.34 50.12C312.98 56.24 311.3 63.2 311.3 71C311.3 78.8 312.98 85.76 316.34 91.88C319.82 98 324.56 102.8 330.56 106.28C336.56 109.64 343.28 111.32 350.72 111.32Z" fill="white"/>
<path d="M124.745 96.38L128.154 92.7224L124.364 89.1894L120.968 93.1036L124.745 96.38ZM143.285 113.66L147.152 116.83L150.126 113.201L146.694 110.002L143.285 113.66ZM120.965 130.4L118.981 125.811L118.969 125.816L118.958 125.821L120.965 130.4ZM62.2852 130.58L60.3533 135.192L60.3643 135.196L60.3753 135.201L62.2852 130.58ZM39.6052 114.74L43.2991 111.37L43.2991 111.37L39.6052 114.74ZM26.1052 90.98L30.8855 89.514L29.8017 85.98H26.1052V90.98ZM5.76523 90.98H0.765235V95.98H5.76523V90.98ZM5.76523 75.86V70.86H0.765235V75.86H5.76523ZM23.4052 75.86V80.86H28.9916L28.3747 75.3078L23.4052 75.86ZM23.4052 66.14L28.3747 66.6922L28.9916 61.14H23.4052V66.14ZM5.76523 66.14H0.765235V71.14H5.76523V66.14ZM5.76523 51.02V46.02H0.765235V51.02H5.76523ZM26.1052 51.02V56.02H29.8017L30.8855 52.4859L26.1052 51.02ZM39.6052 27.26L35.9114 23.8902L35.9114 23.8902L39.6052 27.26ZM62.2852 11.42L60.3753 6.79915L60.3643 6.8037L60.3533 6.8083L62.2852 11.42ZM120.965 11.6L118.958 16.1793L118.969 16.1843L118.981 16.1893L120.965 11.6ZM143.285 28.16L146.694 31.8176L150.154 28.5927L147.126 24.9591L143.285 28.16ZM124.745 45.44L121.011 48.7646L124.412 52.5855L128.154 49.0976L124.745 45.44ZM71.6452 36.08L69.1466 31.7491L69.1466 31.7491L71.6452 36.08ZM57.2452 51.02L52.8243 48.6844L48.9489 56.02H57.2452V51.02ZM102.785 51.02H107.785V46.02H102.785V51.02ZM102.785 66.14V71.14H107.785V66.14H102.785ZM52.7452 66.14V61.14H48.27L47.7758 65.5878L52.7452 66.14ZM52.7452 75.86L47.7758 76.4121L48.27 80.86H52.7452V75.86ZM102.785 75.86H107.785V70.86H102.785V75.86ZM102.785 90.98V95.98H107.785V90.98H102.785ZM57.2452 90.98V85.98H48.9489L52.8243 93.3156L57.2452 90.98ZM71.6452 105.92L74.1439 101.589L74.1439 101.589L71.6452 105.92ZM92.8852 111.32V116.32C107.01 116.32 118.983 110.653 128.522 99.6564L124.745 96.38L120.968 93.1036C113.228 102.027 103.961 106.32 92.8852 106.32V111.32ZM124.745 96.38L121.336 100.038L139.876 117.318L143.285 113.66L146.694 110.002L128.154 92.7224L124.745 96.38ZM143.285 113.66L139.418 110.49C133.935 117.18 127.146 122.28 118.981 125.811L120.965 130.4L122.95 134.989C132.545 130.84 140.635 124.78 147.152 116.83L143.285 113.66ZM120.965 130.4L118.958 125.821C110.914 129.347 101.772 131.16 91.4452 131.16V136.16V141.16C102.959 141.16 113.496 139.133 122.973 134.979L120.965 130.4ZM91.4452 136.16V131.16C81.6129 131.16 72.5469 129.411 64.1952 125.959L62.2852 130.58L60.3753 135.201C70.0235 139.189 80.3976 141.16 91.4452 141.16V136.16ZM62.2852 130.58L64.2172 125.968C55.9803 122.518 49.0294 117.652 43.2991 111.37L39.6052 114.74L35.9114 118.11C42.6611 125.508 50.8301 131.202 60.3533 135.192L62.2852 130.58ZM39.6052 114.74L43.2991 111.37C37.5661 105.086 33.4324 97.8191 30.8855 89.514L26.1052 90.98L21.325 92.4459C24.2981 102.141 29.1643 110.714 35.9114 118.11L39.6052 114.74ZM26.1052 90.98V85.98H5.76523V90.98V95.98H26.1052V90.98ZM5.76523 90.98H10.7652V75.86H5.76523H0.765235V90.98H5.76523ZM5.76523 75.86V80.86H23.4052V75.86V70.86H5.76523V75.86ZM23.4052 75.86L28.3747 75.3078C28.2863 74.5126 28.2252 73.118 28.2252 71H23.2252H18.2252C18.2252 73.202 18.2842 75.0474 18.4358 76.4122L23.4052 75.86ZM23.2252 71H28.2252C28.2252 68.882 28.2863 67.4874 28.3747 66.6922L23.4052 66.14L18.4358 65.5878C18.2842 66.9526 18.2252 68.798 18.2252 71H23.2252ZM23.4052 66.14V61.14H5.76523V66.14V71.14H23.4052V66.14ZM5.76523 66.14H10.7652V51.02H5.76523H0.765235V66.14H5.76523ZM5.76523 51.02V56.02H26.1052V51.02V46.02H5.76523V51.02ZM26.1052 51.02L30.8855 52.4859C33.4324 44.1809 37.5661 36.914 43.2991 30.6298L39.6052 27.26L35.9114 23.8902C29.1643 31.286 24.2981 39.8591 21.325 49.554L26.1052 51.02ZM39.6052 27.26L43.2991 30.6298C49.0294 24.3485 55.9803 19.4822 64.2172 16.0317L62.2852 11.42L60.3533 6.8083C50.8301 10.7977 42.6611 16.4915 35.9114 23.8902L39.6052 27.26ZM62.2852 11.42L64.1952 16.0408C72.5469 12.5888 81.6129 10.84 91.4452 10.84V5.84V0.839998C80.3976 0.839998 70.0235 2.81122 60.3753 6.79915L62.2852 11.42ZM91.4452 5.84V10.84C101.772 10.84 110.914 12.6534 118.958 16.1793L120.965 11.6L122.973 7.02065C113.496 2.86657 102.959 0.839998 91.4452 0.839998V5.84ZM120.965 11.6L118.981 16.1893C127.166 19.7287 133.962 24.7825 139.444 31.3609L143.285 28.16L147.126 24.9591C140.608 17.1375 132.525 11.1513 122.95 7.01071L120.965 11.6ZM143.285 28.16L139.876 24.5024L121.336 41.7824L124.745 45.44L128.154 49.0976L146.694 31.8176L143.285 28.16ZM124.745 45.44L128.48 42.1154C118.831 31.2768 106.88 25.68 92.8852 25.68V30.68V35.68C103.851 35.68 113.14 39.9232 121.011 48.7646L124.745 45.44ZM92.8852 30.68V25.68C84.1777 25.68 76.2204 27.6681 69.1466 31.7491L71.6452 36.08L74.1439 40.4109C79.5501 37.2919 85.7528 35.68 92.8852 35.68V30.68ZM71.6452 36.08L69.1466 31.7491C62.092 35.819 56.625 41.4901 52.8243 48.6844L57.2452 51.02L61.6662 53.3556C64.5855 47.8299 68.7185 43.5409 74.1439 40.4109L71.6452 36.08ZM57.2452 51.02V56.02H102.785V51.02V46.02H57.2452V51.02ZM102.785 51.02H97.7852V66.14H102.785H107.785V51.02H102.785ZM102.785 66.14V61.14H52.7452V66.14V71.14H102.785V66.14ZM52.7452 66.14L47.7758 65.5878C47.6242 66.9526 47.5652 68.798 47.5652 71H52.5652H57.5652C57.5652 68.882 57.6263 67.4874 57.7147 66.6922L52.7452 66.14ZM52.5652 71H47.5652C47.5652 73.202 47.6242 75.0474 47.7758 76.4121L52.7452 75.86L57.7147 75.3078C57.6263 74.5126 57.5652 73.118 57.5652 71H52.5652ZM52.7452 75.86V80.86H102.785V75.86V70.86H52.7452V75.86ZM102.785 75.86H97.7852V90.98H102.785H107.785V75.86H102.785ZM102.785 90.98V85.98H57.2452V90.98V95.98H102.785V90.98ZM57.2452 90.98L52.8243 93.3156C56.625 100.51 62.092 106.181 69.1466 110.251L71.6452 105.92L74.1439 101.589C68.7185 98.459 64.5855 94.1701 61.6662 88.6444L57.2452 90.98ZM71.6452 105.92L69.1466 110.251C76.2204 114.332 84.1777 116.32 92.8852 116.32V111.32V106.32C85.7528 106.32 79.5501 104.708 74.1439 101.589L71.6452 105.92ZM185.705 127.88L183.307 132.268L183.337 132.284L183.368 132.3L185.705 127.88ZM161.225 104.66L156.919 107.202L156.937 107.233L156.956 107.263L161.225 104.66ZM161.225 37.52L156.942 34.9399L156.937 34.9476L156.933 34.9552L161.225 37.52ZM185.705 14.3L188.063 18.7089L188.072 18.704L188.081 18.6991L185.705 14.3ZM250.325 11.6L248.317 16.1793L248.329 16.1843L248.34 16.1893L250.325 11.6ZM272.645 28.16L276.036 31.834L279.529 28.6103L276.486 24.9591L272.645 28.16ZM253.925 45.44L250.145 48.7129L253.523 52.615L257.316 49.114L253.925 45.44ZM201.365 35.9L203.771 40.2829L203.804 40.2649L203.836 40.2464L201.365 35.9ZM186.965 50.12L182.618 47.6485L182.6 47.681L182.582 47.7137L186.965 50.12ZM186.965 91.88L182.582 94.2863L182.6 94.319L182.618 94.3515L186.965 91.88ZM201.365 106.28L198.893 110.626L198.926 110.645L198.958 110.663L201.365 106.28ZM253.925 96.38L257.316 92.706L253.501 89.1839L250.125 93.1298L253.925 96.38ZM272.645 113.66L276.512 116.83L279.5 113.184L276.036 109.986L272.645 113.66ZM250.325 130.4L248.34 125.811L248.34 125.811L250.325 130.4ZM220.625 136.16V131.16C208.527 131.16 197.7 128.566 188.042 123.46L185.705 127.88L183.368 132.3C194.589 138.234 207.043 141.16 220.625 141.16V136.16ZM185.705 127.88L188.103 123.492C178.536 118.264 171.028 111.132 165.494 102.057L161.225 104.66L156.956 107.263C163.422 117.868 172.234 126.216 183.307 132.268L185.705 127.88ZM161.225 104.66L165.53 102.118C160.141 92.9887 157.405 82.659 157.405 71H152.405H147.405C147.405 84.301 150.549 96.4113 156.919 107.202L161.225 104.66ZM152.405 71H157.405C157.405 59.3404 160.141 49.0814 165.517 40.0848L161.225 37.52L156.933 34.9552C150.549 45.6386 147.405 57.6996 147.405 71H152.405ZM161.225 37.52L165.508 40.1001C171.039 30.9173 178.532 23.8068 188.063 18.7089L185.705 14.3L183.347 9.89107C172.237 15.8332 163.41 24.2027 156.942 34.9399L161.225 37.52ZM185.705 14.3L188.081 18.6991C197.725 13.4891 208.596 10.84 220.805 10.84V5.84V0.839998C207.093 0.839998 194.564 3.83089 183.328 9.90089L185.705 14.3ZM220.805 5.84V10.84C231.131 10.84 240.274 12.6534 248.317 16.1793L250.325 11.6L252.332 7.02065C242.856 2.86657 232.318 0.839998 220.805 0.839998V5.84ZM250.325 11.6L248.34 16.1893C256.525 19.7287 263.322 24.7825 268.804 31.3609L272.645 28.16L276.486 24.9591C269.968 17.1375 261.884 11.1513 252.309 7.01071L250.325 11.6ZM272.645 28.16L269.253 24.486L250.533 41.766L253.925 45.44L257.316 49.114L276.036 31.834L272.645 28.16ZM253.925 45.44L257.705 42.1671C248.271 31.2717 236.35 25.68 222.245 25.68V30.68V35.68C233.34 35.68 242.539 39.9283 250.145 48.7129L253.925 45.44ZM222.245 30.68V25.68C213.674 25.68 205.846 27.6002 198.893 31.5535L201.365 35.9L203.836 40.2464C209.124 37.2397 215.216 35.68 222.245 35.68V30.68ZM201.365 35.9L198.958 31.5171C192.02 35.3264 186.552 40.7312 182.618 47.6485L186.965 50.12L191.311 52.5915C194.338 47.2688 198.469 43.1936 203.771 40.2829L201.365 35.9ZM186.965 50.12L182.582 47.7137C178.771 54.6544 176.925 62.4592 176.925 71H181.925H186.925C186.925 63.9408 188.438 57.8256 191.348 52.5263L186.965 50.12ZM181.925 71H176.925C176.925 79.5408 178.771 87.3456 182.582 94.2863L186.965 91.88L191.348 89.4737C188.438 84.1744 186.925 78.0592 186.925 71H181.925ZM186.965 91.88L182.618 94.3515C186.543 101.254 191.991 106.702 198.893 110.626L201.365 106.28L203.836 101.934C198.499 98.8984 194.346 94.7462 191.311 89.4085L186.965 91.88ZM201.365 106.28L198.958 110.663C205.899 114.473 213.704 116.32 222.245 116.32V111.32V106.32C215.186 106.32 209.07 104.807 203.771 101.897L201.365 106.28ZM222.245 111.32V116.32C236.372 116.32 248.298 110.65 257.724 99.6302L253.925 96.38L250.125 93.1298C242.511 102.03 233.317 106.32 222.245 106.32V111.32ZM253.925 96.38L250.533 100.054L269.253 117.334L272.645 113.66L276.036 109.986L257.316 92.706L253.925 96.38ZM272.645 113.66L268.778 110.49C263.295 117.18 256.505 122.28 248.34 125.811L250.325 130.4L252.309 134.989C261.904 130.84 269.995 124.78 276.512 116.83L272.645 113.66ZM250.325 130.4L248.34 125.811C240.163 129.347 230.95 131.16 220.625 131.16V136.16V141.16C232.14 141.16 242.727 139.133 252.309 134.989L250.325 130.4ZM315.26 127.7L312.883 132.099L312.894 132.105L312.904 132.11L315.26 127.7ZM290.6 104.48L286.294 107.022L286.312 107.053L286.331 107.083L290.6 104.48ZM290.6 37.7L286.317 35.1199L286.312 35.1276L286.308 35.1352L290.6 37.7ZM315.26 14.3L312.904 9.88962L312.894 9.89523L312.883 9.90089L315.26 14.3ZM410.66 37.7L406.377 40.2801L406.384 40.2916L406.391 40.303L410.66 37.7ZM410.66 104.48L414.929 107.083L414.936 107.072L414.943 107.06L410.66 104.48ZM386 127.7L388.376 132.099L386 127.7ZM370.88 106.28L373.323 110.643L373.356 110.624L373.388 110.605L370.88 106.28ZM384.92 91.88L380.573 89.4085L380.555 89.441L380.537 89.4737L384.92 91.88ZM384.92 50.12L380.537 52.5263L380.555 52.559L380.573 52.5915L384.92 50.12ZM370.88 35.9L368.371 40.2252L368.404 40.2441L368.437 40.2625L370.88 35.9ZM330.56 35.9L333.003 40.2625L333.036 40.2441L333.068 40.2252L330.56 35.9ZM316.34 50.12L311.993 47.6485L311.975 47.681L311.957 47.7137L316.34 50.12ZM316.34 91.88L311.957 94.2863L311.975 94.319L311.993 94.3515L316.34 91.88ZM330.56 106.28L328.051 110.605L328.084 110.624L328.117 110.643L330.56 106.28ZM350.72 136.16V131.16C338.384 131.16 327.385 128.507 317.615 123.29L315.26 127.7L312.904 132.11C324.255 138.173 336.896 141.16 350.72 141.16V136.16ZM315.26 127.7L317.636 123.301C307.951 118.069 300.394 110.938 294.869 101.877L290.6 104.48L286.331 107.083C292.806 117.702 301.689 126.051 312.883 132.099L315.26 127.7ZM290.6 104.48L294.905 101.938C289.511 92.8011 286.78 82.5295 286.78 71H281.78H276.78C276.78 84.1905 279.928 96.2389 286.294 107.022L290.6 104.48ZM281.78 71H286.78C286.78 59.4699 289.511 49.2689 294.892 40.2648L290.6 37.7L286.308 35.1352C279.928 45.8111 276.78 57.8101 276.78 71H281.78ZM290.6 37.7L294.883 40.2801C300.411 31.1023 307.966 23.9233 317.636 18.6991L315.26 14.3L312.883 9.90089C301.674 15.9567 292.788 24.3777 286.317 35.1199L290.6 37.7ZM315.26 14.3L317.615 18.7104C327.385 13.4925 338.384 10.84 350.72 10.84V5.84V0.839998C336.896 0.839998 324.255 3.82745 312.904 9.88962L315.26 14.3ZM350.72 5.84V10.84C363.057 10.84 373.986 13.4927 383.623 18.6991L386 14.3L388.376 9.90089C377.134 3.82727 364.543 0.839998 350.72 0.839998V5.84ZM386 14.3L383.623 18.6991C393.294 23.9233 400.848 31.1023 406.377 40.2801L410.66 37.7L414.943 35.1199C408.471 24.3777 399.586 15.9567 388.376 9.90089L386 14.3ZM410.66 37.7L406.391 40.303C411.878 49.3019 414.66 59.4892 414.66 71H419.66H424.66C424.66 57.7908 421.442 45.7781 414.929 35.097L410.66 37.7ZM419.66 71H414.66C414.66 82.5104 411.878 92.7683 406.377 101.9L410.66 104.48L414.943 107.06C421.442 96.2717 424.66 84.2096 424.66 71H419.66ZM410.66 104.48L406.391 101.877C400.866 110.938 393.309 118.069 383.623 123.301L386 127.7L388.376 132.099C399.571 126.051 408.454 117.702 414.929 107.083L410.66 104.48ZM386 127.7L383.623 123.301C373.986 128.507 363.057 131.16 350.72 131.16V136.16V141.16C364.543 141.16 377.134 138.173 388.376 132.099L386 127.7ZM350.72 111.32V116.32C358.943 116.32 366.516 114.454 373.323 110.643L370.88 106.28L368.437 101.917C363.244 104.826 357.376 106.32 350.72 106.32V111.32ZM370.88 106.28L373.388 110.605C380.182 106.665 385.507 101.199 389.303 94.2863L384.92 91.88L380.537 89.4737C377.612 94.8008 373.578 98.935 368.371 101.955L370.88 106.28ZM384.92 91.88L389.266 94.3515C393.22 87.3992 395.14 79.5708 395.14 71H390.14H385.14C385.14 78.0292 383.58 84.1208 380.573 89.4085L384.92 91.88ZM390.14 71H395.14C395.14 62.4292 393.22 54.6008 389.266 47.6485L384.92 50.12L380.573 52.5915C383.58 57.8792 385.14 63.9708 385.14 71H390.14ZM384.92 50.12L389.303 47.7137C385.499 40.7861 380.153 35.3623 373.323 31.5375L370.88 35.9L368.437 40.2625C373.607 43.1576 377.62 47.2139 380.537 52.5263L384.92 50.12ZM370.88 35.9L373.388 31.5748C366.571 27.6207 358.975 25.68 350.72 25.68V30.68V35.68C357.345 35.68 363.189 37.2193 368.371 40.2252L370.88 35.9ZM350.72 30.68V25.68C342.465 25.68 334.869 27.6207 328.051 31.5748L330.56 35.9L333.068 40.2252C338.251 37.2193 344.095 35.68 350.72 35.68V30.68ZM330.56 35.9L328.117 31.5375C321.302 35.3536 315.912 40.7563 311.993 47.6485L316.34 50.12L320.686 52.5915C323.727 47.2437 327.817 43.1664 333.003 40.2625L330.56 35.9ZM316.34 50.12L311.957 47.7137C308.146 54.6544 306.3 62.4592 306.3 71H311.3H316.3C316.3 63.9408 317.813 57.8256 320.723 52.5263L316.34 50.12ZM311.3 71H306.3C306.3 79.5408 308.146 87.3456 311.957 94.2863L316.34 91.88L320.723 89.4737C317.813 84.1744 316.3 78.0592 316.3 71H311.3ZM316.34 91.88L311.993 94.3515C315.904 101.229 321.273 106.674 328.051 110.605L330.56 106.28L333.068 101.955C327.846 98.926 323.735 94.7709 320.686 89.4085L316.34 91.88ZM330.56 106.28L328.117 110.643C334.924 114.454 342.496 116.32 350.72 116.32V111.32V106.32C344.063 106.32 338.196 104.826 333.003 101.917L330.56 106.28Z" fill="black" mask="url(#path-1-outside-1_293_2742)"/>
</svg>
